<svg width="68" height="51" viewBox="0 0 68 51" fill="none" xmlns="http://www.w3.org/2000/svg">
<path d="M21.909 51.328C34.971 51.328 43.523 39.8268 43.523 25.85H42.523C42.523 39.4732 34.239 50.328 21.909 50.328V51.328ZM43.523 25.85C43.523 11.7368 35.0413 0.371999 22.047 0.371999V1.372C34.3067 1.372 42.523 12.0872 42.523 25.85H43.523ZM22.047 0.371999C8.98502 0.371999 0.433 11.8732 0.433 25.85H1.433C1.433 12.2268 9.71698 1.372 22.047 1.372V0.371999ZM0.433 25.85C0.433 39.962 8.84473 51.328 21.909 51.328V50.328C9.58127 50.328 1.433 39.614 1.433 25.85H0.433ZM22.047 42.669C18.4819 42.669 15.5368 40.8284 13.4638 37.7979C11.3847 34.7586 10.196 30.5331 10.196 25.85H9.196C9.196 30.6889 10.4223 35.1229 12.6384 38.3625C14.8607 41.6111 18.0911 43.669 22.047 43.669V42.669ZM10.196 25.85C10.196 21.0603 11.3689 16.8354 13.4212 13.8237C15.4664 10.8224 18.3758 9.031 21.909 9.031V8.031C17.9902 8.031 14.7931 10.0346 12.5948 13.2606C10.4036 16.4761 9.196 20.9107 9.196 25.85H10.196ZM21.909 9.031C25.4386 9.031 28.3844 10.8708 30.4668 13.9028C32.5547 16.9428 33.76 21.1684 33.76 25.85H34.76C34.76 21.0096 33.5158 16.5757 31.2912 13.3367C29.0611 10.0897 25.8314 8.031 21.909 8.031V9.031ZM33.76 25.85C33.76 30.6061 32.604 34.8314 30.5598 37.8518C28.5231 40.8611 25.614 42.669 22.047 42.669V43.669C26.001 43.669 29.1984 41.6474 31.388 38.4122C33.5701 35.1881 34.76 30.7539 34.76 25.85H33.76ZM59.2127 50H58.7127V50.5H59.2127V50ZM67.6307 50V50.5H68.1307V50H67.6307ZM67.6307 1.355H68.1307V0.854997H67.6307V1.355ZM61.6967 1.355V0.854997H61.6188L61.5446 0.878667L61.6967 1.355ZM48.7247 5.495L48.5726 5.01867L48.1216 5.16261L48.2408 5.62081L48.7247 5.495ZM50.5187 12.395L50.0348 12.5208L50.1627 13.0128L50.6525 12.8768L50.5187 12.395ZM59.2127 9.98H59.7127V9.32218L59.0788 9.49824L59.2127 9.98ZM59.2127 50.5H67.6307V49.5H59.2127V50.5ZM68.1307 50V1.355H67.1307V50H68.1307ZM67.6307 0.854997H61.6967V1.855H67.6307V0.854997ZM61.5446 0.878667L48.5726 5.01867L48.8767 5.97133L61.8487 1.83133L61.5446 0.878667ZM48.2408 5.62081L50.0348 12.5208L51.0026 12.2692L49.2086 5.36918L48.2408 5.62081ZM50.6525 12.8768L59.3465 10.4618L59.0788 9.49824L50.3848 11.9132L50.6525 12.8768ZM58.7127 9.98V50H59.7127V9.98H58.7127Z" fill="black"/>
</svg>
