<svg width="85" height="51" viewBox="0 0 85 51" fill="none" xmlns="http://www.w3.org/2000/svg">
<path d="M6.729 43.721L6.34002 44.0352L6.34152 44.037L6.729 43.721ZM6.798 8.117L6.41119 7.80018L6.41086 7.80058L6.798 8.117ZM37.158 8.048L36.769 8.36217L36.7709 8.36441L37.158 8.048ZM37.089 43.652L36.7022 43.3352L36.7019 43.3356L37.089 43.652ZM13.077 38.201L12.6618 38.4797L12.6663 38.4862L13.077 38.201ZM30.879 38.27L30.4656 37.9887L30.4648 37.99L30.879 38.27ZM30.81 13.568L30.3975 13.8505L30.3993 13.8532L30.81 13.568ZM13.008 13.499L12.5946 13.2177L12.5938 13.219L13.008 13.499ZM21.909 50.328C15.7992 50.328 10.883 48.0235 7.11648 43.405L6.34152 44.037C10.303 48.8945 15.5068 51.328 21.909 51.328V50.328ZM7.11797 43.4068C3.33697 38.7256 1.433 32.8848 1.433 25.85H0.433C0.433 33.0752 2.39303 39.1484 6.34003 44.0352L7.11797 43.4068ZM1.433 25.85C1.433 18.9104 3.35818 13.1158 7.18514 8.43341L6.41086 7.80058C2.41782 12.6862 0.433 18.7136 0.433 25.85H1.433ZM7.18481 8.43382C11.0464 3.71904 15.9878 1.372 22.047 1.372V0.371999C15.6862 0.371999 10.4616 2.85495 6.41119 7.80018L7.18481 8.43382ZM22.047 1.372C28.1077 1.372 33.001 3.69703 36.769 8.36217L37.547 7.73383C33.587 2.83096 28.4063 0.371999 22.047 0.371999V1.372ZM36.7709 8.36441C40.5973 13.0462 42.523 18.8635 42.523 25.85H43.523C43.523 18.6685 41.5387 12.6178 37.5451 7.73158L36.7709 8.36441ZM42.523 25.85C42.523 32.7881 40.5757 38.6059 36.7022 43.3352L37.4758 43.9688C41.5143 39.0381 43.523 32.9879 43.523 25.85H42.523ZM36.7019 43.3356C32.8874 48.0027 27.9698 50.328 21.909 50.328V51.328C28.2682 51.328 33.4706 48.8693 37.4761 43.9684L36.7019 43.3356ZM12.6663 38.4862C15.0493 41.9177 18.1856 43.669 22.047 43.669V42.669C18.5484 42.669 15.7047 41.1083 13.4877 37.9158L12.6663 38.4862ZM22.047 43.669C25.9066 43.669 29.0001 41.942 31.2932 38.55L30.4648 37.99C28.3419 41.13 25.5474 42.669 22.047 42.669V43.669ZM31.2924 38.5513C33.6151 35.1384 34.76 30.8941 34.76 25.85H33.76C33.76 30.7419 32.6509 34.7776 30.4656 37.9887L31.2924 38.5513ZM34.76 25.85C34.76 20.8937 33.5901 16.6947 31.2207 13.2828L30.3993 13.8532C32.6299 17.0653 33.76 21.0543 33.76 25.85H34.76ZM31.2225 13.2855C28.8424 9.81043 25.7298 8.031 21.909 8.031V9.031C25.3562 9.031 28.1776 10.6096 30.3975 13.8505L31.2225 13.2855ZM21.909 8.031C18.0469 8.031 14.932 9.78317 12.5946 13.2177L13.4214 13.7803C15.592 10.5908 18.4111 9.031 21.909 9.031V8.031ZM12.5938 13.219C10.3169 16.5868 9.196 20.8082 9.196 25.85H10.196C10.196 20.9558 11.2831 16.9432 13.4222 13.779L12.5938 13.219ZM9.196 25.85C9.196 30.8046 10.342 35.0236 12.6619 38.4797L13.4921 37.9223C11.304 34.6624 10.196 30.6474 10.196 25.85H9.196ZM49.6378 50H49.1378V50.5H49.6378V50ZM49.6378 43.307L49.3139 42.9261L49.1378 43.0759V43.307H49.6378ZM66.2668 29.162L65.9457 28.7787L65.9429 28.7811L66.2668 29.162ZM73.3048 22.124L72.8966 21.8353L72.8952 21.8373L73.3048 22.124ZM73.0978 10.67L72.7558 11.0348L72.7621 11.0405L73.0978 10.67ZM61.7818 10.325L61.5019 9.91067L61.4966 9.91431L61.7818 10.325ZM56.3308 15.845L56.0229 16.2389L56.4168 16.5468L56.7247 16.153L56.3308 15.845ZM50.3278 11.153L49.9202 10.8634L49.6436 11.2528L50.0199 11.5469L50.3278 11.153ZM57.9868 3.494L58.2485 3.92009L58.2505 3.91882L57.9868 3.494ZM79.6528 5.012L79.3171 5.38249L79.6528 5.012ZM83.3788 20.675L83.8561 20.8241L83.8574 20.82L83.3788 20.675ZM80.8948 25.229L80.4977 24.9253L80.4963 24.9271L80.8948 25.229ZM77.0998 29.438L77.4405 29.8039L77.441 29.8035L77.0998 29.438ZM71.5108 34.268L71.1922 33.8827L71.1907 33.8839L71.5108 34.268ZM61.5748 42.548L61.2547 42.1639L60.1938 43.048H61.5748V42.548ZM84.5518 42.548H85.0518V42.048H84.5518V42.548ZM84.5518 50V50.5H85.0518V50H84.5518ZM50.1378 50V43.307H49.1378V50H50.1378ZM49.9618 43.6879L66.5908 29.5429L65.9429 28.7811L49.3139 42.9261L49.9618 43.6879ZM66.5879 29.5453C69.9996 26.6869 72.3873 24.3066 73.7145 22.4107L72.8952 21.8373C71.6463 23.6214 69.3421 25.9331 65.9457 28.7787L66.5879 29.5453ZM73.713 22.4127C75.101 20.4504 75.8058 18.35 75.8058 16.121H74.8058C74.8058 18.124 74.1767 20.0256 72.8966 21.8353L73.713 22.4127ZM75.8058 16.121C75.8058 13.7043 75.0271 11.7436 73.4336 10.2995L72.7621 11.0405C74.1126 12.2644 74.8058 13.9377 74.8058 16.121H75.8058ZM73.4398 10.3052C71.864 8.82792 69.8738 8.1 67.5088 8.1V9.1C69.6519 9.1 71.3877 9.75207 72.7559 11.0348L73.4398 10.3052ZM67.5088 8.1C65.2963 8.1 63.2892 8.70308 61.5019 9.9107L62.0618 10.7393C63.6785 9.64691 65.4894 9.1 67.5088 9.1V8.1ZM61.4966 9.91431C59.7825 11.1047 57.9298 12.988 55.9369 15.537L56.7247 16.153C58.6879 13.642 60.4692 11.8453 62.067 10.7357L61.4966 9.91431ZM56.6387 15.4511L50.6357 10.7591L50.0199 11.5469L56.0229 16.2389L56.6387 15.4511ZM50.7354 11.4426C53.1948 7.98132 55.7017 5.48392 58.2485 3.92008L57.7252 3.06791C55.028 4.72408 52.4289 7.33267 49.9202 10.8634L50.7354 11.4426ZM58.2505 3.91882C60.8187 2.32479 64.1013 1.51 68.1298 1.51V0.509997C63.9704 0.509997 60.491 1.35121 57.7232 3.06918L58.2505 3.91882ZM68.1298 1.51C72.769 1.51 76.4822 2.81337 79.3171 5.38249L79.9886 4.64151C76.9355 1.87463 72.9667 0.509997 68.1298 0.509997V1.51ZM79.3171 5.38249C82.1454 7.94563 83.5688 11.3244 83.5688 15.569H84.5688C84.5688 11.0736 83.0483 7.41436 79.9886 4.64151L79.3171 5.38249ZM83.5688 15.569C83.5688 17.4149 83.3437 19.0669 82.9003 20.53L83.8574 20.82C84.334 19.2471 84.5688 17.4951 84.5688 15.569H83.5688ZM82.9016 20.5259C82.4631 21.929 81.6675 23.3955 80.4977 24.9253L81.292 25.5327C82.5142 23.9345 83.3746 22.365 83.8561 20.8241L82.9016 20.5259ZM80.4963 24.9271C79.3634 26.4225 78.1176 27.8042 76.7587 29.0725L77.441 29.8035C78.8421 28.4958 80.1263 27.0715 81.2934 25.5309L80.4963 24.9271ZM76.7591 29.0721C75.4355 30.3044 73.5811 31.9072 71.1922 33.8827L71.8295 34.6533C74.2246 32.6728 76.0961 31.0556 77.4405 29.8039L76.7591 29.0721ZM71.1907 33.8839L61.2547 42.1639L61.8949 42.9321L71.8309 34.6521L71.1907 33.8839ZM61.5748 43.048H84.5518V42.048H61.5748V43.048ZM84.0518 42.548V50H85.0518V42.548H84.0518ZM84.5518 49.5H49.6378V50.5H84.5518V49.5Z" fill="white"/>
</svg>
