<svg width="91" height="51" viewBox="0 0 91 51" fill="none" xmlns="http://www.w3.org/2000/svg">
<path d="M6.729 43.721L6.34002 44.0352L6.34152 44.037L6.729 43.721ZM6.798 8.117L6.41119 7.80018L6.41086 7.80058L6.798 8.117ZM37.158 8.048L36.769 8.36217L36.7709 8.36441L37.158 8.048ZM37.089 43.652L36.7022 43.3352L36.7019 43.3356L37.089 43.652ZM13.077 38.201L12.6618 38.4797L12.6663 38.4862L13.077 38.201ZM30.879 38.27L30.4656 37.9887L30.4648 37.99L30.879 38.27ZM30.81 13.568L30.3975 13.8505L30.3993 13.8532L30.81 13.568ZM13.008 13.499L12.5946 13.2177L12.5938 13.219L13.008 13.499ZM21.909 50.328C15.7992 50.328 10.883 48.0235 7.11648 43.405L6.34152 44.037C10.303 48.8945 15.5068 51.328 21.909 51.328V50.328ZM7.11797 43.4068C3.33697 38.7256 1.433 32.8848 1.433 25.85H0.433C0.433 33.0752 2.39303 39.1484 6.34003 44.0352L7.11797 43.4068ZM1.433 25.85C1.433 18.9104 3.35818 13.1158 7.18514 8.43341L6.41086 7.80058C2.41782 12.6862 0.433 18.7136 0.433 25.85H1.433ZM7.18481 8.43382C11.0464 3.71904 15.9878 1.372 22.047 1.372V0.371999C15.6862 0.371999 10.4616 2.85495 6.41119 7.80018L7.18481 8.43382ZM22.047 1.372C28.1077 1.372 33.001 3.69703 36.769 8.36217L37.547 7.73383C33.587 2.83096 28.4063 0.371999 22.047 0.371999V1.372ZM36.7709 8.36441C40.5973 13.0462 42.523 18.8635 42.523 25.85H43.523C43.523 18.6685 41.5387 12.6178 37.5451 7.73158L36.7709 8.36441ZM42.523 25.85C42.523 32.7881 40.5757 38.6059 36.7022 43.3352L37.4758 43.9688C41.5143 39.0381 43.523 32.9879 43.523 25.85H42.523ZM36.7019 43.3356C32.8874 48.0027 27.9698 50.328 21.909 50.328V51.328C28.2682 51.328 33.4706 48.8693 37.4761 43.9684L36.7019 43.3356ZM12.6663 38.4862C15.0493 41.9177 18.1856 43.669 22.047 43.669V42.669C18.5484 42.669 15.7047 41.1083 13.4877 37.9158L12.6663 38.4862ZM22.047 43.669C25.9066 43.669 29.0001 41.942 31.2932 38.55L30.4648 37.99C28.3419 41.13 25.5474 42.669 22.047 42.669V43.669ZM31.2924 38.5513C33.6151 35.1384 34.76 30.8941 34.76 25.85H33.76C33.76 30.7419 32.6509 34.7776 30.4656 37.9887L31.2924 38.5513ZM34.76 25.85C34.76 20.8937 33.5901 16.6947 31.2207 13.2828L30.3993 13.8532C32.6299 17.0653 33.76 21.0543 33.76 25.85H34.76ZM31.2225 13.2855C28.8424 9.81043 25.7298 8.031 21.909 8.031V9.031C25.3562 9.031 28.1776 10.6096 30.3975 13.8505L31.2225 13.2855ZM21.909 8.031C18.0469 8.031 14.932 9.78317 12.5946 13.2177L13.4214 13.7803C15.592 10.5908 18.4111 9.031 21.909 9.031V8.031ZM12.5938 13.219C10.3169 16.5868 9.196 20.8082 9.196 25.85H10.196C10.196 20.9558 11.2831 16.9432 13.4222 13.779L12.5938 13.219ZM9.196 25.85C9.196 30.8046 10.342 35.0236 12.6619 38.4797L13.4921 37.9223C11.304 34.6624 10.196 30.6474 10.196 25.85H9.196ZM75.3587 50H74.8587V50.5H75.3587V50ZM75.3587 39.167H75.8587V38.667H75.3587V39.167ZM51.0017 39.167L50.5179 39.2934L50.6156 39.667H51.0017V39.167ZM49.4147 33.095L49.0329 32.7721L48.8653 32.9703L48.9309 33.2214L49.4147 33.095ZM76.2557 1.355V0.854997H76.0237L75.8739 1.03214L76.2557 1.355ZM83.5007 1.355H84.0007V0.854997H83.5007V1.355ZM83.5007 32.198H83.0007V32.698H83.5007V32.198ZM90.4007 32.198H90.9007V31.698H90.4007V32.198ZM90.4007 39.167V39.667H90.9007V39.167H90.4007ZM83.5007 39.167V38.667H83.0007V39.167H83.5007ZM83.5007 50V50.5H84.0007V50H83.5007ZM59.4887 32.198L59.104 31.8786L58.4236 32.698H59.4887V32.198ZM75.3587 32.198V32.698H75.8587V32.198H75.3587ZM75.3587 13.085H75.8587V11.7001L74.974 12.7656L75.3587 13.085ZM75.8587 50V39.167H74.8587V50H75.8587ZM75.3587 38.667H51.0017V39.667H75.3587V38.667ZM51.4854 39.0406L49.8984 32.9686L48.9309 33.2214L50.5179 39.2934L51.4854 39.0406ZM49.7965 33.4179L76.6375 1.67786L75.8739 1.03214L49.0329 32.7721L49.7965 33.4179ZM76.2557 1.855H83.5007V0.854997H76.2557V1.855ZM83.0007 1.355V32.198H84.0007V1.355H83.0007ZM83.5007 32.698H90.4007V31.698H83.5007V32.698ZM89.9007 32.198V39.167H90.9007V32.198H89.9007ZM90.4007 38.667H83.5007V39.667H90.4007V38.667ZM83.0007 39.167V50H84.0007V39.167H83.0007ZM83.5007 49.5H75.3587V50.5H83.5007V49.5ZM59.4887 32.698H75.3587V31.698H59.4887V32.698ZM75.8587 32.198V13.085H74.8587V32.198H75.8587ZM74.974 12.7656L59.104 31.8786L59.8733 32.5174L75.7433 13.4044L74.974 12.7656Z" fill="black"/>
</svg>
