<svg width="86" height="51" viewBox="0 0 86 51" fill="none" xmlns="http://www.w3.org/2000/svg">
<path d="M6.729 43.721L6.34002 44.0352L6.34152 44.037L6.729 43.721ZM6.798 8.117L6.41119 7.80018L6.41086 7.80058L6.798 8.117ZM37.158 8.048L36.769 8.36217L36.7709 8.36441L37.158 8.048ZM37.089 43.652L36.7022 43.3352L36.7019 43.3356L37.089 43.652ZM13.077 38.201L12.6618 38.4797L12.6663 38.4862L13.077 38.201ZM30.879 38.27L30.4656 37.9887L30.4648 37.99L30.879 38.27ZM30.81 13.568L30.3975 13.8505L30.3993 13.8532L30.81 13.568ZM13.008 13.499L12.5946 13.2177L12.5938 13.219L13.008 13.499ZM21.909 50.328C15.7992 50.328 10.883 48.0235 7.11648 43.405L6.34152 44.037C10.303 48.8945 15.5068 51.328 21.909 51.328V50.328ZM7.11797 43.4068C3.33697 38.7256 1.433 32.8848 1.433 25.85H0.433C0.433 33.0752 2.39303 39.1484 6.34003 44.0352L7.11797 43.4068ZM1.433 25.85C1.433 18.9104 3.35818 13.1158 7.18514 8.43341L6.41086 7.80058C2.41782 12.6862 0.433 18.7136 0.433 25.85H1.433ZM7.18481 8.43382C11.0464 3.71904 15.9878 1.372 22.047 1.372V0.371999C15.6862 0.371999 10.4616 2.85495 6.41119 7.80018L7.18481 8.43382ZM22.047 1.372C28.1077 1.372 33.001 3.69703 36.769 8.36217L37.547 7.73383C33.587 2.83096 28.4063 0.371999 22.047 0.371999V1.372ZM36.7709 8.36441C40.5973 13.0462 42.523 18.8635 42.523 25.85H43.523C43.523 18.6685 41.5387 12.6178 37.5451 7.73158L36.7709 8.36441ZM42.523 25.85C42.523 32.7881 40.5757 38.6059 36.7022 43.3352L37.4758 43.9688C41.5143 39.0381 43.523 32.9879 43.523 25.85H42.523ZM36.7019 43.3356C32.8874 48.0027 27.9698 50.328 21.909 50.328V51.328C28.2682 51.328 33.4706 48.8693 37.4761 43.9684L36.7019 43.3356ZM12.6663 38.4862C15.0493 41.9177 18.1856 43.669 22.047 43.669V42.669C18.5484 42.669 15.7047 41.1083 13.4877 37.9158L12.6663 38.4862ZM22.047 43.669C25.9066 43.669 29.0001 41.942 31.2932 38.55L30.4648 37.99C28.3419 41.13 25.5474 42.669 22.047 42.669V43.669ZM31.2924 38.5513C33.6151 35.1384 34.76 30.8941 34.76 25.85H33.76C33.76 30.7419 32.6509 34.7776 30.4656 37.9887L31.2924 38.5513ZM34.76 25.85C34.76 20.8937 33.5901 16.6947 31.2207 13.2828L30.3993 13.8532C32.6299 17.0653 33.76 21.0543 33.76 25.85H34.76ZM31.2225 13.2855C28.8424 9.81043 25.7298 8.031 21.909 8.031V9.031C25.3562 9.031 28.1776 10.6096 30.3975 13.8505L31.2225 13.2855ZM21.909 8.031C18.0469 8.031 14.932 9.78317 12.5946 13.2177L13.4214 13.7803C15.592 10.5908 18.4111 9.031 21.909 9.031V8.031ZM12.5938 13.219C10.3169 16.5868 9.196 20.8082 9.196 25.85H10.196C10.196 20.9558 11.2831 16.9432 13.4222 13.779L12.5938 13.219ZM9.196 25.85C9.196 30.8046 10.342 35.0236 12.6619 38.4797L13.4921 37.9223C11.304 34.6624 10.196 30.6474 10.196 25.85H9.196ZM50.1737 43.445L49.7934 43.1203L49.4891 43.4767L49.825 43.8034L50.1737 43.445ZM55.4177 37.304L55.7588 36.9385L55.3768 36.5819L55.0374 36.9793L55.4177 37.304ZM74.8067 40.823L75.1345 41.2006L75.1401 41.1956L74.8067 40.823ZM74.5997 28.817L74.2872 29.2076L74.2981 29.2158L74.5997 28.817ZM58.5227 28.748L58.2466 29.1649L58.4809 29.32L58.7352 29.2006L58.5227 28.748ZM53.4167 25.367L52.9175 25.3379L52.9008 25.6251L53.1406 25.7839L53.4167 25.367ZM54.7967 1.7V1.2H54.325L54.2975 1.67089L54.7967 1.7ZM83.6387 1.7H84.1387V1.2H83.6387V1.7ZM83.6387 9.221V9.721H84.1387V9.221H83.6387ZM62.1107 9.221V8.721H61.6431L61.6118 9.18754L62.1107 9.221ZM61.3517 20.537L60.8528 20.5035L60.8014 21.2691L61.5225 21.0069L61.3517 20.537ZM81.0857 23.09L81.4069 22.7068L81.0857 23.09ZM80.8097 46.343L80.4746 45.9719L80.472 45.9742L80.8097 46.343ZM67.9067 50.328C61.2811 50.328 55.4935 47.9222 50.5223 43.0866L49.825 43.8034C54.9738 48.8118 61.0082 51.328 67.9067 51.328V50.328ZM50.5539 43.7697L55.7979 37.6287L55.0374 36.9793L49.7934 43.1203L50.5539 43.7697ZM55.0765 37.6695C59.2746 41.5877 63.5306 43.6 67.8377 43.6V42.6C63.8647 42.6 59.8407 40.7483 55.7588 36.9385L55.0765 37.6695ZM67.8377 43.6C70.8248 43.6 73.2744 42.8159 75.1345 41.2005L74.4788 40.4455C72.8429 41.8661 70.6466 42.6 67.8377 42.6V43.6ZM75.1401 41.1956C77.0052 39.5268 77.9287 37.3156 77.9287 34.613H76.9287C76.9287 37.0624 76.1041 38.9912 74.4733 40.4504L75.1401 41.1956ZM77.9287 34.613C77.9287 32.024 76.9167 29.9421 74.9012 28.4182L74.2981 29.2158C76.0546 30.5439 76.9287 32.326 76.9287 34.613H77.9287ZM74.912 28.4266C72.9631 26.8674 70.4522 26.109 67.4237 26.109V27.109C70.2831 27.109 72.5562 27.8226 74.2873 29.2074L74.912 28.4266ZM67.4237 26.109C64.4415 26.109 61.4022 26.8431 58.3101 28.2954L58.7352 29.2006C61.7152 27.8009 64.6099 27.109 67.4237 27.109V26.109ZM58.7987 28.3311L53.6927 24.9501L53.1406 25.7839L58.2466 29.1649L58.7987 28.3311ZM53.9158 25.3961L55.2958 1.7291L54.2975 1.67089L52.9175 25.3379L53.9158 25.3961ZM54.7967 2.2H83.6387V1.2H54.7967V2.2ZM83.1387 1.7V9.221H84.1387V1.7H83.1387ZM83.6387 8.721H62.1107V9.721H83.6387V8.721ZM61.6118 9.18754L60.8528 20.5035L61.8505 20.5705L62.6095 9.25446L61.6118 9.18754ZM61.5225 21.0069C64.0003 20.1059 66.4955 19.657 69.0107 19.657V18.657C66.3738 18.657 63.7631 19.1281 61.1808 20.0671L61.5225 21.0069ZM69.0107 19.657C73.8404 19.657 77.7441 20.9414 80.7645 23.4732L81.4069 22.7068C78.1713 19.9946 74.0249 18.657 69.0107 18.657V19.657ZM80.7645 23.4732C83.7546 25.9797 85.2777 29.6197 85.2777 34.475H86.2777C86.2777 29.3943 84.6727 25.4443 81.4069 22.7068L80.7645 23.4732ZM85.2777 34.475C85.2777 39.2718 83.6701 43.0871 80.4746 45.9719L81.1447 46.7141C84.5732 43.6189 86.2777 39.5222 86.2777 34.475H85.2777ZM80.472 45.9742C77.3164 48.8632 73.1447 50.328 67.9067 50.328V51.328C73.3406 51.328 77.7709 49.8028 81.1473 46.7118L80.472 45.9742Z" fill="black"/>
</svg>
