<svg width="89" height="51" viewBox="0 0 89 51" fill="none" xmlns="http://www.w3.org/2000/svg">
<path d="M21.909 51.328C34.971 51.328 43.523 39.8268 43.523 25.85H42.523C42.523 39.4732 34.239 50.328 21.909 50.328V51.328ZM43.523 25.85C43.523 11.7368 35.0413 0.371999 22.047 0.371999V1.372C34.3067 1.372 42.523 12.0872 42.523 25.85H43.523ZM22.047 0.371999C8.98502 0.371999 0.433 11.8732 0.433 25.85H1.433C1.433 12.2268 9.71698 1.372 22.047 1.372V0.371999ZM0.433 25.85C0.433 39.962 8.84473 51.328 21.909 51.328V50.328C9.58127 50.328 1.433 39.614 1.433 25.85H0.433ZM22.047 42.669C18.4819 42.669 15.5368 40.8284 13.4638 37.7979C11.3847 34.7586 10.196 30.5331 10.196 25.85H9.196C9.196 30.6889 10.4223 35.1229 12.6384 38.3625C14.8607 41.6111 18.0911 43.669 22.047 43.669V42.669ZM10.196 25.85C10.196 21.0603 11.3689 16.8354 13.4212 13.8237C15.4664 10.8224 18.3758 9.031 21.909 9.031V8.031C17.9902 8.031 14.7931 10.0346 12.5948 13.2606C10.4036 16.4761 9.196 20.9107 9.196 25.85H10.196ZM21.909 9.031C25.4386 9.031 28.3844 10.8708 30.4668 13.9028C32.5547 16.9428 33.76 21.1684 33.76 25.85H34.76C34.76 21.0096 33.5158 16.5757 31.2912 13.3367C29.0611 10.0897 25.8314 8.031 21.909 8.031V9.031ZM33.76 25.85C33.76 30.6061 32.604 34.8314 30.5598 37.8518C28.5231 40.8611 25.614 42.669 22.047 42.669V43.669C26.001 43.669 29.1984 41.6474 31.388 38.4122C33.5701 35.1881 34.76 30.7539 34.76 25.85H33.76ZM59.6957 23.918L59.1962 23.8946L59.1369 25.1592L60.0443 24.2764L59.6957 23.918ZM81.7757 12.809L81.4693 13.2041L81.8856 13.527L82.1863 13.0943L81.7757 12.809ZM86.3297 6.254L86.7403 6.53928L87.0064 6.15626L86.6428 5.86419L86.3297 6.254ZM56.7977 45.791L57.1512 45.4374L56.7977 45.791ZM70.1837 51.328C80.5539 51.328 88.6237 44.3197 88.6237 34.406H87.6237C87.6237 43.6743 80.0995 50.328 70.1837 50.328V51.328ZM88.6237 34.406C88.6237 29.368 86.6848 25.3968 83.5147 22.6924C80.3537 19.9957 76.0049 18.588 71.2187 18.588V19.588C75.8164 19.588 79.9201 20.9403 82.8657 23.4531C85.8021 25.9582 87.6237 29.646 87.6237 34.406H88.6237ZM71.2187 18.588C65.3876 18.588 61.9573 21.0198 59.347 23.5596L60.0443 24.2764C62.54 21.8482 65.7337 19.588 71.2187 19.588V18.588ZM60.1951 23.9414C60.3993 19.5863 61.4869 15.8605 63.3626 13.2379C65.2257 10.6328 67.8739 9.1 71.2877 9.1V8.1C67.5255 8.1 64.5846 9.81016 62.5492 12.6561C60.5264 15.4845 59.4061 19.4177 59.1962 23.8946L60.1951 23.9414ZM71.2877 9.1C75.3366 9.1 78.127 10.6122 81.4693 13.2041L82.0821 12.4139C78.6623 9.76181 75.6567 8.1 71.2877 8.1V9.1ZM82.1863 13.0943L86.7403 6.53928L85.919 5.96872L81.365 12.5237L82.1863 13.0943ZM86.6428 5.86419C82.3631 2.42642 77.9778 0.371999 71.5637 0.371999V1.372C77.7075 1.372 81.8782 3.31957 86.0165 6.64381L86.6428 5.86419ZM71.5637 0.371999C64.5726 0.371999 59.2482 3.32923 55.6873 8.1835C52.1391 13.0202 50.3637 19.7066 50.3637 27.161H51.3637C51.3637 19.8494 53.1072 13.3913 56.4936 8.77499C59.8671 4.17627 64.8927 1.372 71.5637 1.372V0.371999ZM50.3637 27.161C50.3637 37.1131 52.5954 42.2958 56.4441 46.1446L57.1512 45.4374C53.548 41.8342 51.3637 36.9429 51.3637 27.161H50.3637ZM56.4441 46.1446C59.722 49.4224 64.1321 51.328 70.1837 51.328V50.328C64.3673 50.328 60.2213 48.5076 57.1512 45.4374L56.4441 46.1446ZM69.9767 43.014C64.1278 43.014 60.4717 39.3927 60.4717 34.82H59.4717C59.4717 40.0453 63.6816 44.014 69.9767 44.014V43.014ZM60.4717 34.82C60.4717 30.3742 64.0021 26.695 69.7697 26.695V25.695C63.5312 25.695 59.4717 29.7438 59.4717 34.82H60.4717ZM69.7697 26.695C72.6725 26.695 75.0155 27.5617 76.6252 28.9692C78.2307 30.373 79.1367 32.3392 79.1367 34.613H80.1367C80.1367 32.0568 79.1106 29.814 77.2834 28.2163C75.4603 26.6223 72.8698 25.695 69.7697 25.695V26.695ZM79.1367 34.613C79.1367 37.0429 78.269 39.1327 76.7128 40.6164C75.1557 42.1008 72.8713 43.014 69.9767 43.014V44.014C73.085 44.014 75.6306 43.0297 77.4028 41.3401C79.1759 39.6498 80.1367 37.2891 80.1367 34.613H79.1367Z" fill="black"/>
</svg>
