<svg width="41" height="40" viewBox="0 0 41 40" fill="none" xmlns="http://www.w3.org/2000/svg">
<g filter="url(#filter0_i_293_961)">
<path d="M26.7876 25.2806V14.7133C26.7876 14.3914 26.5235 14.1272 26.2016 14.1272H15.6361C15.3142 14.1272 15.05 14.3914 15.05 14.7133V25.2806C15.05 25.6026 15.3142 25.8668 15.6361 25.8668H26.2016C26.5235 25.8668 26.7876 25.6026 26.7876 25.2806ZM20.9188 23.1259C19.1937 23.1259 17.7905 21.7224 17.7905 19.997C17.7905 18.2716 19.1937 16.8681 20.9188 16.8681C22.644 16.8681 24.0472 18.2716 24.0472 19.997C24.0472 21.7224 22.644 23.1259 20.9188 23.1259Z" fill="#CCF0EE"/>
<path d="M16.2062 32.9159C16.2062 33.5761 16.7427 34.1044 17.3948 34.1044C17.4113 34.1044 17.4196 34.1044 17.4361 34.1044C17.4691 34.0961 17.5104 34.0961 17.5434 34.0961H17.5516C18.1377 34.0218 18.5834 33.5184 18.5834 32.9159C18.5834 32.3134 18.1294 31.8099 17.5516 31.7356H17.5434C17.5104 31.7356 17.4691 31.7356 17.4361 31.7274C17.4196 31.7274 17.4113 31.7274 17.3948 31.7274C16.7427 31.7191 16.2062 32.2556 16.2062 32.9159Z" fill="#CCF0EE"/>
<path d="M5.65713 21.7793C6.31748 21.7793 6.84576 21.2508 6.84576 20.5902C6.84576 20.5902 6.84576 20.5902 6.84576 20.582C6.84576 20.582 6.84576 20.582 6.84576 20.5737C6.84576 19.9214 6.30923 19.3846 5.65713 19.3846C4.99678 19.3846 4.4685 19.9131 4.4685 20.5737C4.4685 20.5737 4.4685 20.5737 4.4685 20.582C4.4685 20.582 4.4685 20.582 4.4685 20.5902C4.4685 21.2426 4.99678 21.7793 5.65713 21.7793Z" fill="#CCF0EE"/>
<path d="M13.8782 15.6963H0.960263C0.952009 15.6963 0.943755 15.6963 0.927246 15.6963V19.9989C0.9355 19.9989 0.943755 19.9989 0.960263 19.9989H3.36226C3.6264 18.9748 4.55088 18.2151 5.65696 18.2151C6.76303 18.2151 7.68751 18.9748 7.95165 19.9989H13.8782V15.6963Z" fill="#CCF0EE"/>
<path d="M20.9195 18.0386C19.8382 18.0386 18.9633 18.9137 18.9633 19.9952C18.9633 21.0767 19.8382 21.9518 20.9195 21.9518C22.0009 21.9518 22.8758 21.0767 22.8758 19.9952C22.8758 18.9137 22.0009 18.0386 20.9195 18.0386Z" fill="#CCF0EE"/>
<path d="M18.1296 30.6624C19.0789 30.9679 19.764 31.8595 19.764 32.9163C19.764 33.9648 19.0789 34.8565 18.1296 35.1619V39.9587C18.1296 39.967 18.1296 39.9752 18.1296 39.9918H23.7095C23.7095 39.9835 23.7095 39.9752 23.7095 39.9587V35.2032C22.686 34.939 21.9266 34.0144 21.9266 32.908C21.9266 31.8017 22.686 30.877 23.7095 30.6128V27.038H18.1296V30.6624Z" fill="#CCF0EE"/>
<path d="M36.4786 0.033025V7.66181C36.4786 7.81868 36.4209 7.96729 36.3053 8.07462L34.5389 9.84972C34.7287 10.1882 34.8443 10.5845 34.8443 11.0056C34.8443 12.3101 33.7877 13.3669 32.4753 13.3751C31.1711 13.3751 30.1063 12.3183 30.1063 11.0056C30.1063 9.69285 31.1629 8.63605 32.4753 8.63605C32.9375 8.63605 33.3668 8.76815 33.7299 8.99107L35.3065 7.41412V0.033025C35.3065 0.0247687 35.3065 0.0165125 35.3065 0H27.4814C27.4814 0.00825626 27.4814 0.0165125 27.4814 0.033025V5.85369C27.4814 6.02707 27.3989 6.19219 27.2668 6.30778L24.1962 8.82594V12.9541H26.202C27.176 12.9541 27.9602 13.7467 27.9602 14.7127V15.6951H33.8868C34.1509 14.6714 35.0754 13.9118 36.1815 13.9118C37.2876 13.9118 38.212 14.6714 38.4762 15.6951H40.8782C40.8864 15.6951 40.9029 15.6951 40.9112 15.6951V1.65125L40.9029 1.643C40.8617 0.726551 40.1188 0 39.1943 0H36.4704C36.4704 0.0165125 36.4786 0.0247687 36.4786 0.033025Z" fill="#CCF0EE"/>
<path d="M36.1811 17.4693C36.8415 17.4693 37.3697 16.9409 37.378 16.2804C37.378 16.2804 37.378 16.2804 37.378 16.2721C37.378 16.2721 37.378 16.2721 37.378 16.2638C37.378 15.6033 36.8415 15.0749 36.1894 15.0749C35.5373 15.0749 35.009 15.6033 35.0008 16.2473C35.0008 16.2556 35.0008 16.2556 35.0008 16.2638C35.0008 16.2721 35.0008 16.2721 35.0008 16.2804C35.0008 16.9491 35.529 17.4693 36.1811 17.4693Z" fill="#CCF0EE"/>
<path d="M25.4842 32.9158C25.4842 32.2638 24.956 31.7273 24.2956 31.7273C24.2956 31.7273 24.2956 31.7273 24.2874 31.7273C24.2874 31.7273 24.2874 31.7273 24.2791 31.7273C23.627 31.7273 23.0905 32.2638 23.0905 32.9158C23.0905 33.5679 23.6188 34.1044 24.2791 34.1044C24.2791 34.1044 24.2791 34.1044 24.2874 34.1044C24.2956 34.1044 24.2874 34.1044 24.2956 34.1044C24.956 34.1044 25.4842 33.5679 25.4842 32.9158Z" fill="#CCF0EE"/>
<path d="M40.8777 16.8663H38.4757C38.2116 17.8901 37.2871 18.6414 36.181 18.6414C35.0749 18.6414 34.1505 17.8818 33.8863 16.8663H27.9597V25.2793C27.9597 26.2535 27.1673 27.0379 26.2016 27.0379H24.8809V30.6128C25.9044 30.877 26.6638 31.8017 26.6638 32.908C26.6638 34.0143 25.9044 34.939 24.8809 35.2032V39.9587C24.8809 39.967 24.8809 39.9752 24.8809 39.9917H30.9395C30.9313 39.9587 30.9313 39.9174 30.9313 39.8762V32.2475C30.9313 32.0906 30.9891 31.942 31.1046 31.8347L32.871 30.0679C32.6812 29.7211 32.5656 29.3331 32.5656 28.9038C32.5656 27.5993 33.6222 26.5343 34.9346 26.5343C36.2388 26.5343 37.3036 27.591 37.3036 28.9038C37.3036 30.2082 36.2471 31.2733 34.9346 31.2733C34.4724 31.2733 34.0514 31.1412 33.6882 30.9183L32.1117 32.4952V39.8844C32.1117 39.9257 32.1117 39.9587 32.1034 40H39.2104C40.1596 40 40.9272 39.2322 40.9272 38.2827V16.8746C40.9025 16.8663 40.886 16.8663 40.8777 16.8663Z" fill="#CCF0EE"/>
<path d="M9.34661 39.6863V33.4695L7.77005 31.8925C7.40686 32.1155 6.97763 32.2475 6.52365 32.2475C5.21947 32.2475 4.15467 31.1908 4.15467 29.878C4.15467 28.5736 5.21122 27.5085 6.52365 27.5085C7.82783 27.5085 8.89263 28.5653 8.89263 29.878C8.89263 30.2991 8.78532 30.6954 8.58722 31.0339L10.3536 32.8007C10.4609 32.908 10.527 33.0566 10.527 33.2135V39.6698C10.527 39.7854 10.494 39.8845 10.4444 39.9753H16.9571C16.9571 39.967 16.9571 39.9588 16.9571 39.9423V35.2198C15.8592 35.0134 15.0338 34.0474 15.0338 32.8915C15.0338 31.7357 15.8675 30.7697 16.9571 30.5633V27.0132H15.6364C14.6624 27.0132 13.8782 26.2206 13.8782 25.2546V21.1431H7.95164C7.6875 22.1668 6.76302 22.9181 5.65695 22.9264C4.55088 22.9264 3.6264 22.1668 3.36226 21.1431H0.960263C0.952009 21.1431 0.943755 21.1431 0.927246 21.1431V38.2498C0.927246 39.1992 1.69489 39.967 2.64414 39.967H9.42916C9.37963 39.901 9.34661 39.7937 9.34661 39.6863Z" fill="#CCF0EE"/>
<path d="M19.3016 12.9534V0.0330234C19.3016 0.0247675 19.3016 0.0165117 19.3016 0H15.5294C15.5294 0.00825585 15.5294 0.0165117 15.5294 0.0330234V5.99375L17.0069 7.47155C17.1142 7.57887 17.1802 7.72748 17.1802 7.88434V12.9452H19.3016V12.9534Z" fill="#CCF0EE"/>
<path d="M33.7301 28.904C33.7301 29.5649 34.2667 30.0937 34.927 30.0937C35.5874 30.0937 36.1157 29.5567 36.1157 28.904C36.1157 28.2432 35.5791 27.7144 34.9188 27.7144C34.2667 27.7062 33.7301 28.2432 33.7301 28.904Z" fill="#CCF0EE"/>
<path d="M10.758 9.67659C11.4184 9.67659 11.9549 9.14001 11.9549 8.48787C11.9549 7.82747 11.4184 7.29915 10.7663 7.29089C10.4691 7.29089 10.1885 7.40646 9.98212 7.58807C9.97387 7.59632 9.96561 7.60458 9.96561 7.61284C9.94911 7.62935 9.9326 7.64586 9.91609 7.65411C9.70973 7.86874 9.57766 8.15767 9.57766 8.47961C9.56116 9.14001 10.0977 9.67659 10.758 9.67659Z" fill="#CCF0EE"/>
<path d="M6.51542 28.6974C5.85509 28.6974 5.32682 29.234 5.32682 29.8863C5.32682 30.5468 5.86334 31.0752 6.51542 31.0752C6.82908 31.0752 7.10973 30.9596 7.31608 30.7615C7.33259 30.7367 7.35736 30.7119 7.37386 30.6872C7.39037 30.6624 7.41513 30.6459 7.4399 30.6294C7.60498 30.4229 7.70403 30.167 7.70403 29.878C7.71229 29.2258 7.17576 28.6974 6.51542 28.6974Z" fill="#CCF0EE"/>
<path d="M0.960263 4.48308H7.41512C7.57195 4.48308 7.72053 4.54087 7.82783 4.65646L9.58599 6.41501C9.93268 6.22512 10.3289 6.10954 10.7499 6.10954C12.054 6.10954 13.1188 7.16632 13.1188 8.47905C13.1188 9.78352 12.0623 10.8403 10.7499 10.8486C9.44567 10.8486 8.38087 9.79177 8.38087 8.47905C8.38087 8.01671 8.51294 7.59564 8.7358 7.23237L7.17574 5.66371H0.960263C0.952009 5.66371 0.943755 5.66371 0.927246 5.66371V14.5225C0.9355 14.5225 0.943755 14.5225 0.960263 14.5225H13.8865C13.9855 13.6391 14.7284 12.9539 15.6364 12.9539H16.0161V8.13229L14.5386 6.65444C14.4313 6.54711 14.3652 6.3985 14.3652 6.24164V0.0330245C14.3652 0.0247684 14.3652 0.0165123 14.3652 0H2.64414C1.69489 0 0.927246 0.76782 0.927246 1.71728V4.49134C0.943755 4.48308 0.952009 4.48308 0.960263 4.48308Z" fill="#CCF0EE"/>
<path d="M26.301 0.0330234C26.301 0.0247675 26.301 0.0165117 26.301 0H20.4734C20.4734 0.00825585 20.4734 0.0165117 20.4734 0.0330234V12.9534H23.0158V8.55306C23.0158 8.37969 23.0983 8.21457 23.2304 8.09899L26.301 5.58096V0.0330234Z" fill="#CCF0EE"/>
<path d="M31.2869 11.0055C31.2869 11.6659 31.8234 12.2025 32.4755 12.2025C33.1358 12.2025 33.6723 11.6659 33.6723 11.0137C33.6723 10.3533 33.1358 9.82502 32.4837 9.81677C31.8151 9.81677 31.2869 10.3451 31.2869 11.0055Z" fill="#CCF0EE"/>
</g>
<defs>
<filter id="filter0_i_293_961" x="0.927246" y="0" width="45" height="45" filterUnits="userSpaceOnUse" color-interpolation-filters="sRGB">
<feFlood flood-opacity="0" result="BackgroundImageFix"/>
<feBlend mode="normal" in="SourceGraphic" in2="BackgroundImageFix" result="shape"/>
<feColorMatrix in="SourceAlpha" type="matrix" values="0 0 0 0 0 0 0 0 0 0 0 0 0 0 0 0 0 0 127 0" result="hardAlpha"/>
<feOffset dx="5" dy="5"/>
<feGaussianBlur stdDeviation="5"/>
<feComposite in2="hardAlpha" operator="arithmetic" k2="-1" k3="1"/>
<feColorMatrix type="matrix" values="0 0 0 0 0.8 0 0 0 0 0.941176 0 0 0 0 0.933333 0 0 0 1 0"/>
<feBlend mode="multiply" in2="shape" result="effect1_innerShadow_293_961"/>
</filter>
</defs>
</svg>
