<svg width="47" height="48" viewBox="0 0 47 48" fill="none" xmlns="http://www.w3.org/2000/svg">
<g filter="url(#filter0_i_281_1054)">
<path d="M19.3711 34.0809L22.1397 31.052C23.7819 31.5727 25.5308 31.6616 27.2174 31.3101L27.901 33.1114C27.9577 33.2606 28.0583 33.3892 28.1895 33.4803C28.3207 33.5714 28.4764 33.6208 28.6362 33.622H32.4273C32.5865 33.6212 32.7417 33.5719 32.872 33.4807C33.0024 33.3895 33.1018 33.2606 33.1568 33.1114L34.5009 29.5949L36.5917 28.7L39.9807 30.2202C40.1246 30.2864 40.2856 30.306 40.4412 30.2761C40.5967 30.2463 40.739 30.1686 40.8481 30.0538L43.5191 27.3232C43.6324 27.2084 43.7088 27.0625 43.7384 26.9041C43.7681 26.7456 43.7497 26.582 43.6856 26.4341L42.1807 22.9921L43.0538 20.8524L46.5002 19.4814C46.6488 19.4215 46.776 19.3183 46.8651 19.1853C46.9542 19.0523 47.0012 18.8956 47 18.7356V14.8634C47.0016 14.7026 46.9548 14.545 46.8657 14.411C46.7766 14.277 46.6493 14.1728 46.5002 14.1119L43.0538 12.7638L42.1807 10.6241L43.6684 7.18218C43.7325 7.03426 43.7509 6.87059 43.7212 6.71216C43.6915 6.55374 43.6151 6.40777 43.5018 6.293L40.8308 3.56242C40.7206 3.44768 40.5777 3.36961 40.4215 3.33882C40.2653 3.30803 40.1034 3.32601 39.9577 3.39031L36.586 4.91049L34.4894 4.02133L33.151 0.510565C33.0943 0.361365 32.9937 0.232777 32.8625 0.141666C32.7313 0.0505558 32.5756 0.00117012 32.4158 3.0346e-06H28.6132C28.4531 -0.000443093 28.2966 0.0483109 28.1651 0.139635C28.0336 0.23096 27.9334 0.360449 27.878 0.510565L26.5339 4.0328L24.4603 4.91049L21.0771 3.39031C20.9316 3.32517 20.7695 3.30673 20.6131 3.33756C20.4567 3.36839 20.3137 3.44697 20.204 3.56242L17.533 6.293C17.4223 6.40936 17.3476 6.55523 17.3181 6.713C17.2885 6.87078 17.3053 7.03372 17.3664 7.18218L18.8541 10.6241L17.981 12.7638L14.5346 14.1349C14.386 14.1947 14.2588 14.2979 14.1697 14.4309C14.0806 14.5639 14.0336 14.7206 14.0348 14.8806V18.7528C14.0332 18.9136 14.08 19.0713 14.1691 19.2052C14.2582 19.3392 14.3855 19.4434 14.5346 19.5043L15.0803 19.7223C15.0803 19.751 15.0803 19.7854 15.0803 19.8026C14.8275 21.8719 15.187 23.9698 16.1142 25.8374L1.08201 40.1788C0.422691 40.8121 0.0355527 41.6765 0.00232908 42.5895C-0.0308945 43.5025 0.292389 44.3927 0.903939 45.0721L0.990105 45.1582L2.77076 46.9824C3.08152 47.3042 3.45405 47.5602 3.86608 47.7351C4.27812 47.9099 4.72121 48 5.1689 48C5.61659 48 6.05968 47.9099 6.47171 47.7351C6.88375 47.5602 7.25628 47.3042 7.56704 46.9824C7.59665 46.9471 7.62932 46.9144 7.66469 46.8849L17.8431 35.7445L19.3711 34.0809ZM16.7001 34.6545L6.52162 45.8007C6.35273 45.9849 6.14663 46.1313 5.91692 46.2302C5.68721 46.3291 5.43911 46.3782 5.18901 46.3743C4.94497 46.3717 4.70401 46.3195 4.48083 46.2209C4.25765 46.1222 4.05692 45.9793 3.89085 45.8007L2.11019 43.9764C1.93479 43.7988 1.79664 43.5879 1.70383 43.3563C1.61103 43.1246 1.56543 42.8768 1.56971 42.6273C1.57399 42.3778 1.62805 42.1317 1.72875 41.9034C1.82945 41.675 1.97475 41.469 2.15615 41.2975L17.6306 26.5488C17.7601 26.4216 17.8434 26.255 17.8674 26.0752C17.8913 25.8955 17.8545 25.7129 17.7627 25.5564C16.7728 23.846 16.379 21.8559 16.643 19.8981C16.9071 17.9402 17.814 16.1251 19.2217 14.7372C20.2274 13.755 21.4603 13.0359 22.811 12.6436C24.1617 12.2513 25.5884 12.1981 26.9647 12.4885L21.864 17.6973C21.761 17.8041 21.6894 17.937 21.657 18.0817C21.6246 18.2264 21.6326 18.3772 21.6802 18.5176L23.346 23.6059C23.3832 23.7233 23.4472 23.8306 23.5329 23.9191C23.6186 24.0077 23.7237 24.0753 23.8399 24.1165L28.8258 25.8374C28.9637 25.8836 29.1119 25.8898 29.2532 25.8553C29.3946 25.8207 29.5232 25.7469 29.6242 25.6424L33.8059 21.3744C33.7864 22.5163 33.5418 23.6431 33.0861 24.6905C32.6303 25.7379 31.9724 26.6853 31.1498 27.4785C30.3272 28.2718 29.3561 28.8954 28.2921 29.3137C27.228 29.7319 26.0919 29.9366 24.9485 29.9161C24.0056 29.881 23.0754 29.687 22.1971 29.3425C22.0532 29.2893 21.8966 29.28 21.7473 29.3157C21.598 29.3514 21.4627 29.4306 21.3585 29.5433L18.228 32.945L16.7001 34.6545ZM29.6357 12.0697L33.7829 13.4809L35.1672 17.7202L31.4163 21.5522L27.2691 20.1009L25.8848 15.8616L29.6357 12.0697ZM30.503 19.4814C31.1192 19.479 31.7154 19.2635 32.1904 18.8715C32.6654 18.4795 32.9897 17.9353 33.1082 17.3315C33.2267 16.7276 33.132 16.1014 32.8403 15.5594C32.5486 15.0174 32.0779 14.5931 31.5082 14.3587C30.9386 14.1242 30.3052 14.0941 29.7158 14.2734C29.1264 14.4528 28.6175 14.8306 28.2755 15.3425C27.9336 15.8543 27.7798 16.4687 27.8403 17.0811C27.9009 17.6934 28.172 18.2659 28.6075 18.7012C29.1131 19.1964 29.7949 19.4708 30.503 19.4641V19.4814ZM29.8654 16.1771C30.0323 16.0097 30.2588 15.9154 30.4953 15.9149C30.7317 15.9143 30.9587 16.0076 31.1263 16.1742C31.2938 16.3408 31.3883 16.5671 31.3888 16.8032C31.3894 17.0394 31.296 17.266 31.1291 17.4334C31.0465 17.5163 30.9484 17.5821 30.8403 17.6271C30.7323 17.672 30.6164 17.6953 30.4993 17.6956C30.3822 17.6959 30.2663 17.6731 30.158 17.6286C30.0497 17.5841 29.9513 17.5188 29.8683 17.4363C29.7853 17.3538 29.7195 17.2558 29.6744 17.1479C29.6294 17.0399 29.606 16.9242 29.6058 16.8073C29.6055 16.6904 29.6283 16.5745 29.6728 16.4664C29.7174 16.3583 29.7828 16.26 29.8654 16.1771Z" fill="#CCF0EE"/>
</g>
<defs>
<filter id="filter0_i_281_1054" x="0" y="0" width="52" height="53" filterUnits="userSpaceOnUse" color-interpolation-filters="sRGB">
<feFlood flood-opacity="0" result="BackgroundImageFix"/>
<feBlend mode="normal" in="SourceGraphic" in2="BackgroundImageFix" result="shape"/>
<feColorMatrix in="SourceAlpha" type="matrix" values="0 0 0 0 0 0 0 0 0 0 0 0 0 0 0 0 0 0 127 0" result="hardAlpha"/>
<feOffset dx="5" dy="5"/>
<feGaussianBlur stdDeviation="5"/>
<feComposite in2="hardAlpha" operator="arithmetic" k2="-1" k3="1"/>
<feColorMatrix type="matrix" values="0 0 0 0 0.8 0 0 0 0 0.941176 0 0 0 0 0.933333 0 0 0 1 0"/>
<feBlend mode="multiply" in2="shape" result="effect1_innerShadow_281_1054"/>
</filter>
</defs>
</svg>
