<svg width="41" height="42" viewBox="0 0 41 42" fill="none" xmlns="http://www.w3.org/2000/svg">
<g filter="url(#filter0_i_293_958)">
<path d="M40.9272 21.001C40.9272 20.6975 40.7631 20.4186 40.5052 20.271L32.971 16.1614L40.5052 12.0436C40.7631 11.9042 40.9272 11.6253 40.9272 11.3136C40.9272 11.0019 40.7631 10.7312 40.5052 10.5836L34.0183 7.03999C33.6353 6.83492 33.1664 6.99077 32.9632 7.3927C32.7678 7.79464 32.9163 8.2868 33.2993 8.50007L38.4575 11.3136L20.9272 20.8862L3.40478 11.3136L20.9272 1.74923L27.0546 5.09594C27.4376 5.30101 27.9065 5.14516 28.1097 4.74323C28.3051 4.34129 28.1566 3.84913 27.7737 3.63586L21.2868 0.0922806C21.0601 -0.0307602 20.7944 -0.0307602 20.5677 0.0922806L1.34929 10.5918C1.09137 10.7312 0.927246 11.0101 0.927246 11.3218C0.927246 11.6335 1.09137 11.9042 1.34929 12.0519L8.88348 16.1696L1.34929 20.271C1.09137 20.4104 0.927246 20.6893 0.927246 21.001C0.927246 21.3045 1.09137 21.5834 1.34929 21.7311L8.88348 25.8488L1.34929 29.9584C1.09137 30.0978 0.927246 30.3767 0.927246 30.6884C0.927246 30.9919 1.09137 31.2708 1.34929 31.4185L20.5677 41.9098C20.6771 41.9754 20.8022 42 20.9272 42C21.0523 42 21.1773 41.9672 21.2868 41.9098L40.5052 31.4185C40.7631 31.279 40.9272 31.0001 40.9272 30.6884C40.9272 30.3849 40.7631 30.106 40.5052 29.9584L32.971 25.8406L40.5052 21.7229C40.7631 21.5834 40.9272 21.3045 40.9272 21.001ZM21.2868 22.5349L31.275 17.0801L33.6041 18.3515L16.1129 27.9405L12.9945 26.2344L20.1691 22.3135L20.5677 22.5349C20.6771 22.6006 20.8022 22.6252 20.9272 22.6252C21.0523 22.6334 21.1773 22.6006 21.2868 22.5349ZM18.4732 21.3948L11.2985 25.3157L8.19571 23.6177L15.3704 19.6968L18.4732 21.3948ZM10.5795 17.0801L13.6822 18.7781L6.50755 22.699L3.40478 21.001L10.5795 17.0801ZM20.9272 30.5736L17.801 28.8674L35.3 19.2785L38.4575 21.001L20.9272 30.5736Z" fill="#CCF0EE"/>
</g>
<defs>
<filter id="filter0_i_293_958" x="0.927246" y="0" width="45" height="47" filterUnits="userSpaceOnUse" color-interpolation-filters="sRGB">
<feFlood flood-opacity="0" result="BackgroundImageFix"/>
<feBlend mode="normal" in="SourceGraphic" in2="BackgroundImageFix" result="shape"/>
<feColorMatrix in="SourceAlpha" type="matrix" values="0 0 0 0 0 0 0 0 0 0 0 0 0 0 0 0 0 0 127 0" result="hardAlpha"/>
<feOffset dx="5" dy="5"/>
<feGaussianBlur stdDeviation="5"/>
<feComposite in2="hardAlpha" operator="arithmetic" k2="-1" k3="1"/>
<feColorMatrix type="matrix" values="0 0 0 0 0.8 0 0 0 0 0.941176 0 0 0 0 0.933333 0 0 0 1 0"/>
<feBlend mode="multiply" in2="shape" result="effect1_innerShadow_293_958"/>
</filter>
</defs>
</svg>
