<svg width="120" height="632" viewBox="0 0 120 632" fill="none" xmlns="http://www.w3.org/2000/svg">
<g filter="url(#filter0_i_293_903)">
<path d="M120 89.9694C119.606 66.8831 118.972 38.8325 118.972 38.8325C118.972 38.8325 119.452 8.75501 91.2932 1.47182C88.1397 0.703338 84.9118 0.282867 81.6672 0.217882C71.7842 -0.0397778 63.0317 -0.00542786 60 0.0117495C56.9683 0.0289268 48.2158 0.0117542 38.3329 0.217882C35.0881 0.281767 31.8602 0.702254 28.7068 1.47182C0.548091 8.75501 1.01056 38.8325 1.01056 38.8325C1.01056 38.8325 0.393948 66.8831 0 89.9694V93.0442C0.393948 140.179 1.01056 593.196 1.01056 593.196C1.01056 593.196 0.530963 623.274 28.7068 630.557C31.8602 631.327 35.0881 631.747 38.3329 631.811C42.5978 631.914 46.64 631.983 50.117 632C53.0554 630.462 56.3092 629.627 59.6232 629.561C63.28 629.45 66.9031 630.29 70.1399 632C73.5655 632 77.4708 631.914 81.5986 631.811C84.8434 631.747 88.0713 631.327 91.2247 630.557C119.383 623.274 118.904 593.196 118.904 593.196C118.904 593.196 119.538 140.179 119.932 93.0442L120 89.9694Z" fill="#CCF0EE"/>
</g>
<path d="M61.8512 298.743C61.8683 298.908 61.8683 299.075 61.8512 299.241C61.8155 299.406 61.7638 299.567 61.6971 299.722C61.6401 299.873 61.5653 300.018 61.4744 300.151C61.3811 300.285 61.278 300.411 61.1661 300.529C61.0468 300.647 60.9146 300.751 60.7722 300.838C60.6373 300.942 60.487 301.023 60.3268 301.079C60.1732 301.148 60.0124 301.2 59.8472 301.234C59.6821 301.251 59.5157 301.251 59.3505 301.234C59.1854 301.251 59.0189 301.251 58.8538 301.234L58.3742 301.096L57.9289 300.856C57.6572 300.675 57.4243 300.441 57.2438 300.169C57.1418 300.03 57.0557 299.88 56.9868 299.722C56.9333 299.57 56.8876 299.415 56.8498 299.258C56.8326 299.087 56.8326 298.914 56.8498 298.743C56.8326 298.577 56.8326 298.41 56.8498 298.245C56.8498 298.09 56.8498 297.918 56.9868 297.764L57.2266 297.334C57.3214 297.197 57.4305 297.07 57.5521 296.956C57.6654 296.839 57.7919 296.735 57.9289 296.647C58.0677 296.55 58.2171 296.47 58.3742 296.407C58.5265 296.338 58.6881 296.291 58.8538 296.269H59.3505C59.5156 296.251 59.6821 296.251 59.8472 296.269C60.0135 296.289 60.1755 296.335 60.3268 296.407L60.755 296.63C61.039 296.815 61.2836 297.054 61.4744 297.334C61.5601 297.472 61.6286 297.626 61.6971 297.764C61.7638 297.919 61.8155 298.08 61.8512 298.245C61.8684 298.41 61.8684 298.577 61.8512 298.743Z" fill="white"/>
<path d="M112.738 40.0179C112.738 40.0179 113.217 9.47665 82.6436 5.66328C72.5551 5.31973 63.1346 5.35409 60.103 5.37127C57.0713 5.38845 47.6336 5.37127 37.5451 5.66328C6.97136 9.47665 7.45093 40.0179 7.45093 40.0179C7.45093 40.0179 6.8686 66.5569 6.50891 87.4617C6.49588 88.6327 6.69314 89.7964 7.09126 90.8972C15.9465 114.482 36.997 114.224 36.997 114.224H83.2431C83.2431 114.224 104.294 114.482 113.149 90.8972C113.555 89.7985 113.752 88.6333 113.731 87.4617C113.337 66.5226 112.738 40.0179 112.738 40.0179Z" fill="#F9F9F9"/>
<path d="M59.2508 338.303L66.7538 338.303C67.3866 338.294 67.8057 338.747 67.8057 339.417C67.8057 340.087 67.3866 340.531 66.7538 340.531L59.522 340.522C55.939 340.522 54.4269 342.106 54.4269 345.953L54.4352 348.756C54.4269 349.426 54.0161 349.87 53.3833 349.87C52.7505 349.87 52.3232 349.426 52.3314 348.756L52.3314 345.631C52.3232 340.94 54.8214 338.294 59.2508 338.303ZM67.6824 376.04L67.6824 377.659C67.6824 382.35 65.2006 384.97 60.7629 384.978L53.2436 384.978C52.6108 384.97 52.1999 384.535 52.1999 383.864C52.1999 383.194 52.6108 382.742 53.2436 382.75L60.4835 382.733C64.0747 382.742 65.5622 381.166 65.5622 377.328L65.5622 376.371C65.5622 372.533 64.083 370.94 60.4835 370.94L53.2518 370.949C52.6108 370.94 52.1999 370.505 52.1999 369.835C52.1999 369.165 52.6108 368.712 53.2518 368.721L60.7629 368.721C65.2006 368.712 67.6824 371.349 67.6824 376.04ZM67.6824 327.32L67.6824 328.938C67.6824 333.394 65.4389 336.249 61.2149 336.249C57.0238 336.249 54.7392 333.394 54.7474 328.938L54.7474 325.736C54.7392 325.057 55.1666 324.622 55.7993 324.622C56.4321 324.622 56.843 325.057 56.8512 325.736L56.843 328.608C56.843 332.211 58.1332 334.012 61.2149 334.012C64.2966 334.012 65.5622 332.211 65.5622 328.608L65.5622 327.65C65.5622 323.812 64.083 322.219 60.4835 322.219L53.2518 322.228C52.6108 322.219 52.1999 321.784 52.1999 321.114C52.1999 320.444 52.6108 319.991 53.2518 320L60.7629 320C65.2006 319.991 67.6824 322.628 67.6824 327.32ZM67.6824 394.526L67.6824 396.145C67.6824 400.836 65.2006 403.464 60.7629 403.464L57.1635 403.464C56.5225 403.455 56.0952 403.02 56.0952 402.35C56.0952 401.68 56.5225 401.227 57.1635 401.236L60.4917 401.219C64.083 401.227 65.5704 399.652 65.5704 395.814L65.5704 394.857C65.5704 391.018 64.0994 389.426 60.4917 389.426L59.5303 389.426C55.9308 389.426 54.4352 391.01 54.4352 394.857L54.4352 401.027C54.4352 402.62 54.0654 403.177 53.26 404.03L52.7751 404.543C52.2492 405.1 51.6082 405.152 51.1644 404.674C50.7125 404.195 50.7371 403.542 51.3535 402.898L51.8876 402.333C52.1424 402.054 52.3396 401.802 52.3478 401.105L52.3478 394.517C52.3396 389.835 54.8296 387.198 59.2673 387.198L60.7712 387.198C65.2006 387.206 67.6824 389.835 67.6824 394.526ZM60.4835 352.454L59.522 352.454C55.9226 352.454 54.4269 354.038 54.4269 357.885L54.4269 358.843C54.4269 362.681 55.9226 364.247 59.522 364.247L60.4835 364.247C64.083 364.247 65.5622 362.681 65.5622 358.843L65.5622 357.885C65.5622 354.047 64.0912 352.454 60.4835 352.454ZM67.6824 357.555L67.6824 359.173C67.6824 363.864 65.2006 366.493 60.7629 366.493L59.2591 366.493C54.8214 366.493 52.3396 363.864 52.3396 359.173L52.3396 357.555C52.3396 352.863 54.8214 350.235 59.2591 350.235L60.7629 350.235C65.2006 350.235 67.6824 352.872 67.6824 357.555Z" fill="white"/>
<defs>
<filter id="filter0_i_293_903" x="0" y="0" width="125" height="637" filterUnits="userSpaceOnUse" color-interpolation-filters="sRGB">
<feFlood flood-opacity="0" result="BackgroundImageFix"/>
<feBlend mode="normal" in="SourceGraphic" in2="BackgroundImageFix" result="shape"/>
<feColorMatrix in="SourceAlpha" type="matrix" values="0 0 0 0 0 0 0 0 0 0 0 0 0 0 0 0 0 0 127 0" result="hardAlpha"/>
<feOffset dx="5" dy="5"/>
<feGaussianBlur stdDeviation="5"/>
<feComposite in2="hardAlpha" operator="arithmetic" k2="-1" k3="1"/>
<feColorMatrix type="matrix" values="0 0 0 0 0.8 0 0 0 0 0.941176 0 0 0 0 0.933333 0 0 0 1 0"/>
<feBlend mode="multiply" in2="shape" result="effect1_innerShadow_293_903"/>
</filter>
</defs>
</svg>
