<svg width="749" height="487" viewBox="0 0 749 487" fill="none" xmlns="http://www.w3.org/2000/svg">
<g filter="url(#filter0_i_448_3104)">
<path d="M657.691 297.636C669.885 266.114 672.268 231.685 664.596 198.85C663.968 196.161 661.222 194.572 658.553 195.28L629.075 203.098C626.41 203.804 624.83 206.533 625.426 209.225C630.829 233.644 628.916 259.157 619.866 282.555C610.178 307.6 592.81 328.935 570.249 343.502C547.689 358.07 521.096 365.123 494.28 363.65C469.15 362.27 445.034 353.468 424.959 338.416C422.751 336.76 419.609 337.075 417.867 339.216L398.157 363.426C396.414 365.568 396.733 368.724 398.925 370.403C425.703 390.902 458.069 402.891 491.82 404.745C527.238 406.691 562.362 397.375 592.159 378.134C621.956 358.893 644.896 330.714 657.691 297.636Z" fill="#DED2B2"/>
</g>
<g filter="url(#filter1_i_448_3104)">
<path d="M443.747 305.469C442.231 307.784 442.88 310.896 445.239 312.342C458.733 320.608 473.246 327.093 488.415 331.632C491.058 332.423 493.802 330.842 494.525 328.18L503.425 295.397C504.149 292.734 502.574 289.997 499.938 289.176C489.23 285.842 478.975 281.225 469.399 275.433C467.036 274.004 463.941 274.641 462.427 276.952L443.747 305.469Z" fill="#C8BB93"/>
<path d="M539.02 160.021L540.707 158.02C540.722 158.003 540.733 157.982 540.739 157.96C540.786 157.786 540.553 157.681 540.454 157.832L539.02 160.021Z" fill="#C8BB93"/>
</g>
<g filter="url(#filter2_i_448_3104)">
<path d="M508.879 1.0106C465.808 0.572045 423.428 11.6289 386.079 33.0023C383.685 34.3724 382.918 37.4441 384.334 39.8117L401.856 69.1182C403.274 71.4909 406.346 72.2562 408.752 70.8944C434.039 56.5791 462.267 47.9359 491.471 45.7273C530.619 42.7668 569.764 51.5012 603.956 70.826C638.148 90.1508 665.851 119.198 683.563 154.294C701.274 189.391 708.198 228.96 703.46 267.999C698.721 307.037 682.532 343.791 656.941 373.613C631.349 403.435 597.504 424.986 559.685 435.54C521.866 446.094 481.772 445.177 444.474 432.906C420.746 425.099 398.827 412.92 379.786 397.12C377.659 395.355 374.5 395.566 372.685 397.652L350.277 423.398C348.466 425.478 348.679 428.637 350.794 430.408C383.791 458.049 423.558 476.425 466.032 483.607C510.146 491.068 555.46 486.162 596.965 469.434C638.469 452.706 674.548 424.807 701.211 388.821C727.874 352.834 744.083 310.163 748.046 265.525C752.009 220.886 743.572 176.02 723.668 135.885C703.763 95.7498 673.167 61.9104 635.26 38.1077C597.354 14.3049 553.615 1.46611 508.879 1.0106Z" fill="#EDE7D7"/>
</g>
<g filter="url(#filter3_i_448_3104)">
<path d="M504.589 243.995L504.586 243.998M346 427.883C321.707 406.86 301.724 381.131 287.332 352.111C267.428 311.977 258.991 267.11 262.954 222.471C266.917 177.833 283.126 135.162 309.789 99.1756C329.095 73.1196 353.337 51.3031 381 34.8971M375.74 395.251C355.821 378.225 339.364 357.335 327.438 333.702C309.726 298.605 302.802 259.036 307.54 219.998C312.279 180.959 328.468 144.205 354.06 114.383C368.246 97.8508 384.97 83.8607 403.5 72.8768" stroke="#F9F9F9" stroke-dasharray="10 10"/>
</g>
<path d="M158.909 354.998V350.21H148.297L147.793 349.118L158.993 335.258H160.309V348.95H163.501V350.21H160.309V354.998H158.909ZM149.557 348.95H158.909V337.358L149.557 348.95ZM174.955 355.334C172.528 355.334 170.568 354.354 169.075 352.394C167.6 350.415 166.863 348.017 166.863 345.198C166.863 343.387 167.19 341.717 167.843 340.186C168.496 338.655 169.448 337.423 170.699 336.49C171.968 335.538 173.406 335.062 175.011 335.062C177.438 335.062 179.388 336.051 180.863 338.03C182.356 339.99 183.103 342.379 183.103 345.198C183.103 347.009 182.776 348.679 182.123 350.21C181.47 351.741 180.508 352.982 179.239 353.934C177.988 354.867 176.56 355.334 174.955 355.334ZM170.223 351.386C171.455 353.141 173.051 354.018 175.011 354.018C176.971 354.018 178.558 353.15 179.771 351.414C180.984 349.659 181.591 347.587 181.591 345.198C181.591 342.809 180.975 340.746 179.743 339.01C178.511 337.255 176.915 336.378 174.955 336.378C172.995 336.378 171.408 337.246 170.195 338.982C168.982 340.718 168.375 342.79 168.375 345.198C168.375 347.569 168.991 349.631 170.223 351.386ZM188.506 354.998L202.898 335.398H204.41L190.018 354.998H188.506ZM202.114 355.222C200.863 355.222 199.837 354.737 199.034 353.766C198.231 352.777 197.83 351.591 197.83 350.21C197.83 348.847 198.231 347.671 199.034 346.682C199.855 345.693 200.901 345.198 202.17 345.198C203.421 345.198 204.447 345.693 205.25 346.682C206.053 347.671 206.454 348.847 206.454 350.21C206.454 351.573 206.043 352.749 205.222 353.738C204.419 354.727 203.383 355.222 202.114 355.222ZM202.17 354.018C202.991 354.018 203.663 353.654 204.186 352.926C204.727 352.198 204.998 351.293 204.998 350.21C204.998 349.127 204.718 348.222 204.158 347.494C203.598 346.766 202.917 346.402 202.114 346.402C201.293 346.402 200.611 346.775 200.07 347.522C199.547 348.25 199.286 349.146 199.286 350.21C199.286 351.293 199.566 352.198 200.126 352.926C200.686 353.654 201.367 354.018 202.17 354.018ZM190.746 345.198C189.495 345.198 188.469 344.713 187.666 343.742C186.863 342.753 186.462 341.567 186.462 340.186C186.462 338.823 186.863 337.647 187.666 336.658C188.487 335.669 189.533 335.174 190.802 335.174C192.053 335.174 193.079 335.669 193.882 336.658C194.685 337.647 195.086 338.823 195.086 340.186C195.086 341.549 194.675 342.725 193.854 343.714C193.051 344.703 192.015 345.198 190.746 345.198ZM190.802 343.994C191.623 343.994 192.295 343.63 192.818 342.902C193.359 342.174 193.63 341.269 193.63 340.186C193.63 339.103 193.35 338.198 192.79 337.47C192.23 336.742 191.549 336.378 190.746 336.378C189.925 336.378 189.243 336.751 188.702 337.498C188.179 338.226 187.918 339.122 187.918 340.186C187.918 341.269 188.198 342.174 188.758 342.902C189.318 343.63 189.999 343.994 190.802 343.994Z" fill="black"/>
<path d="M67.5288 378.998V368.498H75.6588V378.998H74.8788V369.218H68.3088V378.998H67.5288ZM78.6138 378.998V371.348H79.3488V374.288H81.6287C82.4788 374.288 83.1788 374.478 83.7288 374.858C84.2788 375.228 84.5538 375.788 84.5538 376.538C84.5538 377.278 84.2988 377.873 83.7888 378.323C83.2788 378.773 82.6038 378.998 81.7638 378.998H78.6138ZM79.3488 378.338H81.6438C82.2938 378.338 82.8088 378.183 83.1888 377.873C83.5688 377.563 83.7588 377.128 83.7588 376.568C83.7588 376.058 83.5638 375.663 83.1738 375.383C82.7838 375.093 82.2538 374.948 81.5838 374.948H79.3488V378.338ZM86.0838 378.998V371.348H86.8188V378.998H86.0838ZM91.5347 378.998V372.008H88.6697V371.348H95.1347V372.008H92.2697V378.998H91.5347ZM99.3079 379.178C98.4679 379.178 97.7629 378.968 97.1929 378.548C96.6329 378.118 96.3529 377.518 96.3529 376.748C96.3529 375.968 96.6579 375.358 97.2679 374.918C97.8779 374.478 98.6879 374.258 99.6979 374.258C100.558 374.258 101.403 374.368 102.233 374.588V374.258C102.233 373.498 102.013 372.918 101.573 372.518C101.133 372.118 100.513 371.918 99.7129 371.918C98.9129 371.918 98.1129 372.123 97.3129 372.533L97.0429 371.888C97.9929 371.448 98.8979 371.228 99.7579 371.228C100.808 371.228 101.613 371.508 102.173 372.068C102.693 372.588 102.953 373.308 102.953 374.228V378.998H102.233V377.723C101.543 378.693 100.568 379.178 99.3079 379.178ZM99.3529 378.488C100.153 378.488 100.833 378.268 101.393 377.828C101.963 377.378 102.248 376.813 102.248 376.133V375.263C101.348 375.033 100.483 374.918 99.6529 374.918C98.8529 374.918 98.2329 375.083 97.7929 375.413C97.3629 375.733 97.1479 376.173 97.1479 376.733C97.1479 377.283 97.3479 377.713 97.7479 378.023C98.1479 378.333 98.6829 378.488 99.3529 378.488ZM111.911 379.178C110.851 379.178 109.986 378.828 109.316 378.128C108.656 377.428 108.291 376.548 108.221 375.488H106.331V378.998H105.596V371.348H106.331V374.813H108.221C108.301 373.783 108.676 372.918 109.346 372.218C110.026 371.518 110.891 371.168 111.941 371.168C113.041 371.168 113.931 371.558 114.611 372.338C115.291 373.108 115.631 374.053 115.631 375.173C115.631 376.283 115.286 377.228 114.596 378.008C113.916 378.788 113.021 379.178 111.911 379.178ZM111.941 378.488C112.821 378.488 113.521 378.173 114.041 377.543C114.571 376.913 114.836 376.123 114.836 375.173C114.836 374.233 114.566 373.448 114.026 372.818C113.486 372.178 112.781 371.858 111.911 371.858C111.031 371.858 110.326 372.173 109.796 372.803C109.276 373.433 109.016 374.223 109.016 375.173C109.016 376.113 109.286 376.903 109.826 377.543C110.366 378.173 111.071 378.488 111.941 378.488ZM119.821 378.998V372.008H116.956V371.348H123.421V372.008H120.556V378.998H119.821ZM128.644 379.178C127.544 379.178 126.619 378.788 125.869 378.008C125.119 377.228 124.744 376.283 124.744 375.173C124.744 374.073 125.119 373.133 125.869 372.353C126.629 371.563 127.554 371.168 128.644 371.168C129.834 371.168 130.849 371.643 131.689 372.593L131.179 373.118C130.359 372.278 129.509 371.858 128.629 371.858C127.779 371.858 127.049 372.183 126.439 372.833C125.839 373.483 125.539 374.263 125.539 375.173C125.539 376.093 125.844 376.878 126.454 377.528C127.064 378.168 127.809 378.488 128.689 378.488C129.599 378.488 130.444 378.053 131.224 377.183L131.764 377.663C130.874 378.673 129.834 379.178 128.644 379.178ZM133.223 378.998L135.638 375.953C134.998 375.833 134.468 375.568 134.048 375.158C133.638 374.748 133.433 374.238 133.433 373.628C133.433 372.948 133.683 372.398 134.183 371.978C134.683 371.558 135.368 371.348 136.238 371.348H139.658V378.998H138.923V376.058H136.403L134.123 378.998H133.223ZM136.373 375.398H138.923V372.008H136.343C135.683 372.008 135.163 372.158 134.783 372.458C134.413 372.758 134.228 373.163 134.228 373.673C134.228 374.193 134.428 374.613 134.828 374.933C135.228 375.243 135.743 375.398 136.373 375.398ZM150.444 379.178C149.324 379.178 148.404 378.793 147.684 378.023C146.964 377.253 146.604 376.238 146.604 374.978C146.604 374.468 146.609 374.048 146.619 373.718C146.639 373.378 146.674 372.993 146.724 372.563C146.784 372.133 146.874 371.773 146.994 371.483C147.114 371.183 147.269 370.888 147.459 370.598C147.659 370.308 147.914 370.068 148.224 369.878C148.544 369.678 148.914 369.523 149.334 369.413L153.684 368.318L153.894 368.978L149.694 370.088C148.884 370.298 148.304 370.633 147.954 371.093C147.614 371.543 147.404 372.218 147.324 373.118C148.044 371.918 149.149 371.318 150.639 371.318C151.649 371.318 152.514 371.703 153.234 372.473C153.954 373.243 154.314 374.158 154.314 375.218C154.314 376.298 153.944 377.228 153.204 378.008C152.464 378.788 151.544 379.178 150.444 379.178ZM150.474 378.488C151.344 378.488 152.069 378.173 152.649 377.543C153.229 376.913 153.519 376.148 153.519 375.248C153.519 374.348 153.219 373.583 152.619 372.953C152.029 372.323 151.304 372.008 150.444 372.008C149.574 372.008 148.849 372.323 148.269 372.953C147.689 373.583 147.399 374.348 147.399 375.248C147.399 376.148 147.694 376.913 148.284 377.543C148.884 378.173 149.614 378.488 150.474 378.488ZM156.573 381.398V371.348H157.308V373.058C158.138 371.798 159.188 371.168 160.458 371.168C161.438 371.168 162.303 371.538 163.053 372.278C163.803 373.008 164.178 373.973 164.178 375.173C164.178 376.363 163.803 377.328 163.053 378.068C162.303 378.808 161.438 379.178 160.458 379.178C159.158 379.178 158.108 378.568 157.308 377.348V381.398H156.573ZM160.383 378.473C161.243 378.473 161.958 378.178 162.528 377.588C163.098 376.988 163.383 376.183 163.383 375.173C163.383 374.193 163.088 373.398 162.498 372.788C161.918 372.178 161.213 371.873 160.383 371.873C159.553 371.873 158.823 372.188 158.193 372.818C157.573 373.438 157.263 374.228 157.263 375.188C157.263 376.138 157.573 376.923 158.193 377.543C158.823 378.163 159.553 378.473 160.383 378.473ZM172.67 377.993C171.92 378.783 170.985 379.178 169.865 379.178C168.745 379.178 167.81 378.788 167.06 378.008C166.32 377.218 165.95 376.273 165.95 375.173C165.95 374.083 166.325 373.143 167.075 372.353C167.835 371.563 168.775 371.168 169.895 371.168C171.015 371.168 171.945 371.563 172.685 372.353C173.435 373.133 173.81 374.073 173.81 375.173C173.81 376.263 173.43 377.203 172.67 377.993ZM169.895 378.488C170.745 378.488 171.475 378.163 172.085 377.513C172.705 376.863 173.015 376.083 173.015 375.173C173.015 374.253 172.705 373.473 172.085 372.833C171.475 372.183 170.735 371.858 169.865 371.858C169.005 371.858 168.27 372.183 167.66 372.833C167.05 373.473 166.745 374.253 166.745 375.173C166.745 376.093 167.05 376.878 167.66 377.528C168.27 378.168 169.015 378.488 169.895 378.488ZM179.445 379.178C178.345 379.178 177.42 378.788 176.67 378.008C175.92 377.228 175.545 376.283 175.545 375.173C175.545 374.073 175.92 373.133 176.67 372.353C177.43 371.563 178.355 371.168 179.445 371.168C180.635 371.168 181.65 371.643 182.49 372.593L181.98 373.118C181.16 372.278 180.31 371.858 179.43 371.858C178.58 371.858 177.85 372.183 177.24 372.833C176.64 373.483 176.34 374.263 176.34 375.173C176.34 376.093 176.645 376.878 177.255 377.528C177.865 378.168 178.61 378.488 179.49 378.488C180.4 378.488 181.245 378.053 182.025 377.183L182.565 377.663C181.675 378.673 180.635 379.178 179.445 379.178ZM184.639 378.998V371.348H185.374V378.023L190.564 371.348H191.299V378.998H190.564V372.323L185.374 378.998H184.639ZM196.007 378.998V372.008H193.142V371.348H199.607V372.008H196.742V378.998H196.007ZM201.456 378.998V371.348H202.191V374.288H204.471C205.321 374.288 206.021 374.478 206.571 374.858C207.121 375.228 207.396 375.788 207.396 376.538C207.396 377.278 207.141 377.873 206.631 378.323C206.121 378.773 205.446 378.998 204.606 378.998H201.456ZM202.191 378.338H204.486C205.136 378.338 205.651 378.183 206.031 377.873C206.411 377.563 206.601 377.128 206.601 376.568C206.601 376.058 206.406 375.663 206.016 375.383C205.626 375.093 205.096 374.948 204.426 374.948H202.191V378.338Z" fill="black"/>
<path d="M478 377.998H240" stroke="black" stroke-width="0.5"/>
<path d="M21.9537 304.398V301.278H23.0787C23.6187 300.528 24.0337 299.493 24.3237 298.173C24.6137 296.843 24.7587 295.358 24.7587 293.718V291.498H31.1937V301.278H32.6187L32.4687 304.398H31.8087V301.998H22.7637L22.6137 304.398H21.9537ZM23.9787 301.278H30.4137V292.218H25.5237V294.288C25.5237 295.708 25.3837 297.053 25.1037 298.323C24.8337 299.593 24.4587 300.578 23.9787 301.278ZM37.6884 302.178C36.6584 302.178 35.7734 301.803 35.0334 301.053C34.3034 300.303 33.9384 299.338 33.9384 298.158C33.9384 297.038 34.2834 296.093 34.9734 295.323C35.6734 294.553 36.5384 294.168 37.5684 294.168C38.6184 294.168 39.4634 294.548 40.1034 295.308C40.7534 296.068 41.0784 297.023 41.0784 298.173C41.0784 298.293 41.0734 298.393 41.0634 298.473H34.7184C34.7884 299.393 35.1084 300.128 35.6784 300.678C36.2584 301.218 36.9384 301.488 37.7184 301.488C38.7184 301.488 39.5934 301.088 40.3434 300.288L40.8534 300.738C39.9634 301.698 38.9084 302.178 37.6884 302.178ZM34.7184 297.813H40.2834C40.2234 296.973 39.9584 296.268 39.4884 295.698C39.0184 295.128 38.3684 294.843 37.5384 294.843C36.7884 294.843 36.1484 295.128 35.6184 295.698C35.0884 296.258 34.7884 296.963 34.7184 297.813ZM43.2231 301.998V294.348H43.9581V301.023L49.1481 294.348H49.8831V301.998H49.1481V295.323L43.9581 301.998H43.2231ZM47.8881 292.623C47.5181 292.943 47.0731 293.103 46.5531 293.103C46.0331 293.103 45.5881 292.943 45.2181 292.623C44.8481 292.293 44.6181 291.878 44.5281 291.378L45.1431 291.243C45.3331 291.973 45.8031 292.338 46.5531 292.338C47.3031 292.338 47.7731 291.973 47.9631 291.243L48.5781 291.378C48.4881 291.878 48.2581 292.293 47.8881 292.623ZM56.0464 302.178C54.9464 302.178 54.0214 301.788 53.2714 301.008C52.5214 300.228 52.1464 299.283 52.1464 298.173C52.1464 297.073 52.5214 296.133 53.2714 295.353C54.0314 294.563 54.9564 294.168 56.0464 294.168C57.2364 294.168 58.2514 294.643 59.0914 295.593L58.5814 296.118C57.7614 295.278 56.9114 294.858 56.0314 294.858C55.1814 294.858 54.4514 295.183 53.8414 295.833C53.2414 296.483 52.9414 297.263 52.9414 298.173C52.9414 299.093 53.2464 299.878 53.8564 300.528C54.4664 301.168 55.2114 301.488 56.0914 301.488C57.0014 301.488 57.8464 301.053 58.6264 300.183L59.1664 300.663C58.2764 301.673 57.2364 302.178 56.0464 302.178ZM63.1607 301.998V295.008H60.2957V294.348H66.7607V295.008H63.8957V301.998H63.1607ZM68.6089 301.998V294.348H72.1039C72.8539 294.348 73.4539 294.523 73.9039 294.873C74.3539 295.213 74.5789 295.673 74.5789 296.253C74.5789 297.063 74.1489 297.648 73.2889 298.008C73.7989 298.138 74.2139 298.363 74.5339 298.683C74.8539 299.003 75.0139 299.413 75.0139 299.913C75.0139 300.543 74.7639 301.048 74.2639 301.428C73.7639 301.808 73.0989 301.998 72.2689 301.998H68.6089ZM69.3439 301.338H72.1789C72.8189 301.338 73.3239 301.203 73.6939 300.933C74.0639 300.653 74.2489 300.278 74.2489 299.808C74.2489 299.358 74.0539 299.008 73.6639 298.758C73.2839 298.508 72.7289 298.383 71.9989 298.383H69.3439V301.338ZM69.3439 297.768H71.9989C72.5489 297.768 72.9889 297.643 73.3189 297.393C73.6589 297.133 73.8289 296.768 73.8289 296.298C73.8289 295.908 73.6739 295.598 73.3639 295.368C73.0539 295.128 72.6139 295.008 72.0439 295.008H69.3439V297.768ZM77.31 301.998V294.348H78.045V301.023L83.235 294.348H83.97V301.998H83.235V295.323L78.045 301.998H77.31ZM88.6783 301.998V295.008H85.8133V294.348H92.2783V295.008H89.4133V301.998H88.6783ZM97.3514 302.178C96.3214 302.178 95.4364 301.803 94.6964 301.053C93.9664 300.303 93.6014 299.338 93.6014 298.158C93.6014 297.038 93.9464 296.093 94.6364 295.323C95.3364 294.553 96.2014 294.168 97.2314 294.168C98.2814 294.168 99.1264 294.548 99.7664 295.308C100.416 296.068 100.741 297.023 100.741 298.173C100.741 298.293 100.736 298.393 100.726 298.473H94.3814C94.4514 299.393 94.7714 300.128 95.3414 300.678C95.9214 301.218 96.6014 301.488 97.3814 301.488C98.3814 301.488 99.2564 301.088 100.006 300.288L100.516 300.738C99.6264 301.698 98.5714 302.178 97.3514 302.178ZM94.3814 297.813H99.9464C99.8864 296.973 99.6214 296.268 99.1514 295.698C98.6814 295.128 98.0314 294.843 97.2014 294.843C96.4514 294.843 95.8114 295.128 95.2814 295.698C94.7514 296.258 94.4514 296.963 94.3814 297.813ZM102.391 302.118C102.111 302.118 101.831 302.078 101.551 301.998L101.686 301.323C101.936 301.393 102.131 301.428 102.271 301.428C102.471 301.428 102.631 301.408 102.751 301.368C102.881 301.318 103.021 301.223 103.171 301.083C103.321 300.943 103.441 300.723 103.531 300.423C103.621 300.123 103.706 299.733 103.786 299.253C103.876 298.773 103.941 298.158 103.981 297.408C104.021 296.658 104.041 295.773 104.041 294.753V294.348H109.246V301.998H108.511V295.008H104.746V295.218C104.746 296.458 104.706 297.508 104.626 298.368C104.546 299.228 104.446 299.903 104.326 300.393C104.206 300.873 104.036 301.248 103.816 301.518C103.596 301.778 103.381 301.943 103.171 302.013C102.971 302.083 102.711 302.118 102.391 302.118ZM112.041 301.998V294.348H112.776V297.288H115.056C115.906 297.288 116.606 297.478 117.156 297.858C117.706 298.228 117.981 298.788 117.981 299.538C117.981 300.278 117.726 300.873 117.216 301.323C116.706 301.773 116.031 301.998 115.191 301.998H112.041ZM112.776 301.338H115.071C115.721 301.338 116.236 301.183 116.616 300.873C116.996 300.563 117.186 300.128 117.186 299.568C117.186 299.058 116.991 298.663 116.601 298.383C116.211 298.093 115.681 297.948 115.011 297.948H112.776V301.338ZM119.981 301.998V294.348H120.716V297.753H125.801V294.348H126.536V301.998H125.801V298.413H120.716V301.998H119.981ZM135.522 300.993C134.772 301.783 133.837 302.178 132.717 302.178C131.597 302.178 130.662 301.788 129.912 301.008C129.172 300.218 128.802 299.273 128.802 298.173C128.802 297.083 129.177 296.143 129.927 295.353C130.687 294.563 131.627 294.168 132.747 294.168C133.867 294.168 134.797 294.563 135.537 295.353C136.287 296.133 136.662 297.073 136.662 298.173C136.662 299.263 136.282 300.203 135.522 300.993ZM132.747 301.488C133.597 301.488 134.327 301.163 134.937 300.513C135.557 299.863 135.867 299.083 135.867 298.173C135.867 297.253 135.557 296.473 134.937 295.833C134.327 295.183 133.587 294.858 132.717 294.858C131.857 294.858 131.122 295.183 130.512 295.833C129.902 296.473 129.597 297.253 129.597 298.173C129.597 299.093 129.902 299.878 130.512 300.528C131.122 301.168 131.867 301.488 132.747 301.488ZM146.913 302.178C145.793 302.178 144.873 301.793 144.153 301.023C143.433 300.253 143.073 299.238 143.073 297.978C143.073 297.468 143.078 297.048 143.088 296.718C143.108 296.378 143.143 295.993 143.193 295.563C143.253 295.133 143.343 294.773 143.463 294.483C143.583 294.183 143.738 293.888 143.928 293.598C144.128 293.308 144.383 293.068 144.693 292.878C145.013 292.678 145.383 292.523 145.803 292.413L150.153 291.318L150.363 291.978L146.163 293.088C145.353 293.298 144.773 293.633 144.423 294.093C144.083 294.543 143.873 295.218 143.793 296.118C144.513 294.918 145.618 294.318 147.108 294.318C148.118 294.318 148.983 294.703 149.703 295.473C150.423 296.243 150.783 297.158 150.783 298.218C150.783 299.298 150.413 300.228 149.673 301.008C148.933 301.788 148.013 302.178 146.913 302.178ZM146.943 301.488C147.813 301.488 148.538 301.173 149.118 300.543C149.698 299.913 149.988 299.148 149.988 298.248C149.988 297.348 149.688 296.583 149.088 295.953C148.498 295.323 147.773 295.008 146.913 295.008C146.043 295.008 145.318 295.323 144.738 295.953C144.158 296.583 143.868 297.348 143.868 298.248C143.868 299.148 144.163 299.913 144.753 300.543C145.353 301.173 146.083 301.488 146.943 301.488ZM153.042 304.398V294.348H153.777V296.058C154.607 294.798 155.657 294.168 156.927 294.168C157.907 294.168 158.772 294.538 159.522 295.278C160.272 296.008 160.647 296.973 160.647 298.173C160.647 299.363 160.272 300.328 159.522 301.068C158.772 301.808 157.907 302.178 156.927 302.178C155.627 302.178 154.577 301.568 153.777 300.348V304.398H153.042ZM156.852 301.473C157.712 301.473 158.427 301.178 158.997 300.588C159.567 299.988 159.852 299.183 159.852 298.173C159.852 297.193 159.557 296.398 158.967 295.788C158.387 295.178 157.682 294.873 156.852 294.873C156.022 294.873 155.292 295.188 154.662 295.818C154.042 296.438 153.732 297.228 153.732 298.188C153.732 299.138 154.042 299.923 154.662 300.543C155.292 301.163 156.022 301.473 156.852 301.473ZM169.14 300.993C168.39 301.783 167.455 302.178 166.335 302.178C165.215 302.178 164.28 301.788 163.53 301.008C162.79 300.218 162.42 299.273 162.42 298.173C162.42 297.083 162.795 296.143 163.545 295.353C164.305 294.563 165.245 294.168 166.365 294.168C167.485 294.168 168.415 294.563 169.155 295.353C169.905 296.133 170.28 297.073 170.28 298.173C170.28 299.263 169.9 300.203 169.14 300.993ZM166.365 301.488C167.215 301.488 167.945 301.163 168.555 300.513C169.175 299.863 169.485 299.083 169.485 298.173C169.485 297.253 169.175 296.473 168.555 295.833C167.945 295.183 167.205 294.858 166.335 294.858C165.475 294.858 164.74 295.183 164.13 295.833C163.52 296.473 163.215 297.253 163.215 298.173C163.215 299.093 163.52 299.878 164.13 300.528C164.74 301.168 165.485 301.488 166.365 301.488ZM175.915 302.178C174.815 302.178 173.89 301.788 173.14 301.008C172.39 300.228 172.015 299.283 172.015 298.173C172.015 297.073 172.39 296.133 173.14 295.353C173.9 294.563 174.825 294.168 175.915 294.168C177.105 294.168 178.12 294.643 178.96 295.593L178.45 296.118C177.63 295.278 176.78 294.858 175.9 294.858C175.05 294.858 174.32 295.183 173.71 295.833C173.11 296.483 172.81 297.263 172.81 298.173C172.81 299.093 173.115 299.878 173.725 300.528C174.335 301.168 175.08 301.488 175.96 301.488C176.87 301.488 177.715 301.053 178.495 300.183L179.035 300.663C178.145 301.673 177.105 302.178 175.915 302.178ZM183.434 302.178C182.594 302.178 181.889 301.968 181.319 301.548C180.759 301.118 180.479 300.518 180.479 299.748C180.479 298.968 180.784 298.358 181.394 297.918C182.004 297.478 182.814 297.258 183.824 297.258C184.684 297.258 185.529 297.368 186.359 297.588V297.258C186.359 296.498 186.139 295.918 185.699 295.518C185.259 295.118 184.639 294.918 183.839 294.918C183.039 294.918 182.239 295.123 181.439 295.533L181.169 294.888C182.119 294.448 183.024 294.228 183.884 294.228C184.934 294.228 185.739 294.508 186.299 295.068C186.819 295.588 187.079 296.308 187.079 297.228V301.998H186.359V300.723C185.669 301.693 184.694 302.178 183.434 302.178ZM183.479 301.488C184.279 301.488 184.959 301.268 185.519 300.828C186.089 300.378 186.374 299.813 186.374 299.133V298.263C185.474 298.033 184.609 297.918 183.779 297.918C182.979 297.918 182.359 298.083 181.919 298.413C181.489 298.733 181.274 299.173 181.274 299.733C181.274 300.283 181.474 300.713 181.874 301.023C182.274 301.333 182.809 301.488 183.479 301.488ZM196.037 302.178C194.977 302.178 194.112 301.828 193.442 301.128C192.782 300.428 192.417 299.548 192.347 298.488H190.457V301.998H189.722V294.348H190.457V297.813H192.347C192.427 296.783 192.802 295.918 193.472 295.218C194.152 294.518 195.017 294.168 196.067 294.168C197.167 294.168 198.057 294.558 198.737 295.338C199.417 296.108 199.757 297.053 199.757 298.173C199.757 299.283 199.412 300.228 198.722 301.008C198.042 301.788 197.147 302.178 196.037 302.178ZM196.067 301.488C196.947 301.488 197.647 301.173 198.167 300.543C198.697 299.913 198.962 299.123 198.962 298.173C198.962 297.233 198.692 296.448 198.152 295.818C197.612 295.178 196.907 294.858 196.037 294.858C195.157 294.858 194.452 295.173 193.922 295.803C193.402 296.433 193.142 297.223 193.142 298.173C193.142 299.113 193.412 299.903 193.952 300.543C194.492 301.173 195.197 301.488 196.067 301.488ZM203.947 301.998V295.008H201.082V294.348H207.547V295.008H204.682V301.998H203.947Z" fill="black"/>
<path d="M176.425 278.334C175.155 278.334 173.923 278.045 172.729 277.466C171.534 276.869 170.479 276.103 169.565 275.17L170.601 274.134C172.523 276.057 174.483 277.018 176.481 277.018C178.011 277.018 179.271 276.542 180.261 275.59C181.25 274.638 181.745 273.453 181.745 272.034C181.745 270.671 181.241 269.561 180.233 268.702C179.243 267.825 177.955 267.386 176.369 267.386C174.931 267.386 173.457 267.797 171.945 268.618L170.825 267.89L171.385 258.398H182.389V259.798H172.673L172.197 267.134C173.653 266.425 175.099 266.07 176.537 266.07C178.459 266.07 180.055 266.63 181.325 267.75C182.613 268.851 183.257 270.279 183.257 272.034C183.257 273.882 182.613 275.394 181.325 276.57C180.037 277.746 178.403 278.334 176.425 278.334ZM188.506 277.998L202.898 258.398H204.41L190.018 277.998H188.506ZM202.114 278.222C200.863 278.222 199.837 277.737 199.034 276.766C198.231 275.777 197.83 274.591 197.83 273.21C197.83 271.847 198.231 270.671 199.034 269.682C199.855 268.693 200.901 268.198 202.17 268.198C203.421 268.198 204.447 268.693 205.25 269.682C206.053 270.671 206.454 271.847 206.454 273.21C206.454 274.573 206.043 275.749 205.222 276.738C204.419 277.727 203.383 278.222 202.114 278.222ZM202.17 277.018C202.991 277.018 203.663 276.654 204.186 275.926C204.727 275.198 204.998 274.293 204.998 273.21C204.998 272.127 204.718 271.222 204.158 270.494C203.598 269.766 202.917 269.402 202.114 269.402C201.293 269.402 200.611 269.775 200.07 270.522C199.547 271.25 199.286 272.146 199.286 273.21C199.286 274.293 199.566 275.198 200.126 275.926C200.686 276.654 201.367 277.018 202.17 277.018ZM190.746 268.198C189.495 268.198 188.469 267.713 187.666 266.742C186.863 265.753 186.462 264.567 186.462 263.186C186.462 261.823 186.863 260.647 187.666 259.658C188.487 258.669 189.533 258.174 190.802 258.174C192.053 258.174 193.079 258.669 193.882 259.658C194.685 260.647 195.086 261.823 195.086 263.186C195.086 264.549 194.675 265.725 193.854 266.714C193.051 267.703 192.015 268.198 190.746 268.198ZM190.802 266.994C191.623 266.994 192.295 266.63 192.818 265.902C193.359 265.174 193.63 264.269 193.63 263.186C193.63 262.103 193.35 261.198 192.79 260.47C192.23 259.742 191.549 259.378 190.746 259.378C189.925 259.378 189.243 259.751 188.702 260.498C188.179 261.226 187.918 262.122 187.918 263.186C187.918 264.269 188.198 265.174 188.758 265.902C189.318 266.63 189.999 266.994 190.802 266.994Z" fill="black"/>
<path d="M240 300.998L480 300.998" stroke="black" stroke-width="0.5"/>
<path d="M153.524 431.998L162.428 413.798H151.06V412.398H164.052V413.462L155.12 431.998H153.524ZM174.955 432.334C172.528 432.334 170.568 431.354 169.075 429.394C167.6 427.415 166.863 425.017 166.863 422.198C166.863 420.387 167.19 418.717 167.843 417.186C168.496 415.655 169.448 414.423 170.699 413.49C171.968 412.538 173.406 412.062 175.011 412.062C177.438 412.062 179.388 413.051 180.863 415.03C182.356 416.99 183.103 419.379 183.103 422.198C183.103 424.009 182.776 425.679 182.123 427.21C181.47 428.741 180.508 429.982 179.239 430.934C177.988 431.867 176.56 432.334 174.955 432.334ZM170.223 428.386C171.455 430.141 173.051 431.018 175.011 431.018C176.971 431.018 178.558 430.15 179.771 428.414C180.984 426.659 181.591 424.587 181.591 422.198C181.591 419.809 180.975 417.746 179.743 416.01C178.511 414.255 176.915 413.378 174.955 413.378C172.995 413.378 171.408 414.246 170.195 415.982C168.982 417.718 168.375 419.79 168.375 422.198C168.375 424.569 168.991 426.631 170.223 428.386ZM188.506 431.998L202.898 412.398H204.41L190.018 431.998H188.506ZM202.114 432.222C200.863 432.222 199.837 431.737 199.034 430.766C198.231 429.777 197.83 428.591 197.83 427.21C197.83 425.847 198.231 424.671 199.034 423.682C199.855 422.693 200.901 422.198 202.17 422.198C203.421 422.198 204.447 422.693 205.25 423.682C206.053 424.671 206.454 425.847 206.454 427.21C206.454 428.573 206.043 429.749 205.222 430.738C204.419 431.727 203.383 432.222 202.114 432.222ZM202.17 431.018C202.991 431.018 203.663 430.654 204.186 429.926C204.727 429.198 204.998 428.293 204.998 427.21C204.998 426.127 204.718 425.222 204.158 424.494C203.598 423.766 202.917 423.402 202.114 423.402C201.293 423.402 200.611 423.775 200.07 424.522C199.547 425.25 199.286 426.146 199.286 427.21C199.286 428.293 199.566 429.198 200.126 429.926C200.686 430.654 201.367 431.018 202.17 431.018ZM190.746 422.198C189.495 422.198 188.469 421.713 187.666 420.742C186.863 419.753 186.462 418.567 186.462 417.186C186.462 415.823 186.863 414.647 187.666 413.658C188.487 412.669 189.533 412.174 190.802 412.174C192.053 412.174 193.079 412.669 193.882 413.658C194.685 414.647 195.086 415.823 195.086 417.186C195.086 418.549 194.675 419.725 193.854 420.714C193.051 421.703 192.015 422.198 190.746 422.198ZM190.802 420.994C191.623 420.994 192.295 420.63 192.818 419.902C193.359 419.174 193.63 418.269 193.63 417.186C193.63 416.103 193.35 415.198 192.79 414.47C192.23 413.742 191.549 413.378 190.746 413.378C189.925 413.378 189.243 413.751 188.702 414.498C188.179 415.226 187.918 416.122 187.918 417.186C187.918 418.269 188.198 419.174 188.758 419.902C189.318 420.63 189.999 420.994 190.802 420.994Z" fill="black"/>
<path d="M98.0521 455.998L102.237 450.643L98.2021 445.498H99.1321L102.717 450.118L106.287 445.498H107.202L103.182 450.628L107.352 455.998H106.422L102.687 451.153L98.9671 455.998H98.0521ZM115.702 454.993C114.952 455.783 114.017 456.178 112.897 456.178C111.777 456.178 110.842 455.788 110.092 455.008C109.352 454.218 108.982 453.273 108.982 452.173C108.982 451.083 109.357 450.143 110.107 449.353C110.867 448.563 111.807 448.168 112.927 448.168C114.047 448.168 114.977 448.563 115.717 449.353C116.467 450.133 116.842 451.073 116.842 452.173C116.842 453.263 116.462 454.203 115.702 454.993ZM112.927 455.488C113.777 455.488 114.507 455.163 115.117 454.513C115.737 453.863 116.047 453.083 116.047 452.173C116.047 451.253 115.737 450.473 115.117 449.833C114.507 449.183 113.767 448.858 112.897 448.858C112.037 448.858 111.302 449.183 110.692 449.833C110.082 450.473 109.777 451.253 109.777 452.173C109.777 453.093 110.082 453.878 110.692 454.528C111.302 455.168 112.047 455.488 112.927 455.488ZM121.022 455.998V449.008H118.157V448.348H124.622V449.008H121.757V455.998H121.022ZM125.855 455.998L128.27 452.953C127.63 452.833 127.1 452.568 126.68 452.158C126.27 451.748 126.065 451.238 126.065 450.628C126.065 449.948 126.315 449.398 126.815 448.978C127.315 448.558 128 448.348 128.87 448.348H132.29V455.998H131.555V453.058H129.035L126.755 455.998H125.855ZM129.005 452.398H131.555V449.008H128.975C128.315 449.008 127.795 449.158 127.415 449.458C127.045 449.758 126.86 450.163 126.86 450.673C126.86 451.193 127.06 451.613 127.46 451.933C127.86 452.243 128.375 452.398 129.005 452.398ZM137.003 455.998V449.008H134.138V448.348H140.603V449.008H137.738V455.998H137.003ZM150.444 456.178C149.324 456.178 148.404 455.793 147.684 455.023C146.964 454.253 146.604 453.238 146.604 451.978C146.604 451.468 146.609 451.048 146.619 450.718C146.639 450.378 146.674 449.993 146.724 449.563C146.784 449.133 146.874 448.773 146.994 448.483C147.114 448.183 147.269 447.888 147.459 447.598C147.659 447.308 147.914 447.068 148.224 446.878C148.544 446.678 148.914 446.523 149.334 446.413L153.684 445.318L153.894 445.978L149.694 447.088C148.884 447.298 148.304 447.633 147.954 448.093C147.614 448.543 147.404 449.218 147.324 450.118C148.044 448.918 149.149 448.318 150.639 448.318C151.649 448.318 152.514 448.703 153.234 449.473C153.954 450.243 154.314 451.158 154.314 452.218C154.314 453.298 153.944 454.228 153.204 455.008C152.464 455.788 151.544 456.178 150.444 456.178ZM150.474 455.488C151.344 455.488 152.069 455.173 152.649 454.543C153.229 453.913 153.519 453.148 153.519 452.248C153.519 451.348 153.219 450.583 152.619 449.953C152.029 449.323 151.304 449.008 150.444 449.008C149.574 449.008 148.849 449.323 148.269 449.953C147.689 450.583 147.399 451.348 147.399 452.248C147.399 453.148 147.694 453.913 148.284 454.543C148.884 455.173 149.614 455.488 150.474 455.488ZM156.573 458.398V448.348H157.308V450.058C158.138 448.798 159.188 448.168 160.458 448.168C161.438 448.168 162.303 448.538 163.053 449.278C163.803 450.008 164.178 450.973 164.178 452.173C164.178 453.363 163.803 454.328 163.053 455.068C162.303 455.808 161.438 456.178 160.458 456.178C159.158 456.178 158.108 455.568 157.308 454.348V458.398H156.573ZM160.383 455.473C161.243 455.473 161.958 455.178 162.528 454.588C163.098 453.988 163.383 453.183 163.383 452.173C163.383 451.193 163.088 450.398 162.498 449.788C161.918 449.178 161.213 448.873 160.383 448.873C159.553 448.873 158.823 449.188 158.193 449.818C157.573 450.438 157.263 451.228 157.263 452.188C157.263 453.138 157.573 453.923 158.193 454.543C158.823 455.163 159.553 455.473 160.383 455.473ZM172.67 454.993C171.92 455.783 170.985 456.178 169.865 456.178C168.745 456.178 167.81 455.788 167.06 455.008C166.32 454.218 165.95 453.273 165.95 452.173C165.95 451.083 166.325 450.143 167.075 449.353C167.835 448.563 168.775 448.168 169.895 448.168C171.015 448.168 171.945 448.563 172.685 449.353C173.435 450.133 173.81 451.073 173.81 452.173C173.81 453.263 173.43 454.203 172.67 454.993ZM169.895 455.488C170.745 455.488 171.475 455.163 172.085 454.513C172.705 453.863 173.015 453.083 173.015 452.173C173.015 451.253 172.705 450.473 172.085 449.833C171.475 449.183 170.735 448.858 169.865 448.858C169.005 448.858 168.27 449.183 167.66 449.833C167.05 450.473 166.745 451.253 166.745 452.173C166.745 453.093 167.05 453.878 167.66 454.528C168.27 455.168 169.015 455.488 169.895 455.488ZM179.445 456.178C178.345 456.178 177.42 455.788 176.67 455.008C175.92 454.228 175.545 453.283 175.545 452.173C175.545 451.073 175.92 450.133 176.67 449.353C177.43 448.563 178.355 448.168 179.445 448.168C180.635 448.168 181.65 448.643 182.49 449.593L181.98 450.118C181.16 449.278 180.31 448.858 179.43 448.858C178.58 448.858 177.85 449.183 177.24 449.833C176.64 450.483 176.34 451.263 176.34 452.173C176.34 453.093 176.645 453.878 177.255 454.528C177.865 455.168 178.61 455.488 179.49 455.488C180.4 455.488 181.245 455.053 182.025 454.183L182.565 454.663C181.675 455.673 180.635 456.178 179.445 456.178ZM184.639 455.998V448.348H185.374V455.023L190.564 448.348H191.299V455.998H190.564V449.323L185.374 455.998H184.639ZM196.007 455.998V449.008H193.142V448.348H199.607V449.008H196.742V455.998H196.007ZM201.456 455.998V448.348H202.191V451.288H204.471C205.321 451.288 206.021 451.478 206.571 451.858C207.121 452.228 207.396 452.788 207.396 453.538C207.396 454.278 207.141 454.873 206.631 455.323C206.121 455.773 205.446 455.998 204.606 455.998H201.456ZM202.191 455.338H204.486C205.136 455.338 205.651 455.183 206.031 454.873C206.411 454.563 206.601 454.128 206.601 453.568C206.601 453.058 206.406 452.663 206.016 452.383C205.626 452.093 205.096 451.948 204.426 451.948H202.191V455.338Z" fill="black"/>
<path d="M478 455.998L240 455.998" stroke="black" stroke-width="0.5"/>
<defs>
<filter id="filter0_i_448_3104" x="397.037" y="195.111" width="276.963" height="214.887" filterUnits="userSpaceOnUse" color-interpolation-filters="sRGB">
<feFlood flood-opacity="0" result="BackgroundImageFix"/>
<feBlend mode="normal" in="SourceGraphic" in2="BackgroundImageFix" result="shape"/>
<feColorMatrix in="SourceAlpha" type="matrix" values="0 0 0 0 0 0 0 0 0 0 0 0 0 0 0 0 0 0 127 0" result="hardAlpha"/>
<feOffset dx="5" dy="5"/>
<feGaussianBlur stdDeviation="5"/>
<feComposite in2="hardAlpha" operator="arithmetic" k2="-1" k3="1"/>
<feColorMatrix type="matrix" values="0 0 0 0 0.783319 0 0 0 0 0.732705 0 0 0 0 0.576644 0 0 0 0.3 0"/>
<feBlend mode="multiply" in2="shape" result="effect1_innerShadow_448_3104"/>
</filter>
<filter id="filter1_i_448_3104" x="442.93" y="157.76" width="102.815" height="179.076" filterUnits="userSpaceOnUse" color-interpolation-filters="sRGB">
<feFlood flood-opacity="0" result="BackgroundImageFix"/>
<feBlend mode="normal" in="SourceGraphic" in2="BackgroundImageFix" result="shape"/>
<feColorMatrix in="SourceAlpha" type="matrix" values="0 0 0 0 0 0 0 0 0 0 0 0 0 0 0 0 0 0 127 0" result="hardAlpha"/>
<feOffset dx="5" dy="5"/>
<feGaussianBlur stdDeviation="5"/>
<feComposite in2="hardAlpha" operator="arithmetic" k2="-1" k3="1"/>
<feColorMatrix type="matrix" values="0 0 0 0 0.783319 0 0 0 0 0.732705 0 0 0 0 0.576644 0 0 0 0.4 0"/>
<feBlend mode="multiply" in2="shape" result="effect1_innerShadow_448_3104"/>
</filter>
<filter id="filter2_i_448_3104" x="349.051" y="0.998047" width="404.949" height="491" filterUnits="userSpaceOnUse" color-interpolation-filters="sRGB">
<feFlood flood-opacity="0" result="BackgroundImageFix"/>
<feBlend mode="normal" in="SourceGraphic" in2="BackgroundImageFix" result="shape"/>
<feColorMatrix in="SourceAlpha" type="matrix" values="0 0 0 0 0 0 0 0 0 0 0 0 0 0 0 0 0 0 127 0" result="hardAlpha"/>
<feOffset dx="5" dy="5"/>
<feGaussianBlur stdDeviation="5"/>
<feComposite in2="hardAlpha" operator="arithmetic" k2="-1" k3="1"/>
<feColorMatrix type="matrix" values="0 0 0 0 0.783319 0 0 0 0 0.732705 0 0 0 0 0.576644 0 0 0 0.2 0"/>
<feBlend mode="multiply" in2="shape" result="effect1_innerShadow_448_3104"/>
</filter>
<filter id="filter3_i_448_3104" x="261" y="34.0371" width="249.2" height="399.602" filterUnits="userSpaceOnUse" color-interpolation-filters="sRGB">
<feFlood flood-opacity="0" result="BackgroundImageFix"/>
<feBlend mode="normal" in="SourceGraphic" in2="BackgroundImageFix" result="shape"/>
<feColorMatrix in="SourceAlpha" type="matrix" values="0 0 0 0 0 0 0 0 0 0 0 0 0 0 0 0 0 0 127 0" result="hardAlpha"/>
<feOffset dx="5" dy="5"/>
<feGaussianBlur stdDeviation="5"/>
<feComposite in2="hardAlpha" operator="arithmetic" k2="-1" k3="1"/>
<feColorMatrix type="matrix" values="0 0 0 0 0.783319 0 0 0 0 0.732705 0 0 0 0 0.576644 0 0 0 0.2 0"/>
<feBlend mode="multiply" in2="shape" result="effect1_innerShadow_448_3104"/>
</filter>
</defs>
</svg>
