<svg width="776" height="606" viewBox="0 0 776 606" fill="none" xmlns="http://www.w3.org/2000/svg">
<path d="M57.5967 37.2129V567.792H710.573" stroke="#484848"/>
<path d="M59.35 4.28805H61.39V9.46305C61.39 9.71305 61.385 9.99305 61.375 10.303C61.365 10.613 61.355 10.918 61.345 11.218C61.335 11.508 61.325 11.763 61.315 11.983C61.305 12.193 61.295 12.338 61.285 12.418H61.33L66.28 4.28805H68.995V14.998H66.97V9.85305C66.97 9.58305 66.975 9.28805 66.985 8.96805C66.995 8.63805 67.005 8.32305 67.015 8.02305C67.035 7.72305 67.05 7.46305 67.06 7.24305C67.08 7.01305 67.095 6.86305 67.105 6.79305H67.045L62.08 14.998H59.35V4.28805ZM73.7536 6.80805V9.95805H76.8736V6.80805H79.1086V14.998H76.8736V11.623H73.7536V14.998H71.5186V6.80805H73.7536ZM88.2303 8.48805H85.5453V14.998H83.3103V8.48805H80.6253V6.80805H88.2303V8.48805ZM92.9698 6.65805C93.7298 6.65805 94.3798 6.80305 94.9198 7.09305C95.4698 7.38305 95.8948 7.80305 96.1948 8.35305C96.4948 8.90305 96.6448 9.57805 96.6448 10.378V11.458H91.3648C91.3848 12.088 91.5698 12.583 91.9198 12.943C92.2798 13.303 92.7748 13.483 93.4048 13.483C93.9348 13.483 94.4148 13.433 94.8448 13.333C95.2748 13.223 95.7198 13.058 96.1798 12.838V14.563C95.7798 14.763 95.3548 14.908 94.9048 14.998C94.4648 15.098 93.9298 15.148 93.2998 15.148C92.4798 15.148 91.7548 14.998 91.1248 14.698C90.4948 14.388 89.9998 13.923 89.6398 13.303C89.2798 12.683 89.0998 11.903 89.0998 10.963C89.0998 10.003 89.2598 9.20805 89.5798 8.57805C89.9098 7.93805 90.3648 7.45805 90.9448 7.13805C91.5248 6.81805 92.1998 6.65805 92.9698 6.65805ZM92.9848 8.24805C92.5548 8.24805 92.1948 8.38805 91.9048 8.66805C91.6248 8.94805 91.4598 9.38305 91.4098 9.97305H94.5448C94.5448 9.64305 94.4848 9.34805 94.3648 9.08805C94.2548 8.82805 94.0848 8.62305 93.8548 8.47305C93.6248 8.32305 93.3348 8.24805 92.9848 8.24805ZM100.692 6.80805V9.95805H103.812V6.80805H106.047V14.998H103.812V11.623H100.692V14.998H98.4571V6.80805H100.692ZM111.719 15.148C110.909 15.148 110.219 15.003 109.649 14.713C109.079 14.413 108.644 13.953 108.344 13.333C108.044 12.713 107.894 11.918 107.894 10.948C107.894 9.94805 108.064 9.13305 108.404 8.50305C108.744 7.87305 109.214 7.40805 109.814 7.10805C110.424 6.80805 111.124 6.65805 111.914 6.65805C112.474 6.65805 112.959 6.71305 113.369 6.82305C113.789 6.93305 114.154 7.06305 114.464 7.21305L113.804 8.93805C113.454 8.79805 113.124 8.68305 112.814 8.59305C112.514 8.50305 112.214 8.45805 111.914 8.45805C111.524 8.45805 111.199 8.55305 110.939 8.74305C110.679 8.92305 110.484 9.19805 110.354 9.56805C110.234 9.92805 110.174 10.383 110.174 10.933C110.174 11.473 110.239 11.923 110.369 12.283C110.509 12.633 110.709 12.898 110.969 13.078C111.229 13.248 111.544 13.333 111.914 13.333C112.384 13.333 112.799 13.273 113.159 13.153C113.519 13.023 113.869 12.848 114.209 12.628V14.533C113.869 14.753 113.509 14.908 113.129 14.998C112.759 15.098 112.289 15.148 111.719 15.148ZM118.254 10.048C118.254 10.218 118.244 10.428 118.224 10.678C118.214 10.928 118.199 11.183 118.179 11.443C118.169 11.703 118.154 11.933 118.134 12.133C118.114 12.333 118.099 12.473 118.089 12.553L121.869 6.80805H124.554V14.998H122.394V11.728C122.394 11.458 122.404 11.163 122.424 10.843C122.444 10.513 122.464 10.208 122.484 9.92805C122.514 9.63805 122.534 9.41805 122.544 9.26805L118.779 14.998H116.094V6.80805H118.254V10.048ZM134.15 8.95305C134.15 9.39305 134.01 9.76805 133.73 10.078C133.46 10.388 133.055 10.588 132.515 10.678V10.738C133.085 10.808 133.54 11.003 133.88 11.323C134.23 11.643 134.405 12.053 134.405 12.553C134.405 12.903 134.335 13.228 134.195 13.528C134.065 13.828 133.855 14.088 133.565 14.308C133.275 14.528 132.9 14.698 132.44 14.818C131.99 14.938 131.44 14.998 130.79 14.998H126.89V6.80805H130.79C131.43 6.80805 132 6.87805 132.5 7.01805C133.01 7.14805 133.41 7.36805 133.7 7.67805C134 7.98805 134.15 8.41305 134.15 8.95305ZM132.095 12.433C132.095 12.113 131.97 11.883 131.72 11.743C131.47 11.593 131.095 11.518 130.595 11.518H129.125V13.453H130.64C131.06 13.453 131.405 13.378 131.675 13.228C131.955 13.068 132.095 12.803 132.095 12.433ZM131.885 9.13305C131.885 8.87305 131.785 8.68305 131.585 8.56305C131.385 8.44305 131.09 8.38305 130.7 8.38305H129.125V10.003H130.445C130.915 10.003 131.27 9.93805 131.51 9.80805C131.76 9.66805 131.885 9.44305 131.885 9.13305ZM138.558 6.80805V9.95805H141.678V6.80805H143.913V14.998H141.678V11.623H138.558V14.998H136.323V6.80805H138.558ZM153.695 10.888C153.695 11.568 153.6 12.173 153.41 12.703C153.23 13.233 152.965 13.683 152.615 14.053C152.275 14.413 151.86 14.688 151.37 14.878C150.88 15.058 150.325 15.148 149.705 15.148C149.135 15.148 148.605 15.058 148.115 14.878C147.635 14.688 147.22 14.413 146.87 14.053C146.52 13.683 146.245 13.233 146.045 12.703C145.855 12.173 145.76 11.568 145.76 10.888C145.76 9.97805 145.92 9.21305 146.24 8.59305C146.56 7.96305 147.02 7.48305 147.62 7.15305C148.22 6.82305 148.93 6.65805 149.75 6.65805C150.52 6.65805 151.2 6.82305 151.79 7.15305C152.38 7.48305 152.845 7.96305 153.185 8.59305C153.525 9.21305 153.695 9.97805 153.695 10.888ZM148.04 10.888C148.04 11.428 148.095 11.883 148.205 12.253C148.325 12.613 148.51 12.888 148.76 13.078C149.01 13.258 149.335 13.348 149.735 13.348C150.135 13.348 150.455 13.258 150.695 13.078C150.945 12.888 151.125 12.613 151.235 12.253C151.355 11.883 151.415 11.428 151.415 10.888C151.415 10.348 151.355 9.89805 151.235 9.53805C151.125 9.17805 150.945 8.90805 150.695 8.72805C150.445 8.54805 150.12 8.45805 149.72 8.45805C149.13 8.45805 148.7 8.66305 148.43 9.07305C148.17 9.47305 148.04 10.078 148.04 10.888ZM158.872 15.148C158.062 15.148 157.372 15.003 156.802 14.713C156.232 14.413 155.797 13.953 155.497 13.333C155.197 12.713 155.047 11.918 155.047 10.948C155.047 9.94805 155.217 9.13305 155.557 8.50305C155.897 7.87305 156.367 7.40805 156.967 7.10805C157.577 6.80805 158.277 6.65805 159.067 6.65805C159.627 6.65805 160.112 6.71305 160.522 6.82305C160.942 6.93305 161.307 7.06305 161.617 7.21305L160.957 8.93805C160.607 8.79805 160.277 8.68305 159.967 8.59305C159.667 8.50305 159.367 8.45805 159.067 8.45805C158.677 8.45805 158.352 8.55305 158.092 8.74305C157.832 8.92305 157.637 9.19805 157.507 9.56805C157.387 9.92805 157.327 10.383 157.327 10.933C157.327 11.473 157.392 11.923 157.522 12.283C157.662 12.633 157.862 12.898 158.122 13.078C158.382 13.248 158.697 13.333 159.067 13.333C159.537 13.333 159.952 13.273 160.312 13.153C160.672 13.023 161.022 12.848 161.362 12.628V14.533C161.022 14.753 160.662 14.908 160.282 14.998C159.912 15.098 159.442 15.148 158.872 15.148ZM170.027 8.48805H167.342V14.998H165.107V8.48805H162.422V6.80805H170.027V8.48805ZM175.348 9.97305C176.188 9.97305 176.883 10.063 177.433 10.243C177.983 10.413 178.388 10.678 178.648 11.038C178.918 11.398 179.053 11.848 179.053 12.388C179.053 12.918 178.928 13.378 178.678 13.768C178.438 14.158 178.053 14.463 177.523 14.683C176.993 14.893 176.298 14.998 175.438 14.998H171.538V6.80805H173.773V9.97305H175.348ZM176.818 12.418C176.818 12.098 176.688 11.868 176.428 11.728C176.178 11.588 175.803 11.518 175.303 11.518H173.773V13.453H175.333C175.773 13.453 176.128 13.373 176.398 13.213C176.678 13.053 176.818 12.788 176.818 12.418ZM188.978 6.80805H191.438L188.198 10.738L191.723 14.998H189.188L185.843 10.843V14.998H183.608V6.80805H185.843V10.783L188.978 6.80805ZM191.726 6.80805H194.171L195.716 11.413C195.766 11.563 195.806 11.713 195.836 11.863C195.876 12.013 195.906 12.168 195.926 12.328C195.956 12.488 195.976 12.658 195.986 12.838H196.031C196.061 12.578 196.101 12.333 196.151 12.103C196.211 11.863 196.276 11.633 196.346 11.413L197.861 6.80805H200.261L196.796 16.048C196.586 16.608 196.311 17.078 195.971 17.458C195.641 17.838 195.256 18.123 194.816 18.313C194.376 18.503 193.896 18.598 193.376 18.598C193.126 18.598 192.906 18.583 192.716 18.553C192.536 18.533 192.376 18.508 192.236 18.478V16.708C192.346 16.728 192.476 16.748 192.626 16.768C192.786 16.788 192.951 16.798 193.121 16.798C193.431 16.798 193.696 16.733 193.916 16.603C194.146 16.473 194.336 16.293 194.486 16.063C194.636 15.843 194.756 15.603 194.846 15.343L194.981 14.938L191.726 6.80805ZM205.996 6.65805C206.916 6.65805 207.661 7.01805 208.231 7.73805C208.801 8.44805 209.086 9.49805 209.086 10.888C209.086 11.818 208.951 12.603 208.681 13.243C208.411 13.873 208.041 14.348 207.571 14.668C207.101 14.988 206.556 15.148 205.936 15.148C205.546 15.148 205.206 15.098 204.916 14.998C204.636 14.898 204.396 14.768 204.196 14.608C203.996 14.448 203.821 14.278 203.671 14.098H203.551C203.591 14.288 203.621 14.488 203.641 14.698C203.661 14.898 203.671 15.098 203.671 15.298V18.598H201.436V6.80805H203.251L203.566 7.87305H203.671C203.821 7.65305 204.001 7.45305 204.211 7.27305C204.421 7.08305 204.671 6.93305 204.961 6.82305C205.261 6.71305 205.606 6.65805 205.996 6.65805ZM205.276 8.44305C204.886 8.44305 204.576 8.52305 204.346 8.68305C204.116 8.84305 203.946 9.08805 203.836 9.41805C203.736 9.73805 203.681 10.143 203.671 10.633V10.873C203.671 11.403 203.721 11.853 203.821 12.223C203.921 12.583 204.091 12.858 204.331 13.048C204.571 13.238 204.896 13.333 205.306 13.333C205.646 13.333 205.926 13.238 206.146 13.048C206.366 12.858 206.531 12.578 206.641 12.208C206.751 11.838 206.806 11.388 206.806 10.858C206.806 10.058 206.681 9.45805 206.431 9.05805C206.191 8.64805 205.806 8.44305 205.276 8.44305ZM214.303 6.65805C215.063 6.65805 215.713 6.80305 216.253 7.09305C216.803 7.38305 217.228 7.80305 217.528 8.35305C217.828 8.90305 217.978 9.57805 217.978 10.378V11.458H212.698C212.718 12.088 212.903 12.583 213.253 12.943C213.613 13.303 214.108 13.483 214.738 13.483C215.268 13.483 215.748 13.433 216.178 13.333C216.608 13.223 217.053 13.058 217.513 12.838V14.563C217.113 14.763 216.688 14.908 216.238 14.998C215.798 15.098 215.263 15.148 214.633 15.148C213.813 15.148 213.088 14.998 212.458 14.698C211.828 14.388 211.333 13.923 210.973 13.303C210.613 12.683 210.433 11.903 210.433 10.963C210.433 10.003 210.593 9.20805 210.913 8.57805C211.243 7.93805 211.698 7.45805 212.278 7.13805C212.858 6.81805 213.533 6.65805 214.303 6.65805ZM214.318 8.24805C213.888 8.24805 213.528 8.38805 213.238 8.66805C212.958 8.94805 212.793 9.38305 212.743 9.97305H215.878C215.878 9.64305 215.818 9.34805 215.698 9.08805C215.588 8.82805 215.418 8.62305 215.188 8.47305C214.958 8.32305 214.668 8.24805 214.318 8.24805ZM222.025 6.80805V9.95805H225.145V6.80805H227.38V14.998H225.145V11.623H222.025V14.998H219.79V6.80805H222.025ZM231.882 10.048C231.882 10.218 231.872 10.428 231.852 10.678C231.842 10.928 231.827 11.183 231.807 11.443C231.797 11.703 231.782 11.933 231.762 12.133C231.742 12.333 231.727 12.473 231.717 12.553L235.497 6.80805H238.182V14.998H236.022V11.728C236.022 11.458 236.032 11.163 236.052 10.843C236.072 10.513 236.092 10.208 236.112 9.92805C236.142 9.63805 236.162 9.41805 236.172 9.26805L232.407 14.998H229.722V6.80805H231.882V10.048ZM241.763 14.998H239.348L241.553 11.758C241.273 11.638 241.008 11.478 240.758 11.278C240.518 11.068 240.323 10.803 240.173 10.483C240.023 10.163 239.948 9.78305 239.948 9.34305C239.948 8.52305 240.258 7.89805 240.878 7.46805C241.498 7.02805 242.293 6.80805 243.263 6.80805H247.073V14.998H244.838V11.953H243.608L241.763 14.998ZM242.138 9.35805C242.138 9.69805 242.273 9.96805 242.543 10.168C242.813 10.358 243.163 10.453 243.593 10.453H244.838V8.38305H243.308C242.908 8.38305 242.613 8.48305 242.423 8.68305C242.233 8.87305 242.138 9.09805 242.138 9.35805Z" fill="black"/>
<path d="M737.735 560.018V568.838H739.16V573.848H736.97V570.728H730.265V573.848H728.075V568.838H728.9C729.18 568.278 729.45 567.688 729.71 567.068C729.97 566.448 730.21 565.783 730.43 565.073C730.66 564.363 730.865 563.593 731.045 562.763C731.225 561.923 731.375 561.008 731.495 560.018H737.735ZM733.295 561.908C733.225 562.428 733.125 562.983 732.995 563.573C732.865 564.153 732.71 564.748 732.53 565.358C732.36 565.968 732.17 566.568 731.96 567.158C731.75 567.748 731.525 568.308 731.285 568.838H735.47V561.908H733.295ZM742.86 562.538V565.688H745.98V562.538H748.215V570.728H745.98V567.353H742.86V570.728H740.625V562.538H742.86ZM752.717 565.778C752.717 565.948 752.707 566.158 752.687 566.408C752.677 566.658 752.662 566.913 752.642 567.173C752.632 567.433 752.617 567.663 752.597 567.863C752.577 568.063 752.562 568.203 752.552 568.283L756.332 562.538H759.017V570.728H756.857V567.458C756.857 567.188 756.867 566.893 756.887 566.573C756.907 566.243 756.927 565.938 756.947 565.658C756.977 565.368 756.997 565.148 757.007 564.998L753.242 570.728H750.557V562.538H752.717V565.778Z" fill="black"/>
<path d="M7.85965 464.779V464.194L11.7746 460.654C12.6446 459.864 13.2496 459.209 13.5896 458.689C13.9296 458.159 14.0996 457.619 14.0996 457.069C14.0996 456.409 13.8646 455.869 13.3946 455.449C12.9346 455.029 12.3796 454.819 11.7296 454.819C11.0896 454.819 10.5296 454.979 10.0496 455.299C9.57965 455.619 9.11465 456.109 8.65465 456.769L8.06965 456.379C8.56965 455.619 9.09965 455.054 9.65965 454.684C10.2196 454.314 10.9346 454.129 11.8046 454.129C12.6946 454.129 13.4346 454.409 14.0246 454.969C14.6246 455.519 14.9246 456.209 14.9246 457.039C14.9246 457.729 14.7296 458.359 14.3396 458.929C13.9596 459.499 13.2796 460.229 12.2996 461.119L9.08965 464.029H15.0296V464.779H7.85965ZM21.2973 464.959C19.9973 464.959 18.9473 464.434 18.1473 463.384C17.3573 462.324 16.9623 461.039 16.9623 459.529C16.9623 458.559 17.1373 457.664 17.4873 456.844C17.8373 456.024 18.3473 455.364 19.0173 454.864C19.6973 454.354 20.4673 454.099 21.3273 454.099C22.6273 454.099 23.6723 454.629 24.4623 455.689C25.2623 456.739 25.6623 458.019 25.6623 459.529C25.6623 460.499 25.4873 461.394 25.1373 462.214C24.7873 463.034 24.2723 463.699 23.5923 464.209C22.9223 464.709 22.1573 464.959 21.2973 464.959ZM18.7623 462.844C19.4223 463.784 20.2773 464.254 21.3273 464.254C22.3773 464.254 23.2273 463.789 23.8773 462.859C24.5273 461.919 24.8523 460.809 24.8523 459.529C24.8523 458.249 24.5223 457.144 23.8623 456.214C23.2023 455.274 22.3473 454.804 21.2973 454.804C20.2473 454.804 19.3973 455.269 18.7473 456.199C18.0973 457.129 17.7723 458.239 17.7723 459.529C17.7723 460.799 18.1023 461.904 18.7623 462.844ZM28.5567 464.779L36.2667 454.279H37.0767L29.3667 464.779H28.5567ZM35.8467 464.899C35.1767 464.899 34.6267 464.639 34.1967 464.119C33.7667 463.589 33.5517 462.954 33.5517 462.214C33.5517 461.484 33.7667 460.854 34.1967 460.324C34.6367 459.794 35.1967 459.529 35.8767 459.529C36.5467 459.529 37.0967 459.794 37.5267 460.324C37.9567 460.854 38.1717 461.484 38.1717 462.214C38.1717 462.944 37.9517 463.574 37.5117 464.104C37.0817 464.634 36.5267 464.899 35.8467 464.899ZM35.8767 464.254C36.3167 464.254 36.6767 464.059 36.9567 463.669C37.2467 463.279 37.3917 462.794 37.3917 462.214C37.3917 461.634 37.2417 461.149 36.9417 460.759C36.6417 460.369 36.2767 460.174 35.8467 460.174C35.4067 460.174 35.0417 460.374 34.7517 460.774C34.4717 461.164 34.3317 461.644 34.3317 462.214C34.3317 462.794 34.4817 463.279 34.7817 463.669C35.0817 464.059 35.4467 464.254 35.8767 464.254ZM29.7567 459.529C29.0867 459.529 28.5367 459.269 28.1067 458.749C27.6767 458.219 27.4617 457.584 27.4617 456.844C27.4617 456.114 27.6767 455.484 28.1067 454.954C28.5467 454.424 29.1067 454.159 29.7867 454.159C30.4567 454.159 31.0067 454.424 31.4367 454.954C31.8667 455.484 32.0817 456.114 32.0817 456.844C32.0817 457.574 31.8617 458.204 31.4217 458.734C30.9917 459.264 30.4367 459.529 29.7567 459.529ZM29.7867 458.884C30.2267 458.884 30.5867 458.689 30.8667 458.299C31.1567 457.909 31.3017 457.424 31.3017 456.844C31.3017 456.264 31.1517 455.779 30.8517 455.389C30.5517 454.999 30.1867 454.804 29.7567 454.804C29.3167 454.804 28.9517 455.004 28.6617 455.404C28.3817 455.794 28.2417 456.274 28.2417 456.844C28.2417 457.424 28.3917 457.909 28.6917 458.299C28.9917 458.689 29.3567 458.884 29.7867 458.884Z" fill="black"/>
<path d="M12.7014 360.83V358.265H7.01637L6.74637 357.68L12.7464 350.255H13.4514V357.59H15.1614V358.265H13.4514V360.83H12.7014ZM7.69137 357.59H12.7014V351.38L7.69137 357.59ZM21.2973 361.01C19.9973 361.01 18.9473 360.485 18.1473 359.435C17.3573 358.375 16.9623 357.09 16.9623 355.58C16.9623 354.61 17.1373 353.715 17.4873 352.895C17.8373 352.075 18.3473 351.415 19.0173 350.915C19.6973 350.405 20.4673 350.15 21.3273 350.15C22.6273 350.15 23.6723 350.68 24.4623 351.74C25.2623 352.79 25.6623 354.07 25.6623 355.58C25.6623 356.55 25.4873 357.445 25.1373 358.265C24.7873 359.085 24.2723 359.75 23.5923 360.26C22.9223 360.76 22.1573 361.01 21.2973 361.01ZM18.7623 358.895C19.4223 359.835 20.2773 360.305 21.3273 360.305C22.3773 360.305 23.2273 359.84 23.8773 358.91C24.5273 357.97 24.8523 356.86 24.8523 355.58C24.8523 354.3 24.5223 353.195 23.8623 352.265C23.2023 351.325 22.3473 350.855 21.2973 350.855C20.2473 350.855 19.3973 351.32 18.7473 352.25C18.0973 353.18 17.7723 354.29 17.7723 355.58C17.7723 356.85 18.1023 357.955 18.7623 358.895ZM28.5567 360.83L36.2667 350.33H37.0767L29.3667 360.83H28.5567ZM35.8467 360.95C35.1767 360.95 34.6267 360.69 34.1967 360.17C33.7667 359.64 33.5517 359.005 33.5517 358.265C33.5517 357.535 33.7667 356.905 34.1967 356.375C34.6367 355.845 35.1967 355.58 35.8767 355.58C36.5467 355.58 37.0967 355.845 37.5267 356.375C37.9567 356.905 38.1717 357.535 38.1717 358.265C38.1717 358.995 37.9517 359.625 37.5117 360.155C37.0817 360.685 36.5267 360.95 35.8467 360.95ZM35.8767 360.305C36.3167 360.305 36.6767 360.11 36.9567 359.72C37.2467 359.33 37.3917 358.845 37.3917 358.265C37.3917 357.685 37.2417 357.2 36.9417 356.81C36.6417 356.42 36.2767 356.225 35.8467 356.225C35.4067 356.225 35.0417 356.425 34.7517 356.825C34.4717 357.215 34.3317 357.695 34.3317 358.265C34.3317 358.845 34.4817 359.33 34.7817 359.72C35.0817 360.11 35.4467 360.305 35.8767 360.305ZM29.7567 355.58C29.0867 355.58 28.5367 355.32 28.1067 354.8C27.6767 354.27 27.4617 353.635 27.4617 352.895C27.4617 352.165 27.6767 351.535 28.1067 351.005C28.5467 350.475 29.1067 350.21 29.7867 350.21C30.4567 350.21 31.0067 350.475 31.4367 351.005C31.8667 351.535 32.0817 352.165 32.0817 352.895C32.0817 353.625 31.8617 354.255 31.4217 354.785C30.9917 355.315 30.4367 355.58 29.7567 355.58ZM29.7867 354.935C30.2267 354.935 30.5867 354.74 30.8667 354.35C31.1567 353.96 31.3017 353.475 31.3017 352.895C31.3017 352.315 31.1517 351.83 30.8517 351.44C30.5517 351.05 30.1867 350.855 29.7567 350.855C29.3167 350.855 28.9517 351.055 28.6617 351.455C28.3817 351.845 28.2417 352.325 28.2417 352.895C28.2417 353.475 28.3917 353.96 28.6917 354.35C28.9917 354.74 29.3567 354.935 29.7867 354.935Z" fill="black"/>
<path d="M11.3283 257.061C10.2483 257.061 9.35828 256.711 8.65828 256.011C8.19828 255.551 7.85828 255.011 7.63828 254.391C7.42828 253.771 7.32328 252.936 7.32328 251.886C7.32328 250.266 7.71328 248.916 8.49328 247.836C9.28328 246.746 10.3183 246.201 11.5983 246.201C12.6283 246.201 13.6383 246.606 14.6283 247.416L14.1333 248.016C13.3033 247.276 12.4383 246.906 11.5383 246.906C10.5083 246.906 9.67828 247.386 9.04828 248.346C8.41828 249.306 8.10328 250.556 8.10328 252.096V252.351C8.86328 251.051 9.95828 250.401 11.3883 250.401C12.3683 250.401 13.2133 250.706 13.9233 251.316C14.6433 251.916 15.0033 252.681 15.0033 253.611C15.0033 254.601 14.6483 255.426 13.9383 256.086C13.2383 256.736 12.3683 257.061 11.3283 257.061ZM11.3883 256.356C12.2183 256.356 12.8933 256.091 13.4133 255.561C13.9333 255.031 14.1933 254.381 14.1933 253.611C14.1933 252.891 13.9233 252.291 13.3833 251.811C12.8533 251.331 12.1733 251.091 11.3433 251.091C10.5133 251.091 9.81828 251.356 9.25828 251.886C8.69828 252.416 8.41828 253.026 8.41828 253.716C8.41828 254.466 8.69828 255.096 9.25828 255.606C9.82828 256.106 10.5383 256.356 11.3883 256.356ZM21.2973 257.061C19.9973 257.061 18.9473 256.536 18.1473 255.486C17.3573 254.426 16.9623 253.141 16.9623 251.631C16.9623 250.661 17.1373 249.766 17.4873 248.946C17.8373 248.126 18.3473 247.466 19.0173 246.966C19.6973 246.456 20.4673 246.201 21.3273 246.201C22.6273 246.201 23.6723 246.731 24.4623 247.791C25.2623 248.841 25.6623 250.121 25.6623 251.631C25.6623 252.601 25.4873 253.496 25.1373 254.316C24.7873 255.136 24.2723 255.801 23.5923 256.311C22.9223 256.811 22.1573 257.061 21.2973 257.061ZM18.7623 254.946C19.4223 255.886 20.2773 256.356 21.3273 256.356C22.3773 256.356 23.2273 255.891 23.8773 254.961C24.5273 254.021 24.8523 252.911 24.8523 251.631C24.8523 250.351 24.5223 249.246 23.8623 248.316C23.2023 247.376 22.3473 246.906 21.2973 246.906C20.2473 246.906 19.3973 247.371 18.7473 248.301C18.0973 249.231 17.7723 250.341 17.7723 251.631C17.7723 252.901 18.1023 254.006 18.7623 254.946ZM28.5567 256.881L36.2667 246.381H37.0767L29.3667 256.881H28.5567ZM35.8467 257.001C35.1767 257.001 34.6267 256.741 34.1967 256.221C33.7667 255.691 33.5517 255.056 33.5517 254.316C33.5517 253.586 33.7667 252.956 34.1967 252.426C34.6367 251.896 35.1967 251.631 35.8767 251.631C36.5467 251.631 37.0967 251.896 37.5267 252.426C37.9567 252.956 38.1717 253.586 38.1717 254.316C38.1717 255.046 37.9517 255.676 37.5117 256.206C37.0817 256.736 36.5267 257.001 35.8467 257.001ZM35.8767 256.356C36.3167 256.356 36.6767 256.161 36.9567 255.771C37.2467 255.381 37.3917 254.896 37.3917 254.316C37.3917 253.736 37.2417 253.251 36.9417 252.861C36.6417 252.471 36.2767 252.276 35.8467 252.276C35.4067 252.276 35.0417 252.476 34.7517 252.876C34.4717 253.266 34.3317 253.746 34.3317 254.316C34.3317 254.896 34.4817 255.381 34.7817 255.771C35.0817 256.161 35.4467 256.356 35.8767 256.356ZM29.7567 251.631C29.0867 251.631 28.5367 251.371 28.1067 250.851C27.6767 250.321 27.4617 249.686 27.4617 248.946C27.4617 248.216 27.6767 247.586 28.1067 247.056C28.5467 246.526 29.1067 246.261 29.7867 246.261C30.4567 246.261 31.0067 246.526 31.4367 247.056C31.8667 247.586 32.0817 248.216 32.0817 248.946C32.0817 249.676 31.8617 250.306 31.4217 250.836C30.9917 251.366 30.4367 251.631 29.7567 251.631ZM29.7867 250.986C30.2267 250.986 30.5867 250.791 30.8667 250.401C31.1567 250.011 31.3017 249.526 31.3017 248.946C31.3017 248.366 31.1517 247.881 30.8517 247.491C30.5517 247.101 30.1867 246.906 29.7567 246.906C29.3167 246.906 28.9517 247.106 28.6617 247.506C28.3817 247.896 28.2417 248.376 28.2417 248.946C28.2417 249.526 28.3917 250.011 28.6917 250.401C28.9917 250.791 29.3567 250.986 29.7867 250.986Z" fill="black"/>
<path d="M11.2641 153.082C10.1441 153.082 9.21406 152.807 8.47406 152.257C7.73406 151.697 7.36406 150.977 7.36406 150.097C7.36406 149.507 7.57906 148.987 8.00906 148.537C8.43906 148.077 8.99906 147.732 9.68906 147.502C8.37906 146.972 7.72406 146.147 7.72406 145.027C7.72406 144.237 8.07906 143.582 8.78906 143.062C9.49906 142.542 10.3241 142.282 11.2641 142.282C12.2041 142.282 13.0291 142.542 13.7391 143.062C14.4491 143.582 14.8041 144.247 14.8041 145.057C14.8041 146.157 14.1491 146.972 12.8391 147.502C13.5291 147.732 14.0891 148.077 14.5191 148.537C14.9491 148.987 15.1641 149.517 15.1641 150.127C15.1641 150.987 14.7891 151.697 14.0391 152.257C13.2991 152.807 12.3741 153.082 11.2641 153.082ZM9.01406 151.732C9.57406 152.162 10.3241 152.377 11.2641 152.377C12.2041 152.377 12.9541 152.162 13.5141 151.732C14.0741 151.292 14.3541 150.757 14.3541 150.127C14.3541 149.477 14.0541 148.942 13.4541 148.522C12.8541 148.092 12.1241 147.877 11.2641 147.877C10.3941 147.877 9.65906 148.092 9.05906 148.522C8.46906 148.952 8.17406 149.497 8.17406 150.157C8.17406 150.777 8.45406 151.302 9.01406 151.732ZM9.32906 146.617C9.85906 147.017 10.5041 147.217 11.2641 147.217C12.0241 147.217 12.6691 147.017 13.1991 146.617C13.7291 146.207 13.9941 145.677 13.9941 145.027C13.9941 144.437 13.7291 143.952 13.1991 143.572C12.6791 143.182 12.0341 142.987 11.2641 142.987C10.4941 142.987 9.84406 143.182 9.31406 143.572C8.79406 143.962 8.53406 144.457 8.53406 145.057C8.53406 145.687 8.79906 146.207 9.32906 146.617ZM21.2973 153.112C19.9973 153.112 18.9473 152.587 18.1473 151.537C17.3573 150.477 16.9623 149.192 16.9623 147.682C16.9623 146.712 17.1373 145.817 17.4873 144.997C17.8373 144.177 18.3473 143.517 19.0173 143.017C19.6973 142.507 20.4673 142.252 21.3273 142.252C22.6273 142.252 23.6723 142.782 24.4623 143.842C25.2623 144.892 25.6623 146.172 25.6623 147.682C25.6623 148.652 25.4873 149.547 25.1373 150.367C24.7873 151.187 24.2723 151.852 23.5923 152.362C22.9223 152.862 22.1573 153.112 21.2973 153.112ZM18.7623 150.997C19.4223 151.937 20.2773 152.407 21.3273 152.407C22.3773 152.407 23.2273 151.942 23.8773 151.012C24.5273 150.072 24.8523 148.962 24.8523 147.682C24.8523 146.402 24.5223 145.297 23.8623 144.367C23.2023 143.427 22.3473 142.957 21.2973 142.957C20.2473 142.957 19.3973 143.422 18.7473 144.352C18.0973 145.282 17.7723 146.392 17.7723 147.682C17.7723 148.952 18.1023 150.057 18.7623 150.997ZM28.5567 152.932L36.2667 142.432H37.0767L29.3667 152.932H28.5567ZM35.8467 153.052C35.1767 153.052 34.6267 152.792 34.1967 152.272C33.7667 151.742 33.5517 151.107 33.5517 150.367C33.5517 149.637 33.7667 149.007 34.1967 148.477C34.6367 147.947 35.1967 147.682 35.8767 147.682C36.5467 147.682 37.0967 147.947 37.5267 148.477C37.9567 149.007 38.1717 149.637 38.1717 150.367C38.1717 151.097 37.9517 151.727 37.5117 152.257C37.0817 152.787 36.5267 153.052 35.8467 153.052ZM35.8767 152.407C36.3167 152.407 36.6767 152.212 36.9567 151.822C37.2467 151.432 37.3917 150.947 37.3917 150.367C37.3917 149.787 37.2417 149.302 36.9417 148.912C36.6417 148.522 36.2767 148.327 35.8467 148.327C35.4067 148.327 35.0417 148.527 34.7517 148.927C34.4717 149.317 34.3317 149.797 34.3317 150.367C34.3317 150.947 34.4817 151.432 34.7817 151.822C35.0817 152.212 35.4467 152.407 35.8767 152.407ZM29.7567 147.682C29.0867 147.682 28.5367 147.422 28.1067 146.902C27.6767 146.372 27.4617 145.737 27.4617 144.997C27.4617 144.267 27.6767 143.637 28.1067 143.107C28.5467 142.577 29.1067 142.312 29.7867 142.312C30.4567 142.312 31.0067 142.577 31.4367 143.107C31.8667 143.637 32.0817 144.267 32.0817 144.997C32.0817 145.727 31.8617 146.357 31.4217 146.887C30.9917 147.417 30.4367 147.682 29.7567 147.682ZM29.7867 147.037C30.2267 147.037 30.5867 146.842 30.8667 146.452C31.1567 146.062 31.3017 145.577 31.3017 144.997C31.3017 144.417 31.1517 143.932 30.8517 143.542C30.5517 143.152 30.1867 142.957 29.7567 142.957C29.3167 142.957 28.9517 143.157 28.6617 143.557C28.3817 143.947 28.2417 144.427 28.2417 144.997C28.2417 145.577 28.3917 146.062 28.6917 146.452C28.9917 146.842 29.3567 147.037 29.7867 147.037Z" fill="black"/>
<path d="M2.99848 48.9824V39.2174L0.973477 39.9074L0.763477 39.2924L3.16348 38.4074H3.76348V48.9824H2.99848ZM10.6479 49.1624C9.34789 49.1624 8.29789 48.6374 7.49789 47.5874C6.70789 46.5274 6.31289 45.2424 6.31289 43.7324C6.31289 42.7624 6.48789 41.8674 6.83789 41.0474C7.18789 40.2274 7.69789 39.5674 8.36789 39.0674C9.04789 38.5574 9.81789 38.3024 10.6779 38.3024C11.9779 38.3024 13.0229 38.8324 13.8129 39.8924C14.6129 40.9424 15.0129 42.2224 15.0129 43.7324C15.0129 44.7024 14.8379 45.5974 14.4879 46.4174C14.1379 47.2374 13.6229 47.9024 12.9429 48.4124C12.2729 48.9124 11.5079 49.1624 10.6479 49.1624ZM8.11289 47.0474C8.77289 47.9874 9.62789 48.4574 10.6779 48.4574C11.7279 48.4574 12.5779 47.9924 13.2279 47.0624C13.8779 46.1224 14.2029 45.0124 14.2029 43.7324C14.2029 42.4524 13.8729 41.3474 13.2129 40.4174C12.5529 39.4774 11.6979 39.0074 10.6479 39.0074C9.59789 39.0074 8.74789 39.4724 8.09789 40.4024C7.44789 41.3324 7.12289 42.4424 7.12289 43.7324C7.12289 45.0024 7.45289 46.1074 8.11289 47.0474ZM21.2973 49.1624C19.9973 49.1624 18.9473 48.6374 18.1473 47.5874C17.3573 46.5274 16.9623 45.2424 16.9623 43.7324C16.9623 42.7624 17.1373 41.8674 17.4873 41.0474C17.8373 40.2274 18.3473 39.5674 19.0173 39.0674C19.6973 38.5574 20.4673 38.3024 21.3273 38.3024C22.6273 38.3024 23.6723 38.8324 24.4623 39.8924C25.2623 40.9424 25.6623 42.2224 25.6623 43.7324C25.6623 44.7024 25.4873 45.5974 25.1373 46.4174C24.7873 47.2374 24.2723 47.9024 23.5923 48.4124C22.9223 48.9124 22.1573 49.1624 21.2973 49.1624ZM18.7623 47.0474C19.4223 47.9874 20.2773 48.4574 21.3273 48.4574C22.3773 48.4574 23.2273 47.9924 23.8773 47.0624C24.5273 46.1224 24.8523 45.0124 24.8523 43.7324C24.8523 42.4524 24.5223 41.3474 23.8623 40.4174C23.2023 39.4774 22.3473 39.0074 21.2973 39.0074C20.2473 39.0074 19.3973 39.4724 18.7473 40.4024C18.0973 41.3324 17.7723 42.4424 17.7723 43.7324C17.7723 45.0024 18.1023 46.1074 18.7623 47.0474ZM28.5567 48.9824L36.2667 38.4824H37.0767L29.3667 48.9824H28.5567ZM35.8467 49.1024C35.1767 49.1024 34.6267 48.8424 34.1967 48.3224C33.7667 47.7924 33.5517 47.1574 33.5517 46.4174C33.5517 45.6874 33.7667 45.0574 34.1967 44.5274C34.6367 43.9974 35.1967 43.7324 35.8767 43.7324C36.5467 43.7324 37.0967 43.9974 37.5267 44.5274C37.9567 45.0574 38.1717 45.6874 38.1717 46.4174C38.1717 47.1474 37.9517 47.7774 37.5117 48.3074C37.0817 48.8374 36.5267 49.1024 35.8467 49.1024ZM35.8767 48.4574C36.3167 48.4574 36.6767 48.2624 36.9567 47.8724C37.2467 47.4824 37.3917 46.9974 37.3917 46.4174C37.3917 45.8374 37.2417 45.3524 36.9417 44.9624C36.6417 44.5724 36.2767 44.3774 35.8467 44.3774C35.4067 44.3774 35.0417 44.5774 34.7517 44.9774C34.4717 45.3674 34.3317 45.8474 34.3317 46.4174C34.3317 46.9974 34.4817 47.4824 34.7817 47.8724C35.0817 48.2624 35.4467 48.4574 35.8767 48.4574ZM29.7567 43.7324C29.0867 43.7324 28.5367 43.4724 28.1067 42.9524C27.6767 42.4224 27.4617 41.7874 27.4617 41.0474C27.4617 40.3174 27.6767 39.6874 28.1067 39.1574C28.5467 38.6274 29.1067 38.3624 29.7867 38.3624C30.4567 38.3624 31.0067 38.6274 31.4367 39.1574C31.8667 39.6874 32.0817 40.3174 32.0817 41.0474C32.0817 41.7774 31.8617 42.4074 31.4217 42.9374C30.9917 43.4674 30.4367 43.7324 29.7567 43.7324ZM29.7867 43.0874C30.2267 43.0874 30.5867 42.8924 30.8667 42.5024C31.1567 42.1124 31.3017 41.6274 31.3017 41.0474C31.3017 40.4674 31.1517 39.9824 30.8517 39.5924C30.5517 39.2024 30.1867 39.0074 29.7567 39.0074C29.3167 39.0074 28.9517 39.2074 28.6617 39.6074C28.3817 39.9974 28.2417 40.4774 28.2417 41.0474C28.2417 41.6274 28.3917 42.1124 28.6917 42.5024C28.9917 42.8924 29.3567 43.0874 29.7867 43.0874Z" fill="black"/>
<path d="M33.6606 568.909C32.3606 568.909 31.3106 568.384 30.5106 567.334C29.7206 566.274 29.3256 564.989 29.3256 563.479C29.3256 562.509 29.5006 561.614 29.8506 560.794C30.2006 559.974 30.7106 559.314 31.3806 558.814C32.0606 558.304 32.8306 558.049 33.6906 558.049C34.9906 558.049 36.0356 558.579 36.8256 559.639C37.6256 560.689 38.0256 561.969 38.0256 563.479C38.0256 564.449 37.8506 565.344 37.5006 566.164C37.1506 566.984 36.6356 567.649 35.9556 568.159C35.2856 568.659 34.5206 568.909 33.6606 568.909ZM31.1256 566.794C31.7856 567.734 32.6406 568.204 33.6906 568.204C34.7406 568.204 35.5906 567.739 36.2406 566.809C36.8906 565.869 37.2156 564.759 37.2156 563.479C37.2156 562.199 36.8856 561.094 36.2256 560.164C35.5656 559.224 34.7106 558.754 33.6606 558.754C32.6106 558.754 31.7606 559.219 31.1106 560.149C30.4606 561.079 30.1356 562.189 30.1356 563.479C30.1356 564.749 30.4656 565.854 31.1256 566.794Z" fill="black"/>
<path d="M146.407 600.008V590.243L144.382 590.933L144.172 590.318L146.572 589.433H147.172V600.008H146.407ZM154.056 600.188C152.756 600.188 151.706 599.663 150.906 598.613C150.116 597.553 149.721 596.268 149.721 594.758C149.721 593.788 149.896 592.893 150.246 592.073C150.596 591.253 151.106 590.593 151.776 590.093C152.456 589.583 153.226 589.328 154.086 589.328C155.386 589.328 156.431 589.858 157.221 590.918C158.021 591.968 158.421 593.248 158.421 594.758C158.421 595.728 158.246 596.623 157.896 597.443C157.546 598.263 157.031 598.928 156.351 599.438C155.681 599.938 154.916 600.188 154.056 600.188ZM151.521 598.073C152.181 599.013 153.036 599.483 154.086 599.483C155.136 599.483 155.986 599.018 156.636 598.088C157.286 597.148 157.611 596.038 157.611 594.758C157.611 593.478 157.281 592.373 156.621 591.443C155.961 590.503 155.106 590.033 154.056 590.033C153.006 590.033 152.156 590.498 151.506 591.428C150.856 592.358 150.531 593.468 150.531 594.758C150.531 596.028 150.861 597.133 151.521 598.073Z" fill="black"/>
<path d="M239.959 600.008V599.423L243.874 595.883C244.744 595.093 245.349 594.438 245.689 593.918C246.029 593.388 246.199 592.848 246.199 592.298C246.199 591.638 245.964 591.098 245.494 590.678C245.034 590.258 244.479 590.048 243.829 590.048C243.189 590.048 242.629 590.208 242.149 590.528C241.679 590.848 241.214 591.338 240.754 591.998L240.169 591.608C240.669 590.848 241.199 590.283 241.759 589.913C242.319 589.543 243.034 589.358 243.904 589.358C244.794 589.358 245.534 589.638 246.124 590.198C246.724 590.748 247.024 591.438 247.024 592.268C247.024 592.958 246.829 593.588 246.439 594.158C246.059 594.728 245.379 595.458 244.399 596.348L241.189 599.258H247.129V600.008H239.959ZM253.397 600.188C252.097 600.188 251.047 599.663 250.247 598.613C249.457 597.553 249.062 596.268 249.062 594.758C249.062 593.788 249.237 592.893 249.587 592.073C249.937 591.253 250.447 590.593 251.117 590.093C251.797 589.583 252.567 589.328 253.427 589.328C254.727 589.328 255.772 589.858 256.562 590.918C257.362 591.968 257.762 593.248 257.762 594.758C257.762 595.728 257.587 596.623 257.237 597.443C256.887 598.263 256.372 598.928 255.692 599.438C255.022 599.938 254.257 600.188 253.397 600.188ZM250.862 598.073C251.522 599.013 252.377 599.483 253.427 599.483C254.477 599.483 255.327 599.018 255.977 598.088C256.627 597.148 256.952 596.038 256.952 594.758C256.952 593.478 256.622 592.373 255.962 591.443C255.302 590.503 254.447 590.033 253.397 590.033C252.347 590.033 251.497 590.498 250.847 591.428C250.197 592.358 249.872 593.468 249.872 594.758C249.872 596.028 250.202 597.133 250.862 598.073Z" fill="black"/>
<path d="M339.426 600.188C337.826 600.188 336.541 599.558 335.571 598.298L336.171 597.803C337.051 598.923 338.141 599.483 339.441 599.483C340.171 599.483 340.786 599.263 341.286 598.823C341.786 598.383 342.036 597.818 342.036 597.128C342.036 596.408 341.731 595.848 341.121 595.448C340.521 595.048 339.736 594.848 338.766 594.848H338.196L338.001 594.413L341.616 590.243H336.111V589.508H342.681V590.063L339.126 594.128C339.596 594.158 340.036 594.238 340.446 594.368C340.866 594.488 341.261 594.663 341.631 594.893C342.001 595.113 342.296 595.418 342.516 595.808C342.736 596.188 342.846 596.628 342.846 597.128C342.846 598.018 342.506 598.753 341.826 599.333C341.156 599.903 340.356 600.188 339.426 600.188ZM349.226 600.188C347.926 600.188 346.876 599.663 346.076 598.613C345.286 597.553 344.891 596.268 344.891 594.758C344.891 593.788 345.066 592.893 345.416 592.073C345.766 591.253 346.276 590.593 346.946 590.093C347.626 589.583 348.396 589.328 349.256 589.328C350.556 589.328 351.601 589.858 352.391 590.918C353.191 591.968 353.591 593.248 353.591 594.758C353.591 595.728 353.416 596.623 353.066 597.443C352.716 598.263 352.201 598.928 351.521 599.438C350.851 599.938 350.086 600.188 349.226 600.188ZM346.691 598.073C347.351 599.013 348.206 599.483 349.256 599.483C350.306 599.483 351.156 599.018 351.806 598.088C352.456 597.148 352.781 596.038 352.781 594.758C352.781 593.478 352.451 592.373 351.791 591.443C351.131 590.503 350.276 590.033 349.226 590.033C348.176 590.033 347.326 590.498 346.676 591.428C346.026 592.358 345.701 593.468 345.701 594.758C345.701 596.028 346.031 597.133 346.691 598.073Z" fill="black"/>
<path d="M436.953 600.008V597.443H431.268L430.998 596.858L436.998 589.433H437.703V596.768H439.413V597.443H437.703V600.008H436.953ZM431.943 596.768H436.953V590.558L431.943 596.768ZM445.549 600.188C444.249 600.188 443.199 599.663 442.399 598.613C441.609 597.553 441.214 596.268 441.214 594.758C441.214 593.788 441.389 592.893 441.739 592.073C442.089 591.253 442.599 590.593 443.269 590.093C443.949 589.583 444.719 589.328 445.579 589.328C446.879 589.328 447.924 589.858 448.714 590.918C449.514 591.968 449.914 593.248 449.914 594.758C449.914 595.728 449.739 596.623 449.389 597.443C449.039 598.263 448.524 598.928 447.844 599.438C447.174 599.938 446.409 600.188 445.549 600.188ZM443.014 598.073C443.674 599.013 444.529 599.483 445.579 599.483C446.629 599.483 447.479 599.018 448.129 598.088C448.779 597.148 449.104 596.038 449.104 594.758C449.104 593.478 448.774 592.373 448.114 591.443C447.454 590.503 446.599 590.033 445.549 590.033C444.499 590.033 443.649 590.498 442.999 591.428C442.349 592.358 442.024 593.468 442.024 594.758C442.024 596.028 442.354 597.133 443.014 598.073Z" fill="black"/>
<path d="M530.329 600.188C529.649 600.188 528.989 600.033 528.349 599.723C527.709 599.403 527.144 598.993 526.654 598.493L527.209 597.938C528.239 598.968 529.289 599.483 530.359 599.483C531.179 599.483 531.854 599.228 532.384 598.718C532.914 598.208 533.179 597.573 533.179 596.813C533.179 596.083 532.909 595.488 532.369 595.028C531.839 594.558 531.149 594.323 530.299 594.323C529.529 594.323 528.739 594.543 527.929 594.983L527.329 594.593L527.629 589.508H533.524V590.258H528.319L528.064 594.188C528.844 593.808 529.619 593.618 530.389 593.618C531.419 593.618 532.274 593.918 532.954 594.518C533.644 595.108 533.989 595.873 533.989 596.813C533.989 597.803 533.644 598.613 532.954 599.243C532.264 599.873 531.389 600.188 530.329 600.188ZM540.191 600.188C538.891 600.188 537.841 599.663 537.041 598.613C536.251 597.553 535.856 596.268 535.856 594.758C535.856 593.788 536.031 592.893 536.381 592.073C536.731 591.253 537.241 590.593 537.911 590.093C538.591 589.583 539.361 589.328 540.221 589.328C541.521 589.328 542.566 589.858 543.356 590.918C544.156 591.968 544.556 593.248 544.556 594.758C544.556 595.728 544.381 596.623 544.031 597.443C543.681 598.263 543.166 598.928 542.486 599.438C541.816 599.938 541.051 600.188 540.191 600.188ZM537.656 598.073C538.316 599.013 539.171 599.483 540.221 599.483C541.271 599.483 542.121 599.018 542.771 598.088C543.421 597.148 543.746 596.038 543.746 594.758C543.746 593.478 543.416 592.373 542.756 591.443C542.096 590.503 541.241 590.033 540.191 590.033C539.141 590.033 538.291 590.498 537.641 591.428C536.991 592.358 536.666 593.468 536.666 594.758C536.666 596.028 536.996 597.133 537.656 598.073Z" fill="black"/>
<path d="M625.965 599.894C624.885 599.894 623.995 599.544 623.295 598.844C622.835 598.384 622.495 597.844 622.275 597.224C622.065 596.604 621.96 595.769 621.96 594.719C621.96 593.099 622.35 591.749 623.13 590.669C623.92 589.579 624.955 589.034 626.235 589.034C627.265 589.034 628.275 589.439 629.265 590.249L628.77 590.849C627.94 590.109 627.075 589.739 626.175 589.739C625.145 589.739 624.315 590.219 623.685 591.179C623.055 592.139 622.74 593.389 622.74 594.929V595.184C623.5 593.884 624.595 593.234 626.025 593.234C627.005 593.234 627.85 593.539 628.56 594.149C629.28 594.749 629.64 595.514 629.64 596.444C629.64 597.434 629.285 598.259 628.575 598.919C627.875 599.569 627.005 599.894 625.965 599.894ZM626.025 599.189C626.855 599.189 627.53 598.924 628.05 598.394C628.57 597.864 628.83 597.214 628.83 596.444C628.83 595.724 628.56 595.124 628.02 594.644C627.49 594.164 626.81 593.924 625.98 593.924C625.15 593.924 624.455 594.189 623.895 594.719C623.335 595.249 623.055 595.859 623.055 596.549C623.055 597.299 623.335 597.929 623.895 598.439C624.465 598.939 625.175 599.189 626.025 599.189ZM635.934 599.894C634.634 599.894 633.584 599.369 632.784 598.319C631.994 597.259 631.599 595.974 631.599 594.464C631.599 593.494 631.774 592.599 632.124 591.779C632.474 590.959 632.984 590.299 633.654 589.799C634.334 589.289 635.104 589.034 635.964 589.034C637.264 589.034 638.309 589.564 639.099 590.624C639.899 591.674 640.299 592.954 640.299 594.464C640.299 595.434 640.124 596.329 639.774 597.149C639.424 597.969 638.909 598.634 638.229 599.144C637.559 599.644 636.794 599.894 635.934 599.894ZM633.399 597.779C634.059 598.719 634.914 599.189 635.964 599.189C637.014 599.189 637.864 598.724 638.514 597.794C639.164 596.854 639.489 595.744 639.489 594.464C639.489 593.184 639.159 592.079 638.499 591.149C637.839 590.209 636.984 589.739 635.934 589.739C634.884 589.739 634.034 590.204 633.384 591.134C632.734 592.064 632.409 593.174 632.409 594.464C632.409 595.734 632.739 596.839 633.399 597.779Z" fill="black"/>
<path d="M59.1641 94.3408C84.2168 176.51 92.0462 238.838 199.31 299.373C374.986 398.516 664.901 402.41 706.659 407.367" stroke="#8BD3F7" stroke-opacity="0.5" stroke-width="4" stroke-linecap="round"/>
<path d="M59.9463 93.5576C87.6104 157.989 255.213 293.738 704.31 321.284" stroke="#8FD9C5" stroke-opacity="0.5" stroke-width="4" stroke-linecap="round"/>
<path d="M59.5 94.498C150.322 239.273 416.499 446.964 709.008 470.754" stroke="#C8BB93" stroke-width="5" stroke-linecap="round"/>
</svg>
