<svg width="68" height="51" fill="none" xmlns="http://www.w3.org/2000/svg"><path d="M21.909 51.328c13.062 0 21.614-11.501 21.614-25.478h-1c0 13.623-8.284 24.478-20.614 24.478v1zM43.523 25.85c0-14.113-8.482-25.478-21.476-25.478v1c12.26 0 20.476 10.715 20.476 24.478h1zM22.047.372C8.985.372.433 11.873.433 25.85h1c0-13.623 8.284-24.478 20.614-24.478v-1zM.433 25.85c0 14.112 8.412 25.478 21.476 25.478v-1c-12.328 0-20.476-10.714-20.476-24.478h-1zm21.614 16.819c-3.565 0-6.51-1.84-8.583-4.871-2.08-3.04-3.268-7.265-3.268-11.948h-1c0 4.839 1.226 9.273 3.442 12.512 2.223 3.25 5.453 5.307 9.409 5.307v-1zM10.196 25.85c0-4.79 1.173-9.015 3.225-12.026 2.045-3.002 4.955-4.793 8.488-4.793v-1c-3.919 0-7.116 2.004-9.314 5.23-2.191 3.215-3.399 7.65-3.399 12.589h1zM21.909 9.031c3.53 0 6.475 1.84 8.558 4.872 2.088 3.04 3.293 7.265 3.293 11.947h1c0-4.84-1.244-9.274-3.469-12.513-2.23-3.247-5.46-5.306-9.382-5.306v1zM33.76 25.85c0 4.756-1.156 8.981-3.2 12.002-2.037 3.01-4.946 4.817-8.513 4.817v1c3.954 0 7.151-2.022 9.341-5.257 2.182-3.224 3.372-7.658 3.372-12.562h-1zM59.213 50h-.5v.5h.5V50zm8.418 0v.5h.5V50h-.5zm0-48.645h.5v-.5h-.5v.5zm-5.934 0v-.5h-.078l-.074.024.152.476zm-12.972 4.14l-.152-.476-.451.144.119.458.484-.126zm1.794 6.9l-.484.126.128.492.49-.136-.134-.482zm8.694-2.415h.5v-.658l-.634.176.134.482zm0 40.52h8.418v-1h-8.418v1zm8.918-.5V1.355h-1V50h1zM67.63.855h-5.934v1h5.934v-1zm-6.086.024l-12.972 4.14.304.952 12.972-4.14-.304-.952zM48.24 5.62l1.794 6.9.968-.252-1.794-6.9-.968.252zm2.412 7.256l8.694-2.415-.268-.964-8.694 2.415.268.964zm8.06-2.897V50h1V9.98h-1z" fill="#000"/></svg>