<svg width="85" height="51" fill="none" xmlns="http://www.w3.org/2000/svg"><path d="M6.729 43.721l-.389.314.002.002.387-.316zm.069-35.604L6.411 7.8l.387.317zm30.36-.069l-.389.314.002.002.387-.316zm-.069 35.604l-.387-.317.387.317zm-24.012-5.451l-.415.279.004.006.411-.285zm17.802.069l-.413-.281-.001.001.414.28zm-.069-24.702l-.412.283.001.002.411-.285zm-17.802-.069l-.413-.281-.001.001.414.28zm8.901 36.829c-6.11 0-11.026-2.305-14.793-6.923l-.774.632c3.961 4.858 9.165 7.291 15.567 7.291v-1zM7.118 43.407C3.337 38.726 1.433 32.885 1.433 25.85h-1c0 7.225 1.96 13.298 5.907 18.185l.778-.628zM1.433 25.85c0-6.94 1.925-12.734 5.752-17.417l-.774-.632C2.418 12.686.433 18.714.433 25.85h1zM7.185 8.434c3.861-4.715 8.803-7.062 14.862-7.062v-1c-6.36 0-11.585 2.483-15.636 7.428l.774.634zm14.862-7.062c6.06 0 10.954 2.325 14.722 6.99l.778-.628c-3.96-4.903-9.14-7.362-15.5-7.362v1zm14.724 6.992c3.826 4.682 5.752 10.5 5.752 17.486h1c0-7.181-1.984-13.232-5.978-18.118l-.774.632zm5.752 17.486c0 6.938-1.947 12.756-5.82 17.485l.773.634c4.038-4.93 6.047-10.981 6.047-18.119h-1zm-5.821 17.486c-3.815 4.667-8.732 6.992-14.793 6.992v1c6.36 0 11.562-2.459 15.567-7.36l-.774-.632zm-24.036-4.85c2.383 3.432 5.52 5.183 9.381 5.183v-1c-3.499 0-6.342-1.56-8.56-4.753l-.82.57zm9.381 5.183c3.86 0 6.953-1.727 9.246-5.119l-.828-.56c-2.123 3.14-4.918 4.679-8.418 4.679v1zm9.245-5.118c2.323-3.413 3.468-7.657 3.468-12.701h-1c0 4.892-1.11 8.928-3.294 12.139l.826.562zM34.76 25.85c0-4.956-1.17-9.155-3.54-12.567l-.82.57c2.23 3.212 3.36 7.201 3.36 11.997h1zm-3.537-12.565c-2.38-3.475-5.493-5.254-9.314-5.254v1c3.447 0 6.269 1.579 8.489 4.82l.825-.566zm-9.314-5.254c-3.862 0-6.977 1.752-9.314 5.187l.826.562c2.171-3.19 4.99-4.749 8.488-4.749v-1zm-9.315 5.188c-2.277 3.368-3.398 7.59-3.398 12.631h1c0-4.894 1.087-8.907 3.226-12.071l-.828-.56zM9.196 25.85c0 4.955 1.146 9.174 3.466 12.63l.83-.558c-2.188-3.26-3.296-7.275-3.296-12.072h-1zM49.638 50h-.5v.5h.5V50zm0-6.693l-.324-.38-.176.149v.231h.5zm16.629-14.145l-.321-.383-.003.002.324.381zm7.038-7.038l-.408-.289-.002.002.41.287zm-.207-11.454l-.342.365.006.005.336-.37zm-11.316-.345l-.28-.414-.005.003.285.411zm-5.451 5.52l-.308.394.394.308.308-.394-.394-.308zm-6.003-4.692l-.408-.29-.276.39.376.294.308-.394zm7.659-7.659l.261.426.003-.001-.264-.425zm21.666 1.518l-.336.37.336-.37zm3.726 15.663l.477.15.001-.005-.478-.145zm-2.484 4.554l-.397-.304-.002.002.399.302zM77.1 29.438l.34.366h.001l-.341-.366zm-5.59 4.83l-.318-.385h-.001l.32.385zm-9.935 8.28l-.32-.384-1.061.884h1.38v-.5zm22.977 0h.5v-.5h-.5v.5zm0 7.452v.5h.5V50h-.5zm-34.414 0v-6.693h-1V50h1zm-.176-6.312L66.59 29.543l-.648-.762-16.63 14.145.649.762zm16.626-14.143c3.412-2.858 5.8-5.238 7.127-7.134l-.82-.574c-1.249 1.784-3.553 4.096-6.95 6.942l.643.766zm7.125-7.132c1.388-1.963 2.093-4.063 2.093-6.292h-1c0 2.003-.63 3.905-1.91 5.714l.817.578zm2.093-6.292c0-2.417-.779-4.377-2.372-5.821l-.672.74c1.35 1.224 2.044 2.898 2.044 5.081h1zm-2.366-5.816C71.864 8.828 69.874 8.1 67.509 8.1v1c2.143 0 3.879.652 5.247 1.935l.684-.73zM67.509 8.1c-2.213 0-4.22.603-6.007 1.81l.56.83c1.617-1.093 3.427-1.64 5.447-1.64v-1zm-6.012 1.814c-1.715 1.19-3.567 3.074-5.56 5.623l.788.616c1.963-2.511 3.744-4.308 5.342-5.417l-.57-.822zm-4.858 5.537l-6.003-4.692-.616.788 6.003 4.692.616-.788zm-5.904-4.008c2.46-3.462 4.967-5.96 7.514-7.523l-.524-.852c-2.697 1.656-5.296 4.265-7.805 7.795l.815.58zm7.516-7.524C60.819 2.325 64.1 1.51 68.13 1.51v-1c-4.16 0-7.639.841-10.407 2.56l.528.849zM68.13 1.51c4.639 0 8.352 1.303 11.187 3.872l.672-.74C76.936 1.875 72.967.51 68.129.51v1zm11.187 3.872c2.828 2.564 4.252 5.942 4.252 10.187h1c0-4.495-1.52-8.155-4.58-10.927l-.672.74zM83.57 15.57c0 1.846-.225 3.498-.669 4.961l.957.29c.477-1.573.712-3.325.712-5.251h-1zm-.667 4.957c-.439 1.403-1.234 2.87-2.404 4.4l.794.607c1.222-1.599 2.083-3.168 2.564-4.709l-.954-.298zm-2.406 4.401a32.52 32.52 0 01-3.737 4.146l.682.73a33.518 33.518 0 003.852-4.272l-.797-.604zm-3.737 4.145c-1.323 1.232-3.178 2.835-5.567 4.81l.638.771c2.395-1.98 4.266-3.597 5.61-4.85l-.68-.73zm-5.568 4.812l-9.936 8.28.64.768 9.936-8.28-.64-.768zm-9.616 9.164h22.977v-1H61.575v1zm22.477-.5V50h1v-7.452h-1zm.5 6.952H49.638v1h34.914v-1z" fill="#fff"/></svg>