<svg width="65" height="39" fill="none" xmlns="http://www.w3.org/2000/svg"><path d="M5.332 33.268l-.389.314.002.002.387-.316zm.052-26.832l-.387-.317.387.317zm22.88-.052l-.389.314.002.002.387-.316zm-.052 26.832l-.387-.317.387.317zm-18.096-4.108l-.415.279.004.006.411-.285zm13.416.052l-.413-.281-.001.001.414.28zm-.052-18.616l-.413.283.002.002.411-.285zm-13.416-.052l-.413-.281-.001.001.414.28zm6.708 27.632c-4.568 0-8.238-1.72-11.053-5.172l-.774.632c3.009 3.69 6.966 5.54 11.827 5.54v-1zm-11.051-5.17C2.892 29.45 1.464 25.078 1.464 19.8h-1c0 5.468 1.484 10.074 4.479 13.782l.778-.628zM1.464 19.8c0-5.206 1.444-9.544 4.307-13.048l-.774-.632C1.967 9.827.464 14.398.464 19.8h1zM5.771 6.753c2.887-3.525 6.576-5.277 11.105-5.277v-1c-4.83 0-8.803 1.888-11.879 5.643l.774.634zm11.105-5.277c4.53 0 8.183 1.736 10.999 5.222l.778-.628C25.645 2.346 21.705.476 16.876.476v1zm11 5.224c2.864 3.504 4.308 7.859 4.308 13.1h1c0-5.436-1.503-10.025-4.533-13.732l-.774.632zm4.308 13.1c0 5.204-1.46 9.56-4.359 13.1l.774.633c3.064-3.74 4.585-8.33 4.585-13.733h-1zm-4.36 13.1c-2.85 3.488-6.521 5.224-11.052 5.224v1c4.83 0 8.785-1.87 11.827-5.592l-.774-.632zM9.706 29.393c1.817 2.616 4.216 3.959 7.171 3.959v-1c-2.592 0-4.699-1.153-6.35-3.53l-.82.571zm7.171 3.959c2.953 0 5.321-1.325 7.07-3.912l-.828-.56c-1.58 2.335-3.648 3.472-6.242 3.472v1zm7.07-3.91c1.767-2.598 2.634-5.822 2.634-9.642h-1c0 3.668-.831 6.684-2.461 9.079l.826.562zM26.58 19.8c0-3.755-.887-6.945-2.69-9.541l-.82.57c1.663 2.396 2.51 5.377 2.51 8.971h1zm-2.688-9.539c-1.813-2.647-4.194-4.013-7.12-4.013v1c2.552 0 4.642 1.165 6.296 3.578l.824-.565zm-7.12-4.013c-2.955 0-5.34 1.344-7.121 3.963l.826.562c1.616-2.373 3.704-3.525 6.295-3.525v-1zM9.65 10.212c-1.733 2.563-2.582 5.77-2.582 9.588h1c0-3.67.815-6.668 2.41-9.028l-.828-.56zM7.068 19.8c0 3.753.868 6.958 2.633 9.587l.83-.558c-1.633-2.432-2.463-5.433-2.463-9.029h-1zm30.29 12.428l-.341-.366-.345.32.299.363.386-.317zm4.471-4.16l.382-.323-.34-.4-.383.357.341.366zm14.092 3.276l.325.38.006-.005-.33-.375zm-.52-8.216l-.28.415.012.007.268-.422zm-9.048-1.508l-.484.126.097.374h.387v-.5zm-1.04-4.004l-.364-.343-.19.202.07.267.484-.126zm9.828-10.452l.364.343.793-.843H55.14v.5zm-15.756 0h-.5v.5h.5v-.5zm0-5.564v-.5h-.5v.5h.5zm24.076 0h.5v-.5h-.5v.5zm0 4.784l.358.35.142-.147v-.203h-.5zm-10.14 10.4l-.358-.35-.688.707.976.138.07-.495zm7.748 3.224l-.326.38.004.002.322-.382zM60.445 35.4l-.334-.372-.003.003.337.369zm-9.152 2.724c-5.648 0-10.148-2.071-13.55-6.213l-.772.634c3.601 4.386 8.392 6.579 14.322 6.579v-1zm-13.595-5.53l4.472-4.16-.681-.732-4.472 4.16.68.732zm3.75-4.203c2.784 3.285 6.106 4.961 9.95 4.961v-1c-3.507 0-6.564-1.513-9.188-4.607l-.762.646zm9.95 4.961c1.932 0 3.562-.531 4.848-1.628l-.65-.76c-1.071.914-2.457 1.388-4.199 1.388v1zm4.854-1.633c1.295-1.143 1.937-2.654 1.937-4.483h-1c0 1.568-.537 2.796-1.599 3.733l.662.75zm1.937-4.483c0-1.944-.854-3.47-2.52-4.53l-.536.844c1.385.881 2.056 2.094 2.056 3.686h1zm-2.508-4.523c-1.602-1.08-3.74-1.593-6.364-1.593v1c2.507 0 4.425.492 5.804 1.422l.56-.829zm-6.364-1.593h-2.964v1h2.964v-1zm-2.48.374l-1.04-4.004-.968.252 1.04 4.004.968-.252zm-1.16-3.535l9.828-10.452-.728-.686-9.828 10.452.728.686zm9.464-11.295H39.385v1h15.756v-1zm-15.256.5V1.6h-1v5.564h1zm-.5-5.064h24.076v-1H39.385v1zm23.576-.5v4.784h1V1.6h-1zm.142 4.435l-10.14 10.4.716.698 10.14-10.4-.716-.698zm-9.852 11.244c3.117.44 5.604 1.485 7.492 3.108l.652-.758c-2.064-1.774-4.742-2.88-8.004-3.34l-.14.99zm7.496 3.111c1.841 1.55 2.786 3.773 2.786 6.742h1c0-3.201-1.03-5.729-3.142-7.507l-.644.765zm2.786 6.742c0 3.228-1.141 5.846-3.422 7.896l.668.744c2.503-2.25 3.754-5.143 3.754-8.64h-1zm-3.425 7.899c-2.25 2.05-5.172 3.093-8.815 3.093v1c3.846 0 7.024-1.107 9.489-3.355l-.674-.738z" fill="#fff"/></svg>