<svg width="91" height="51" fill="none" xmlns="http://www.w3.org/2000/svg"><path d="M6.729 43.721l-.389.314.002.002.387-.316zm.069-35.604L6.411 7.8l.387.317zm30.36-.069l-.389.314.002.002.387-.316zm-.069 35.604l-.387-.317.387.317zm-24.012-5.451l-.415.279.004.006.411-.285zm17.802.069l-.413-.281-.001.001.414.28zm-.069-24.702l-.412.283.001.002.411-.285zm-17.802-.069l-.413-.281-.001.001.414.28zm8.901 36.829c-6.11 0-11.026-2.305-14.793-6.923l-.774.632c3.961 4.858 9.165 7.291 15.567 7.291v-1zM7.118 43.407C3.337 38.726 1.433 32.885 1.433 25.85h-1c0 7.225 1.96 13.298 5.907 18.185l.778-.628zM1.433 25.85c0-6.94 1.925-12.734 5.752-17.417l-.774-.632C2.418 12.686.433 18.714.433 25.85h1zM7.185 8.434c3.861-4.715 8.803-7.062 14.862-7.062v-1c-6.36 0-11.585 2.483-15.636 7.428l.774.634zm14.862-7.062c6.06 0 10.954 2.325 14.722 6.99l.778-.628c-3.96-4.903-9.14-7.362-15.5-7.362v1zm14.724 6.992c3.826 4.682 5.752 10.5 5.752 17.486h1c0-7.181-1.984-13.232-5.978-18.118l-.774.632zm5.752 17.486c0 6.938-1.947 12.756-5.82 17.485l.773.634c4.038-4.93 6.047-10.981 6.047-18.119h-1zm-5.821 17.486c-3.815 4.667-8.732 6.992-14.793 6.992v1c6.36 0 11.562-2.459 15.567-7.36l-.774-.632zm-24.036-4.85c2.383 3.432 5.52 5.183 9.381 5.183v-1c-3.499 0-6.342-1.56-8.56-4.753l-.82.57zm9.381 5.183c3.86 0 6.953-1.727 9.246-5.119l-.828-.56c-2.123 3.14-4.918 4.679-8.418 4.679v1zm9.245-5.118c2.323-3.413 3.468-7.657 3.468-12.701h-1c0 4.892-1.11 8.928-3.294 12.139l.826.562zM34.76 25.85c0-4.956-1.17-9.155-3.54-12.567l-.82.57c2.23 3.212 3.36 7.201 3.36 11.997h1zm-3.537-12.565c-2.38-3.475-5.493-5.254-9.314-5.254v1c3.447 0 6.269 1.579 8.489 4.82l.825-.566zm-9.314-5.254c-3.862 0-6.977 1.752-9.314 5.187l.826.562c2.171-3.19 4.99-4.749 8.488-4.749v-1zm-9.315 5.188c-2.277 3.368-3.398 7.59-3.398 12.631h1c0-4.894 1.087-8.907 3.226-12.071l-.828-.56zM9.196 25.85c0 4.955 1.146 9.174 3.466 12.63l.83-.558c-2.188-3.26-3.296-7.275-3.296-12.072h-1zM75.359 50h-.5v.5h.5V50zm0-10.833h.5v-.5h-.5v.5zm-24.357 0l-.484.126.098.374h.386v-.5zm-1.587-6.072l-.382-.323-.168.198.066.251.484-.126zm26.84-31.74v-.5h-.231l-.15.177.382.323zm7.246 0h.5v-.5h-.5v.5zm0 30.843H83v.5h.5v-.5zm6.9 0h.5v-.5h-.5v.5zm0 6.969v.5h.5v-.5h-.5zm-6.9 0v-.5H83v.5h.5zM83.5 50v.5h.5V50h-.5zM59.489 32.198l-.385-.32-.68.82h1.065v-.5zm15.87 0v.5h.5v-.5h-.5zm0-19.113h.5V11.7l-.885 1.066.385.319zm.5 36.915V39.167h-1V50h1zm-.5-11.333H51.002v1h24.357v-1zm-23.874.374l-1.587-6.072-.967.252 1.587 6.072.967-.252zm-1.688-5.623l26.84-31.74-.763-.646-26.841 31.74.764.646zM76.255 1.855H83.5v-1h-7.245v1zm6.745-.5v30.843h1V1.355h-1zm.5 31.343h6.9v-1h-6.9v1zm6.4-.5v6.969h1v-6.969h-1zm.5 6.469h-6.9v1h6.9v-1zm-7.4.5V50h1V39.167h-1zm.5 10.333h-8.142v1H83.5v-1zM59.489 32.698h15.87v-1h-15.87v1zm16.37-.5V13.085h-1v19.113h1zm-.885-19.432l-15.87 19.113.77.638 15.87-19.113-.77-.638z" fill="#000"/></svg>