<svg width="86" height="51" fill="none" xmlns="http://www.w3.org/2000/svg"><path d="M6.729 43.721l-.389.314.002.002.387-.316zm.069-35.604L6.411 7.8l.387.317zm30.36-.069l-.389.314.002.002.387-.316zm-.069 35.604l-.387-.317.387.317zm-24.012-5.451l-.415.279.004.006.411-.285zm17.802.069l-.413-.281-.001.001.414.28zm-.069-24.702l-.412.283.001.002.411-.285zm-17.802-.069l-.413-.281-.001.001.414.28zm8.901 36.829c-6.11 0-11.026-2.305-14.793-6.923l-.774.632c3.961 4.858 9.165 7.291 15.567 7.291v-1zM7.118 43.407C3.337 38.726 1.433 32.885 1.433 25.85h-1c0 7.225 1.96 13.298 5.907 18.185l.778-.628zM1.433 25.85c0-6.94 1.925-12.734 5.752-17.417l-.774-.632C2.418 12.686.433 18.714.433 25.85h1zM7.185 8.434c3.861-4.715 8.803-7.062 14.862-7.062v-1c-6.36 0-11.585 2.483-15.636 7.428l.774.634zm14.862-7.062c6.06 0 10.954 2.325 14.722 6.99l.778-.628c-3.96-4.903-9.14-7.362-15.5-7.362v1zm14.724 6.992c3.826 4.682 5.752 10.5 5.752 17.486h1c0-7.181-1.984-13.232-5.978-18.118l-.774.632zm5.752 17.486c0 6.938-1.947 12.756-5.82 17.485l.773.634c4.038-4.93 6.047-10.981 6.047-18.119h-1zm-5.821 17.486c-3.815 4.667-8.732 6.992-14.793 6.992v1c6.36 0 11.562-2.459 15.567-7.36l-.774-.632zm-24.036-4.85c2.383 3.432 5.52 5.183 9.381 5.183v-1c-3.499 0-6.342-1.56-8.56-4.753l-.82.57zm9.381 5.183c3.86 0 6.953-1.727 9.246-5.119l-.828-.56c-2.123 3.14-4.918 4.679-8.418 4.679v1zm9.245-5.118c2.323-3.413 3.468-7.657 3.468-12.701h-1c0 4.892-1.11 8.928-3.294 12.139l.826.562zM34.76 25.85c0-4.956-1.17-9.155-3.54-12.567l-.82.57c2.23 3.212 3.36 7.201 3.36 11.997h1zm-3.537-12.565c-2.38-3.475-5.493-5.254-9.314-5.254v1c3.447 0 6.269 1.579 8.489 4.82l.825-.566zm-9.314-5.254c-3.862 0-6.977 1.752-9.314 5.187l.826.562c2.171-3.19 4.99-4.749 8.488-4.749v-1zm-9.315 5.188c-2.277 3.368-3.398 7.59-3.398 12.631h1c0-4.894 1.087-8.907 3.226-12.071l-.828-.56zM9.196 25.85c0 4.955 1.146 9.174 3.466 12.63l.83-.558c-2.188-3.26-3.296-7.275-3.296-12.072h-1zm40.978 17.595l-.38-.325-.305.357.336.326.349-.358zm5.244-6.141l.34-.366-.381-.356-.34.397.38.325zm19.389 3.519l.328.378.005-.005-.333-.373zM74.6 28.817l-.313.39.011.009.302-.399zm-16.077-.069l-.276.417.234.155.254-.12-.212-.452zm-5.106-3.381l-.5-.03-.016.288.24.159.276-.417zM54.797 1.7v-.5h-.472l-.028.47.5.03zm28.842 0h.5v-.5h-.5v.5zm0 7.521v.5h.5v-.5h-.5zm-21.528 0v-.5h-.468l-.031.467.499.033zm-.76 11.316l-.498-.034-.052.766.721-.262-.17-.47zm19.735 2.553l.32-.383-.32.383zm-.276 23.253l-.335-.371-.003.002.338.369zm-12.903 3.985c-6.626 0-12.413-2.406-17.385-7.241l-.697.716c5.149 5.009 11.183 7.525 18.082 7.525v-1zM50.554 43.77l5.244-6.141-.76-.65-5.245 6.141.76.65zm4.523-6.1c4.198 3.918 8.454 5.93 12.76 5.93v-1c-3.972 0-7.996-1.852-12.078-5.662l-.682.731zm12.76 5.93c2.988 0 5.437-.784 7.297-2.4l-.655-.755c-1.636 1.421-3.832 2.155-6.641 2.155v1zm7.303-2.404c1.865-1.67 2.789-3.88 2.789-6.583h-1c0 2.45-.825 4.378-2.456 5.837l.667.746zm2.789-6.583c0-2.589-1.012-4.67-3.028-6.195l-.603.798c1.757 1.328 2.63 3.11 2.63 5.397h1zm-3.017-6.186c-1.949-1.56-4.46-2.318-7.488-2.318v1c2.86 0 5.132.714 6.863 2.098l.625-.78zm-7.488-2.318c-2.983 0-6.022.734-9.114 2.186l.425.906c2.98-1.4 5.875-2.092 8.689-2.092v-1zm-8.625 2.222l-5.106-3.38-.552.833 5.106 3.38.552-.833zm-4.883-2.935l1.38-23.667-.998-.058-1.38 23.667.998.058zm.88-23.196H83.64v-1H54.797v1zm28.343-.5v7.521h1V1.7h-1zm.5 7.021H62.11v1h21.528v-1zm-22.027.467l-.76 11.315.998.067.76-11.316-.998-.066zm-.09 11.819c2.478-.901 4.974-1.35 7.489-1.35v-1c-2.637 0-5.248.471-7.83 1.41l.342.94zm7.489-1.35c4.83 0 8.733 1.284 11.754 3.816l.642-.766c-3.236-2.712-7.382-4.05-12.396-4.05v1zm11.754 3.816c2.99 2.507 4.513 6.147 4.513 11.002h1c0-5.08-1.605-9.03-4.871-11.768l-.642.766zm4.513 11.002c0 4.797-1.608 8.612-4.803 11.497l.67.742c3.428-3.095 5.133-7.192 5.133-12.239h-1zm-4.806 11.5c-3.156 2.888-7.327 4.353-12.565 4.353v1c5.434 0 9.864-1.525 13.24-4.616l-.675-.738z" fill="#000"/></svg>