<svg width="89" height="51" fill="none" xmlns="http://www.w3.org/2000/svg"><path d="M21.909 51.328c13.062 0 21.614-11.501 21.614-25.478h-1c0 13.623-8.284 24.478-20.614 24.478v1zM43.523 25.85c0-14.113-8.482-25.478-21.476-25.478v1c12.26 0 20.476 10.715 20.476 24.478h1zM22.047.372C8.985.372.433 11.873.433 25.85h1c0-13.623 8.284-24.478 20.614-24.478v-1zM.433 25.85c0 14.112 8.412 25.478 21.476 25.478v-1c-12.328 0-20.476-10.714-20.476-24.478h-1zm21.614 16.819c-3.565 0-6.51-1.84-8.583-4.871-2.08-3.04-3.268-7.265-3.268-11.948h-1c0 4.839 1.226 9.273 3.442 12.512 2.223 3.25 5.453 5.307 9.409 5.307v-1zM10.196 25.85c0-4.79 1.173-9.015 3.225-12.026 2.045-3.002 4.955-4.793 8.488-4.793v-1c-3.919 0-7.116 2.004-9.314 5.23-2.191 3.215-3.399 7.65-3.399 12.589h1zM21.909 9.031c3.53 0 6.475 1.84 8.558 4.872 2.088 3.04 3.293 7.265 3.293 11.947h1c0-4.84-1.244-9.274-3.469-12.513-2.23-3.247-5.46-5.306-9.382-5.306v1zM33.76 25.85c0 4.756-1.156 8.981-3.2 12.002-2.037 3.01-4.946 4.817-8.513 4.817v1c3.954 0 7.151-2.022 9.341-5.257 2.182-3.224 3.372-7.658 3.372-12.562h-1zm25.936-1.932l-.5-.023-.06 1.264.908-.883-.348-.358zm22.08-11.109l-.307.395.417.323.3-.433-.41-.285zm4.554-6.555l.41.285.266-.383-.363-.292-.313.39zM56.798 45.791l.353-.354-.353.354zm13.386 5.537c10.37 0 18.44-7.008 18.44-16.922h-1c0 9.268-7.524 15.922-17.44 15.922v1zm18.44-16.922c0-5.038-1.94-9.01-5.11-11.714-3.16-2.696-7.51-4.104-12.295-4.104v1c4.597 0 8.701 1.352 11.647 3.865 2.936 2.505 4.758 6.193 4.758 10.953h1zM71.219 18.588c-5.831 0-9.262 2.432-11.872 4.972l.697.716c2.496-2.428 5.69-4.688 11.175-4.688v-1zm-11.024 5.353c.204-4.355 1.292-8.08 3.168-10.703 1.863-2.605 4.51-4.138 7.925-4.138v-1c-3.763 0-6.703 1.71-8.739 4.556-2.023 2.829-3.143 6.762-3.353 11.239l1 .046zM71.288 9.1c4.049 0 6.839 1.512 10.181 4.104l.613-.79C78.662 9.762 75.657 8.1 71.288 8.1v1zm10.898 3.994L86.74 6.54l-.821-.57-4.554 6.555.821.57zm4.457-7.23C82.363 2.426 77.978.372 71.563.372v1c6.144 0 10.315 1.948 14.453 5.272l.627-.78zM71.563.372c-6.99 0-12.315 2.957-15.876 7.812-3.548 4.836-5.323 11.523-5.323 18.977h1c0-7.312 1.743-13.77 5.13-18.386 3.373-4.599 8.399-7.403 15.07-7.403v-1zm-21.2 26.789c0 9.952 2.232 15.135 6.081 18.984l.707-.708c-3.603-3.603-5.787-8.494-5.787-18.276h-1zm6.081 18.984c3.278 3.277 7.688 5.183 13.74 5.183v-1c-5.817 0-9.963-1.82-13.033-4.89l-.707.707zm13.533-3.131c-5.85 0-9.505-3.621-9.505-8.194h-1c0 5.225 4.21 9.194 10.505 9.194v-1zm-9.505-8.194c0-4.446 3.53-8.125 9.298-8.125v-1c-6.239 0-10.298 4.049-10.298 9.125h1zm9.298-8.125c2.903 0 5.246.867 6.855 2.274 1.606 1.404 2.512 3.37 2.512 5.644h1c0-2.556-1.026-4.799-2.854-6.397-1.823-1.594-4.413-2.521-7.513-2.521v1zm9.367 7.918c0 2.43-.868 4.52-2.424 6.003-1.557 1.485-3.842 2.398-6.736 2.398v1c3.108 0 5.654-.984 7.426-2.674 1.773-1.69 2.734-4.05 2.734-6.727h-1z" fill="#000"/></svg>