<svg width="84" height="51" fill="none" xmlns="http://www.w3.org/2000/svg"><path d="M21.909 51.328c13.062 0 21.614-11.501 21.614-25.478h-1c0 13.623-8.284 24.478-20.614 24.478v1zM43.523 25.85c0-14.113-8.482-25.478-21.476-25.478v1c12.26 0 20.476 10.715 20.476 24.478h1zM22.047.372C8.985.372.433 11.873.433 25.85h1c0-13.623 8.284-24.478 20.614-24.478v-1zM.433 25.85c0 14.112 8.412 25.478 21.476 25.478v-1c-12.328 0-20.476-10.714-20.476-24.478h-1zm21.614 16.819c-3.565 0-6.51-1.84-8.583-4.871-2.08-3.04-3.268-7.265-3.268-11.948h-1c0 4.839 1.226 9.273 3.442 12.513 2.223 3.248 5.453 5.306 9.409 5.306v-1zM10.196 25.85c0-4.79 1.173-9.015 3.225-12.026 2.045-3.002 4.955-4.793 8.488-4.793v-1c-3.919 0-7.116 2.004-9.314 5.23-2.191 3.215-3.399 7.65-3.399 12.589h1zM21.909 9.031c3.53 0 6.475 1.84 8.558 4.872 2.088 3.04 3.293 7.265 3.293 11.947h1c0-4.84-1.244-9.274-3.469-12.513-2.23-3.247-5.46-5.306-9.382-5.306v1zM33.76 25.85c0 4.756-1.156 8.981-3.2 12.002-2.037 3.01-4.946 4.817-8.513 4.817v1c3.954 0 7.151-2.022 9.341-5.257 2.182-3.224 3.372-7.658 3.372-12.562h-1zM52.358 50l-.442-.234-.39.734h.832V50zm9.522 0v.5h.303l.14-.27-.443-.23zM83.684 8.117l.443.23.057-.108v-.122h-.5zm0-6.417h.5v-.5h-.5v.5zm-33.948 0v-.5h-.5v.5h.5zm0 7.452h-.5v.5h.5v-.5zm24.288 0l.442.234.39-.734h-.832v.5zM52.358 50.5h9.522v-1h-9.522v1zm9.965-.27L84.127 8.349l-.887-.462L61.436 49.77l.887.462zm21.86-42.113V1.7h-1v6.417h1zm-.5-6.917H49.737v1h33.948v-1zm-34.447.5v7.452h1V1.7h-1zm.5 7.952h24.288v-1H49.736v1zm23.846-.734L51.916 49.766l.884.468L74.466 9.386l-.884-.468z" fill="#fff"/></svg>