<svg width="203" height="30" fill="none" xmlns="http://www.w3.org/2000/svg"><path d="M28.087 15.241V2.813c0-1.036.787-1.813 1.573-1.813.786 0 1.573.777 1.573 1.813v11.91c0 5.955 2.359 8.286 8.387 8.286h4.194c1.048 0 1.573.777 1.573 1.812 0 1.036-.787 1.813-1.573 1.813h-4.718c-7.077 0-11.009-4.143-11.009-11.393zM85.49 1.259h2.36c7.076 0 11.27 4.143 11.27 11.393V25.08c0 1.036-.786 1.813-1.573 1.813-1.048 0-1.834-.777-1.572-1.813V13.17c0-5.956-2.36-8.286-8.126-8.286h-1.573c-5.766 0-8.387 2.33-8.387 8.286v11.91c0 1.036-.787 1.813-1.573 1.813-1.048 0-1.835-.777-1.573-1.813V12.652c-.262-7.25 3.67-11.393 10.747-11.393zm-74.178 0h2.359c6.815 0 11.27 3.625 11.27 10.616s-4.455 10.616-11.27 10.616H8.69c-1.049 0-1.573-.777-1.573-1.813 0-1.035.786-1.812 1.573-1.812h4.456c5.504 0 8.125-2.071 8.125-7.25s-2.62-7.25-8.125-7.25h-1.573c-5.766 0-8.388 2.33-8.388 8.286v11.91c0 1.036-.786 1.813-1.572 1.813-.787 0-1.835-.777-1.573-1.813V12.134c0-6.732 4.194-10.875 11.27-10.875zm102.486 0h2.359c7.077 0 11.271 4.143 11.271 11.393v5.955c0 1.036-.786 1.813-1.572 1.813-1.049 0-1.835-.777-1.573-1.813V13.17c0-5.956-2.359-8.286-8.126-8.286h-1.572c-5.767 0-8.388 2.33-8.388 8.286v1.553c0 5.955 2.359 8.286 8.388 8.286h9.436c2.359 0 3.145.518 4.456 2.071l.786.777c.786.777 1.049 1.813.262 2.59-.786.776-1.835.776-2.621-.26l-.786-.776c-.525-.518-.787-.777-1.835-.777h-9.96c-7.078 0-11.271-4.143-11.271-11.393v-2.59c-.525-7.25 3.407-11.392 10.746-11.392zM49.58 13.169v1.554c0 5.955 2.36 8.286 8.388 8.286h1.573c5.766 0 8.125-2.59 8.125-8.286V13.17c0-5.956-2.359-8.286-8.125-8.286h-1.573c-6.029 0-8.388 2.33-8.388 8.286zm7.864-11.91h2.359c7.077 0 11.27 4.143 11.27 11.393v2.589c0 7.25-3.93 11.393-11.27 11.393h-2.36c-7.076 0-11.27-4.143-11.27-11.393v-2.59c0-7.25 3.932-11.392 11.27-11.392z" fill="#000"/><rect x="146" y="1" width="56" height="28" rx="8" stroke="#000" stroke-width="2"/><path d="M162.377 21.545c-1.683 0-3.196-.664-4.54-1.993l.944-1.024c1.199 1.15 2.404 1.724 3.614 1.724.909 0 1.647-.263 2.216-.79.569-.527.854-1.203.854-2.029 0-.778-.297-1.413-.89-1.903-.581-.491-1.338-.736-2.27-.736-.872 0-1.762.239-2.67.718l-.963-.629.364-6.123h7.319v1.311h-6.066l-.273 4.022c.86-.37 1.695-.556 2.507-.556 1.271 0 2.318.353 3.142 1.059.835.694 1.253 1.634 1.253 2.82 0 1.22-.424 2.214-1.272 2.98-.847.766-1.937 1.149-3.269 1.149zm15.988-1.885c-.993 1.256-2.288 1.885-3.887 1.885-1.598 0-2.893-.623-3.886-1.868-.981-1.256-1.471-2.8-1.471-4.632 0-1.808.496-3.34 1.489-4.597 1.005-1.269 2.307-1.903 3.905-1.903 1.598 0 2.887.628 3.868 1.885.981 1.245 1.471 2.783 1.471 4.615 0 1.807-.496 3.346-1.489 4.615zm-6.665-.934c.726 1.017 1.665 1.526 2.815 1.526s2.076-.503 2.778-1.508c.715-1.018 1.072-2.25 1.072-3.7 0-1.424-.363-2.645-1.09-3.662-.714-1.03-1.646-1.544-2.797-1.544-1.15 0-2.082.509-2.796 1.526-.715 1.005-1.072 2.232-1.072 3.68 0 1.425.363 2.652 1.09 3.682zm19.648.934c-.993 1.256-2.289 1.885-3.887 1.885-1.598 0-2.894-.623-3.886-1.868-.981-1.256-1.472-2.8-1.472-4.632 0-1.808.497-3.34 1.49-4.597 1.005-1.269 2.306-1.903 3.904-1.903 1.599 0 2.888.628 3.869 1.885.981 1.245 1.471 2.783 1.471 4.615 0 1.807-.497 3.346-1.489 4.615zm-6.666-.934c.727 1.017 1.665 1.526 2.815 1.526 1.151 0 2.077-.503 2.779-1.508.714-1.018 1.072-2.25 1.072-3.7 0-1.424-.364-2.645-1.09-3.662-.714-1.03-1.647-1.544-2.797-1.544-1.15 0-2.082.509-2.797 1.526-.714 1.005-1.071 2.232-1.071 3.68 0 1.425.363 2.652 1.089 3.682z" fill="#000"/></svg>