<svg width="204" height="30" fill="none" xmlns="http://www.w3.org/2000/svg"><path d="M28.087 15.241V2.813c0-1.036.787-1.813 1.573-1.813.786 0 1.573.777 1.573 1.813v11.91c0 5.955 2.359 8.286 8.387 8.286h4.194c1.048 0 1.573.777 1.573 1.812 0 1.036-.787 1.813-1.573 1.813h-4.718c-7.077 0-11.009-4.143-11.009-11.393zM85.49 1.259h2.36c7.076 0 11.27 4.143 11.27 11.393V25.08c0 1.036-.786 1.813-1.573 1.813-1.048 0-1.834-.777-1.572-1.813V13.17c0-5.956-2.36-8.286-8.126-8.286h-1.573c-5.766 0-8.387 2.33-8.387 8.286v11.91c0 1.036-.787 1.813-1.573 1.813-1.048 0-1.835-.777-1.573-1.813V12.652c-.262-7.25 3.67-11.393 10.747-11.393zm-74.178 0h2.359c6.815 0 11.27 3.625 11.27 10.616s-4.455 10.616-11.27 10.616H8.69c-1.049 0-1.573-.777-1.573-1.813 0-1.035.786-1.812 1.573-1.812h4.456c5.504 0 8.125-2.071 8.125-7.25s-2.62-7.25-8.125-7.25h-1.573c-5.766 0-8.388 2.33-8.388 8.286v11.91c0 1.036-.786 1.813-1.572 1.813-.787 0-1.835-.777-1.573-1.813V12.134c0-6.732 4.194-10.875 11.27-10.875zm102.486 0h2.359c7.077 0 11.271 4.143 11.271 11.393v5.955c0 1.036-.786 1.813-1.572 1.813-1.049 0-1.835-.777-1.573-1.813V13.17c0-5.956-2.359-8.286-8.126-8.286h-1.572c-5.767 0-8.388 2.33-8.388 8.286v1.553c0 5.955 2.359 8.286 8.388 8.286h9.436c2.359 0 3.145.518 4.456 2.071l.786.777c.786.777 1.049 1.813.262 2.59-.786.776-1.835.776-2.621-.26l-.786-.776c-.525-.518-.787-.777-1.835-.777h-9.96c-7.078 0-11.271-4.143-11.271-11.393v-2.59c-.525-7.25 3.407-11.392 10.746-11.392zM49.58 13.169v1.554c0 5.955 2.36 8.286 8.388 8.286h1.573c5.766 0 8.125-2.59 8.125-8.286V13.17c0-5.956-2.359-8.286-8.125-8.286h-1.573c-6.029 0-8.388 2.33-8.388 8.286zm7.864-11.91h2.359c7.077 0 11.27 4.143 11.27 11.393v2.589c0 7.25-3.93 11.393-11.27 11.393h-2.36c-7.076 0-11.27-4.143-11.27-11.393v-2.59c0-7.25 3.932-11.392 11.27-11.392z" fill="#000"/><rect x="147" y="1" width="56" height="28" rx="8" stroke="#000" stroke-width="2"/><path d="M164.169 21.33v-2.981h-6.8L157 17.325l7.298-8.654h1.271v8.493h2.009v1.185h-2.009v2.98h-1.4zm-5.418-4.166h5.418v-6.482l-5.418 6.482zm20.343 2.496c-1.007 1.256-2.322 1.885-3.944 1.885-1.621 0-2.936-.623-3.943-1.868-.995-1.256-1.493-2.8-1.493-4.632 0-1.808.504-3.34 1.511-4.597 1.02-1.269 2.341-1.903 3.962-1.903 1.622 0 2.93.628 3.926 1.885.995 1.245 1.492 2.783 1.492 4.615 0 1.807-.503 3.346-1.511 4.615zm-6.763-.934c.737 1.017 1.689 1.526 2.856 1.526 1.167 0 2.107-.503 2.82-1.508.725-1.018 1.087-2.25 1.087-3.7 0-1.424-.368-2.645-1.106-3.662-.724-1.03-1.67-1.544-2.838-1.544-1.167 0-2.113.509-2.838 1.526-.724 1.005-1.087 2.232-1.087 3.68 0 1.425.369 2.652 1.106 3.682zm19.937.934c-1.008 1.256-2.322 1.885-3.944 1.885-1.622 0-2.936-.623-3.944-1.868-.995-1.256-1.492-2.8-1.492-4.632 0-1.808.503-3.34 1.511-4.597 1.019-1.269 2.34-1.903 3.962-1.903 1.622 0 2.93.628 3.925 1.885.995 1.245 1.493 2.783 1.493 4.615 0 1.807-.504 3.346-1.511 4.615zm-6.764-.934c.738 1.017 1.69 1.526 2.857 1.526 1.167 0 2.107-.503 2.82-1.508.724-1.018 1.087-2.25 1.087-3.7 0-1.424-.369-2.645-1.106-3.662-.725-1.03-1.671-1.544-2.838-1.544s-2.113.509-2.838 1.526c-.725 1.005-1.087 2.232-1.087 3.68 0 1.425.368 2.652 1.105 3.682z" fill="#000"/></svg>