<svg width="280" height="61" fill="none" xmlns="http://www.w3.org/2000/svg"><path fill-rule="evenodd" clip-rule="evenodd" d="M259.272 4.767h-18.83a15.92 15.92 0 00-11.322 4.744 16.308 16.308 0 00-4.696 11.455v19.057a16.31 16.31 0 004.692 11.462 15.922 15.922 0 0011.326 4.748h18.83a15.84 15.84 0 006.131-1.23 16.004 16.004 0 005.199-3.515 16.214 16.214 0 003.471-5.26 16.367 16.367 0 001.217-6.205V20.966a16.37 16.37 0 00-1.22-6.202 16.218 16.218 0 00-3.472-5.256 16.004 16.004 0 00-5.197-3.511 15.84 15.84 0 00-6.129-1.23zM240.442 0a20.592 20.592 0 00-14.649 6.14 21.095 21.095 0 00-6.068 14.826v19.057a21.184 21.184 0 001.574 8.027 20.974 20.974 0 004.49 6.805 20.705 20.705 0 006.722 4.548A20.504 20.504 0 00240.442 61h18.83c5.498 0 10.77-2.21 14.657-6.144A21.107 21.107 0 00280 40.023V20.966a21.105 21.105 0 00-6.075-14.826A20.603 20.603 0 00259.272 0h-18.83zm21.877 42.926h-6.373l-6.106-9.399-6.117 9.399h-5.96l8.729-12.81-8.182-12.042h6.15l5.67 8.947 5.581-8.947h6.006l-8.249 12.324 8.851 12.528zM42.059 30.5V11.534a2.63 2.63 0 01.688-1.947 2.568 2.568 0 011.874-.823 2.54 2.54 0 011.874.823 2.602 2.602 0 01.687 1.947v18.288c0 9.037 3.628 12.9 12.468 12.9h6.43a2.43 2.43 0 011.877.748 2.489 2.489 0 01.69 1.919 2.49 2.49 0 01-.687 1.918 2.43 2.43 0 01-1.88.736h-7.2c-10.749.011-16.832-6.315-16.821-17.52V30.5zm86.74-21.305h3.706c10.771 0 16.81 6.292 16.821 17.51v19.022c.023.355-.026.711-.144 1.046a2.582 2.582 0 01-1.396 1.51 2.544 2.544 0 01-2.896-.609 2.6 2.6 0 01-.543-.901 2.634 2.634 0 01-.144-1.046V27.405c0-9.037-3.594-12.844-12.424-12.844h-2.232c-8.829 0-12.479 3.75-12.479 12.844v18.3a2.6 2.6 0 01-.749 1.829 2.54 2.54 0 01-1.807.758 2.543 2.543 0 01-1.808-.758 2.604 2.604 0 01-.748-1.83v-19c0-11.217 6.061-17.509 16.843-17.509zm-111.966 0h3.717c10.235 0 16.799 5.648 16.799 16.369 0 10.72-6.564 16.38-16.8 16.357h-7.355a2.409 2.409 0 01-1.885-.74 2.467 2.467 0 01-.682-1.926 2.5 2.5 0 01.69-1.915 2.419 2.419 0 011.877-.74h6.597c8.282 0 12.423-3.253 12.423-11.06 0-7.805-4.141-11.024-12.423-11.024h-2.233c-8.795 0-12.434 3.795-12.445 12.889v18.3a2.502 2.502 0 01-.666 1.936 2.418 2.418 0 01-1.88.764 2.407 2.407 0 01-1.89-.755 2.467 2.467 0 01-.665-1.945v-18.99c0-11.228 6.05-17.52 16.82-17.52zm154.438 0h3.705c10.783 0 16.833 6.28 16.833 17.51v9.116a2.545 2.545 0 01-.685 1.936 2.467 2.467 0 01-1.882.775 2.45 2.45 0 01-1.888-.767 2.507 2.507 0 01-.669-1.944v-8.416c0-9.037-3.594-12.844-12.423-12.844h-2.232c-8.829 0-12.479 3.728-12.479 12.844v2.417c0 9.116 3.638 12.9 12.479 12.9h14.187c3.661 0 4.933.938 6.898 2.983l1.183 1.231c1.284 1.333 1.395 2.937.301 4.078-1.094 1.141-2.589 1.13-4.074-.474l-1.295-1.345a3.344 3.344 0 00-1.273-.904 3.31 3.31 0 00-1.539-.225h-15.136c-10.76 0-16.832-6.27-16.832-17.498v-3.864c0-11.228 6.049-17.509 16.821-17.509zm-96.675 18.21v2.428c0 9.105 3.65 12.924 12.48 12.924h2.232c8.83 0 12.412-3.785 12.412-12.89v-2.462c-.033-9.116-3.616-12.89-12.412-12.89h-2.233c-8.829 0-12.479 3.774-12.479 12.89zm11.72-18.21h3.706c10.783 0 16.833 6.28 16.833 17.51v3.818c0 11.228-6.05 17.498-16.833 17.498h-3.706c-10.77 0-16.82-6.27-16.82-17.498v-3.819c0-11.228 6.05-17.509 16.82-17.509z" fill="#000"/></svg>