<svg width="88" height="20" fill="none" xmlns="http://www.w3.org/2000/svg"><path d="M18.949 10.089v-8.41C18.94.969 19.409.5 20.102.5c.694 0 1.154.47 1.154 1.179l-.01 8.106c0 4.016 1.64 5.71 5.623 5.71l2.901-.009c.694.01 1.154.47 1.154 1.18 0 .709-.46 1.188-1.154 1.178h-3.234c-4.857.01-7.596-2.79-7.587-7.755zm39.07-9.45h1.675c4.857 0 7.569 2.78 7.578 7.755v8.428c-.01.71-.46 1.17-1.154 1.17-.693 0-1.162-.46-1.153-1.17l-.018-8.115c.01-4.025-1.622-5.692-5.595-5.692h-.991c-3.974 0-5.623 1.658-5.623 5.692l.009 8.106c-.009.718-.46 1.179-1.153 1.179-.694 0-1.163-.46-1.154-1.18V8.395C50.431 3.42 53.161.638 58.018.638zm-50.441 0h1.676c4.613 0 7.569 2.514 7.569 7.248 0 4.698-2.956 7.259-7.57 7.25H5.939c-.703.009-1.153-.47-1.153-1.18 0-.709.45-1.17 1.153-1.179l2.973.01c3.73 0 5.596-1.447 5.596-4.9 0-3.455-1.865-4.873-5.596-4.873h-.99c-3.974 0-5.623 1.658-5.623 5.692l.009 8.106c-.01.718-.46 1.179-1.154 1.179-.693 0-1.162-.46-1.153-1.18V8.395C-.009 3.42 2.721.638 7.578.638zm69.578 0h1.676c4.857 0 7.578 2.78 7.578 7.755v4.034c-.01.719-.46 1.198-1.153 1.198-.694 0-1.163-.48-1.154-1.198l-.018-3.73c.01-4.025-1.622-5.693-5.595-5.693h-.991c-3.974 0-5.623 1.65-5.623 5.693v1.078c0 4.034 1.64 5.71 5.623 5.71h6.388c1.649 0 2.226.415 3.109 1.318l.531.543c.577.59.63 1.308.135 1.805-.495.507-1.171.48-1.838-.212l-.585-.598c-.289-.286-.55-.507-1.27-.516h-6.822c-4.847.01-7.578-2.782-7.578-7.756V8.385C69.58 3.42 72.3.638 77.157.638zM33.6 8.706v1.078c0 4.034 1.64 5.71 5.622 5.71h.992c3.973 0 5.595-1.676 5.595-5.71V8.707c0-4.034-1.622-5.692-5.595-5.692h-.992c-3.973 0-5.622 1.648-5.622 5.692zM38.88.638h1.676c4.857 0 7.578 2.782 7.578 7.756v1.685c0 4.974-2.721 7.756-7.578 7.756H38.88c-4.857 0-7.578-2.782-7.578-7.756V8.394c0-4.974 2.73-7.756 7.578-7.756z" fill="#000"/></svg>