<svg width="334" height="55" fill="none" xmlns="http://www.w3.org/2000/svg"><path d="M46.296 30.224V8.98C46.274 7.187 47.419 6 49.114 6s2.818 1.187 2.818 2.979l-.023 20.477c0 10.146 4.007 14.428 13.737 14.428l7.089-.024c1.695.024 2.818 1.187 2.818 2.979s-1.123 3.002-2.818 2.979h-7.903c-11.866.023-18.558-7.051-18.536-19.594zM141.748 6.35h4.096c11.865 0 18.492 7.028 18.513 19.593v21.292c-.021 1.792-1.122 2.956-2.817 2.956s-2.84-1.164-2.818-2.956l-.044-20.5c.022-10.17-3.963-14.381-13.671-14.381h-2.421c-9.709 0-13.738 4.188-13.738 14.38l.023 20.478c-.023 1.815-1.124 2.979-2.818 2.979-1.695 0-2.84-1.164-2.818-2.979v-21.27c-.022-12.565 6.649-19.593 18.513-19.593zm-123.234 0h4.095c11.27 0 18.492 6.353 18.492 18.314 0 11.867-7.221 18.336-18.492 18.313h-8.102c-1.716.023-2.817-1.187-2.817-2.978 0-1.792 1.1-2.956 2.818-2.98l7.264.024c9.114 0 13.671-3.653 13.671-12.38 0-8.726-4.557-12.31-13.67-12.31H19.35c-9.709 0-13.737 4.19-13.737 14.382l.022 20.477c-.022 1.815-1.123 2.979-2.818 2.979S-.022 49.026 0 47.21V25.942C-.022 13.377 6.65 6.35 18.514 6.35zm169.992 0h4.096c11.865 0 18.513 7.028 18.513 19.593v10.193c-.022 1.815-1.122 3.025-2.817 3.025s-2.84-1.21-2.818-3.025l-.044-9.425c.022-10.169-3.963-14.38-13.671-14.38h-2.421c-9.709 0-13.738 4.165-13.738 14.38v2.723c0 10.192 4.007 14.427 13.738 14.427h15.608c4.028 0 5.437 1.047 7.594 3.328l1.299 1.373c1.409 1.49 1.541 3.304.33 4.56-1.211 1.28-2.862 1.21-4.491-.534l-1.43-1.513c-.705-.721-1.344-1.28-3.104-1.303h-16.665c-11.844.023-18.514-7.028-18.514-19.593V25.92c.022-12.542 6.67-19.57 18.535-19.57zM82.091 26.734v2.722c0 10.192 4.006 14.428 13.737 14.428h2.421c9.708 0 13.671-4.236 13.671-14.428v-2.722c0-10.193-3.963-14.381-13.67-14.381h-2.422c-9.709 0-13.737 4.165-13.737 14.38zm12.9-20.385h4.095c11.865 0 18.513 7.028 18.513 19.593v4.259c0 12.566-6.648 19.593-18.513 19.593H94.99c-11.865 0-18.514-7.027-18.514-19.593v-4.259c0-12.565 6.67-19.593 18.514-19.593z" fill="#fff"/><path d="M318.025 2h-68.051C242.256 2 236 8.405 236 16.305v22.39c0 7.9 6.256 14.305 13.974 14.305h68.051C325.743 53 332 46.596 332 38.695v-22.39C332 8.405 325.743 2 318.025 2z" stroke="#fff" stroke-width="3"/><path d="M261.913 39c-2.933 0-5.571-1.175-7.913-3.526l1.645-1.811c2.09 2.033 4.189 3.05 6.299 3.05 1.583 0 2.87-.466 3.862-1.398.992-.932 1.488-2.128 1.488-3.59 0-1.377-.517-2.499-1.551-3.367-1.013-.869-2.332-1.303-3.957-1.303-1.519 0-3.07.424-4.653 1.271l-1.677-1.112.633-10.833h12.756v2.32h-10.572l-.475 7.115c1.498-.656 2.954-.985 4.368-.985 2.216 0 4.041.625 5.476 1.875 1.456 1.228 2.184 2.89 2.184 4.987 0 2.16-.738 3.918-2.216 5.274-1.477 1.355-3.376 2.033-5.697 2.033zm27.864-3.336c-1.73 2.224-3.988 3.336-6.774 3.336-2.785 0-5.043-1.101-6.773-3.304-1.71-2.224-2.564-4.956-2.564-8.196 0-3.198.865-5.909 2.595-8.133 1.752-2.245 4.02-3.367 6.806-3.367 2.785 0 5.032 1.112 6.742 3.336 1.709 2.202 2.564 4.924 2.564 8.164 0 3.198-.866 5.92-2.596 8.164zm-11.617-1.652c1.266 1.8 2.902 2.7 4.907 2.7 2.004 0 3.619-.889 4.842-2.668 1.246-1.8 1.868-3.981 1.868-6.544 0-2.52-.633-4.68-1.899-6.48-1.245-1.822-2.87-2.733-4.875-2.733s-3.629.9-4.874 2.7c-1.245 1.78-1.868 3.95-1.868 6.513 0 2.52.633 4.691 1.899 6.512zm34.244 1.652c-1.73 2.224-3.988 3.336-6.774 3.336-2.785 0-5.043-1.101-6.774-3.304-1.709-2.224-2.563-4.956-2.563-8.196 0-3.198.865-5.909 2.595-8.133 1.752-2.245 4.02-3.367 6.806-3.367 2.785 0 5.032 1.112 6.742 3.336C314.145 21.538 315 24.26 315 27.5c0 3.198-.866 5.92-2.596 8.164zm-11.617-1.652c1.266 1.8 2.902 2.7 4.907 2.7 2.004 0 3.619-.889 4.842-2.668 1.246-1.8 1.868-3.981 1.868-6.544 0-2.52-.633-4.68-1.899-6.48-1.245-1.822-2.87-2.733-4.875-2.733s-3.629.9-4.874 2.7c-1.245 1.78-1.868 3.95-1.868 6.513 0 2.52.633 4.691 1.899 6.512z" fill="#fff"/></svg>