<svg width="749" height="487" fill="none" xmlns="http://www.w3.org/2000/svg"><g filter="url(#filter0_i_448_3104)"><path d="M657.691 297.636a167.918 167.918 0 006.905-98.786c-.628-2.689-3.374-4.278-6.043-3.57l-29.478 7.818c-2.665.706-4.245 3.435-3.649 6.127a127.139 127.139 0 01-55.177 134.277 127.182 127.182 0 01-145.29-5.086c-2.208-1.656-5.35-1.341-7.092.8l-19.71 24.21c-1.743 2.142-1.424 5.298.768 6.977a167.984 167.984 0 00193.234 7.731 167.947 167.947 0 0065.532-80.498z" fill="#DED2B2"/></g><g filter="url(#filter1_i_448_3104)" fill="#C8BB93"><path d="M443.747 305.469c-1.516 2.315-.867 5.427 1.492 6.873a183.196 183.196 0 0043.176 19.29c2.643.791 5.387-.79 6.11-3.452l8.9-32.783c.724-2.663-.851-5.4-3.487-6.221a138.655 138.655 0 01-30.539-13.743c-2.363-1.429-5.458-.792-6.972 1.519l-18.68 28.517zm95.273-145.448l1.687-2.001a.152.152 0 00.032-.06c.047-.174-.186-.279-.285-.128l-1.434 2.189z"/></g><g filter="url(#filter2_i_448_3104)"><path d="M508.879 1.01a242.267 242.267 0 00-122.8 31.992c-2.394 1.37-3.161 4.442-1.745 6.81l17.522 29.306c1.418 2.373 4.49 3.138 6.896 1.776a198.252 198.252 0 0182.719-25.167 198.221 198.221 0 01112.485 25.099 198.693 198.693 0 0179.607 83.468 199.144 199.144 0 0119.897 113.705 199.006 199.006 0 01-46.519 105.614 198.46 198.46 0 01-97.256 61.927 198.177 198.177 0 01-115.211-2.634 198.404 198.404 0 01-64.688-35.786c-2.127-1.765-5.286-1.554-7.101.532l-22.408 25.746c-1.811 2.08-1.598 5.239.517 7.01a242.392 242.392 0 00115.238 53.199 242.195 242.195 0 00130.933-14.173 242.643 242.643 0 00104.246-80.613 243.248 243.248 0 0046.835-123.296 243.364 243.364 0 00-24.378-129.64 242.85 242.85 0 00-88.408-97.777A242.283 242.283 0 00508.879 1.01z" fill="#EDE7D7"/></g><g filter="url(#filter3_i_448_3104)"><path d="M504.589 243.995l-.003.003M346 427.883a242.953 242.953 0 01-58.668-75.772 243.362 243.362 0 01-24.378-129.64 243.244 243.244 0 0146.835-123.295A242.742 242.742 0 01381 34.897m-5.26 360.354a198.768 198.768 0 01-48.302-61.549 199.134 199.134 0 01-19.898-113.704 199 199 0 0146.52-105.615 198.555 198.555 0 0149.44-41.506" stroke="#F9F9F9" stroke-dasharray="10 10"/></g><path d="M158.909 354.998v-4.788h-10.612l-.504-1.092 11.2-13.86h1.316v13.692h3.192v1.26h-3.192v4.788h-1.4zm-9.352-6.048h9.352v-11.592l-9.352 11.592zm25.398 6.384c-2.427 0-4.387-.98-5.88-2.94-1.475-1.979-2.212-4.377-2.212-7.196 0-1.811.327-3.481.98-5.012.653-1.531 1.605-2.763 2.856-3.696 1.269-.952 2.707-1.428 4.312-1.428 2.427 0 4.377.989 5.852 2.968 1.493 1.96 2.24 4.349 2.24 7.168 0 1.811-.327 3.481-.98 5.012-.653 1.531-1.615 2.772-2.884 3.724-1.251.933-2.679 1.4-4.284 1.4zm-4.732-3.948c1.232 1.755 2.828 2.632 4.788 2.632 1.96 0 3.547-.868 4.76-2.604 1.213-1.755 1.82-3.827 1.82-6.216 0-2.389-.616-4.452-1.848-6.188-1.232-1.755-2.828-2.632-4.788-2.632-1.96 0-3.547.868-4.76 2.604-1.213 1.736-1.82 3.808-1.82 6.216 0 2.371.616 4.433 1.848 6.188zm18.283 3.612l14.392-19.6h1.512l-14.392 19.6h-1.512zm13.608.224c-1.251 0-2.277-.485-3.08-1.456-.803-.989-1.204-2.175-1.204-3.556 0-1.363.401-2.539 1.204-3.528.821-.989 1.867-1.484 3.136-1.484 1.251 0 2.277.495 3.08 1.484.803.989 1.204 2.165 1.204 3.528s-.411 2.539-1.232 3.528c-.803.989-1.839 1.484-3.108 1.484zm.056-1.204c.821 0 1.493-.364 2.016-1.092.541-.728.812-1.633.812-2.716 0-1.083-.28-1.988-.84-2.716-.56-.728-1.241-1.092-2.044-1.092-.821 0-1.503.373-2.044 1.12-.523.728-.784 1.624-.784 2.688 0 1.083.28 1.988.84 2.716.56.728 1.241 1.092 2.044 1.092zm-11.424-8.82c-1.251 0-2.277-.485-3.08-1.456-.803-.989-1.204-2.175-1.204-3.556 0-1.363.401-2.539 1.204-3.528.821-.989 1.867-1.484 3.136-1.484 1.251 0 2.277.495 3.08 1.484.803.989 1.204 2.165 1.204 3.528s-.411 2.539-1.232 3.528c-.803.989-1.839 1.484-3.108 1.484zm.056-1.204c.821 0 1.493-.364 2.016-1.092.541-.728.812-1.633.812-2.716 0-1.083-.28-1.988-.84-2.716-.56-.728-1.241-1.092-2.044-1.092-.821 0-1.503.373-2.044 1.12-.523.728-.784 1.624-.784 2.688 0 1.083.28 1.988.84 2.716.56.728 1.241 1.092 2.044 1.092zM67.529 378.998v-10.5h8.13v10.5h-.78v-9.78h-6.57v9.78h-.78zm11.085 0v-7.65h.735v2.94h2.28c.85 0 1.55.19 2.1.57.55.37.825.93.825 1.68 0 .74-.255 1.335-.765 1.785-.51.45-1.185.675-2.025.675h-3.15zm.735-.66h2.295c.65 0 1.165-.155 1.545-.465.38-.31.57-.745.57-1.305 0-.51-.195-.905-.585-1.185-.39-.29-.92-.435-1.59-.435h-2.235v3.39zm6.735.66v-7.65h.735v7.65h-.735zm5.45 0v-6.99H88.67v-.66h6.465v.66H92.27v6.99h-.735zm7.774.18c-.84 0-1.545-.21-2.115-.63-.56-.43-.84-1.03-.84-1.8 0-.78.305-1.39.915-1.83.61-.44 1.42-.66 2.43-.66.86 0 1.705.11 2.535.33v-.33c0-.76-.22-1.34-.66-1.74-.44-.4-1.06-.6-1.86-.6s-1.6.205-2.4.615l-.27-.645c.95-.44 1.855-.66 2.715-.66 1.05 0 1.855.28 2.415.84.52.52.78 1.24.78 2.16v4.77h-.72v-1.275c-.69.97-1.665 1.455-2.925 1.455zm.045-.69c.8 0 1.48-.22 2.04-.66.57-.45.855-1.015.855-1.695v-.87c-.9-.23-1.765-.345-2.595-.345-.8 0-1.42.165-1.86.495-.43.32-.645.76-.645 1.32 0 .55.2.98.6 1.29.4.31.935.465 1.605.465zm12.558.69c-1.06 0-1.925-.35-2.595-1.05-.66-.7-1.025-1.58-1.095-2.64h-1.89v3.51h-.735v-7.65h.735v3.465h1.89c.08-1.03.455-1.895 1.125-2.595.68-.7 1.545-1.05 2.595-1.05 1.1 0 1.99.39 2.67 1.17.68.77 1.02 1.715 1.02 2.835 0 1.11-.345 2.055-1.035 2.835-.68.78-1.575 1.17-2.685 1.17zm.03-.69c.88 0 1.58-.315 2.1-.945.53-.63.795-1.42.795-2.37 0-.94-.27-1.725-.81-2.355-.54-.64-1.245-.96-2.115-.96-.88 0-1.585.315-2.115.945-.52.63-.78 1.42-.78 2.37 0 .94.27 1.73.81 2.37.54.63 1.245.945 2.115.945zm7.88.51v-6.99h-2.865v-.66h6.465v.66h-2.865v6.99h-.735zm8.823.18c-1.1 0-2.025-.39-2.775-1.17-.75-.78-1.125-1.725-1.125-2.835 0-1.1.375-2.04 1.125-2.82.76-.79 1.685-1.185 2.775-1.185 1.19 0 2.205.475 3.045 1.425l-.51.525c-.82-.84-1.67-1.26-2.55-1.26-.85 0-1.58.325-2.19.975-.6.65-.9 1.43-.9 2.34 0 .92.305 1.705.915 2.355.61.64 1.355.96 2.235.96.91 0 1.755-.435 2.535-1.305l.54.48c-.89 1.01-1.93 1.515-3.12 1.515zm4.579-.18l2.415-3.045c-.64-.12-1.17-.385-1.59-.795-.41-.41-.615-.92-.615-1.53 0-.68.25-1.23.75-1.65.5-.42 1.185-.63 2.055-.63h3.42v7.65h-.735v-2.94h-2.52l-2.28 2.94h-.9zm3.15-3.6h2.55v-3.39h-2.58c-.66 0-1.18.15-1.56.45-.37.3-.555.705-.555 1.215 0 .52.2.94.6 1.26.4.31.915.465 1.545.465zm14.071 3.78c-1.12 0-2.04-.385-2.76-1.155-.72-.77-1.08-1.785-1.08-3.045 0-.51.005-.93.015-1.26.02-.34.055-.725.105-1.155.06-.43.15-.79.27-1.08.12-.3.275-.595.465-.885.2-.29.455-.53.765-.72.32-.2.69-.355 1.11-.465l4.35-1.095.21.66-4.2 1.11c-.81.21-1.39.545-1.74 1.005-.34.45-.55 1.125-.63 2.025.72-1.2 1.825-1.8 3.315-1.8 1.01 0 1.875.385 2.595 1.155.72.77 1.08 1.685 1.08 2.745 0 1.08-.37 2.01-1.11 2.79-.74.78-1.66 1.17-2.76 1.17zm.03-.69c.87 0 1.595-.315 2.175-.945.58-.63.87-1.395.87-2.295 0-.9-.3-1.665-.9-2.295a2.863 2.863 0 00-2.175-.945c-.87 0-1.595.315-2.175.945-.58.63-.87 1.395-.87 2.295 0 .9.295 1.665.885 2.295.6.63 1.33.945 2.19.945zm6.099 2.91v-10.05h.735v1.71c.83-1.26 1.88-1.89 3.15-1.89.98 0 1.845.37 2.595 1.11.75.73 1.125 1.695 1.125 2.895 0 1.19-.375 2.155-1.125 2.895-.75.74-1.615 1.11-2.595 1.11-1.3 0-2.35-.61-3.15-1.83v4.05h-.735zm3.81-2.925c.86 0 1.575-.295 2.145-.885.57-.6.855-1.405.855-2.415 0-.98-.295-1.775-.885-2.385-.58-.61-1.285-.915-2.115-.915-.83 0-1.56.315-2.19.945-.62.62-.93 1.41-.93 2.37 0 .95.31 1.735.93 2.355.63.62 1.36.93 2.19.93zm12.287-.48c-.75.79-1.685 1.185-2.805 1.185s-2.055-.39-2.805-1.17c-.74-.79-1.11-1.735-1.11-2.835 0-1.09.375-2.03 1.125-2.82.76-.79 1.7-1.185 2.82-1.185 1.12 0 2.05.395 2.79 1.185.75.78 1.125 1.72 1.125 2.82 0 1.09-.38 2.03-1.14 2.82zm-2.775.495c.85 0 1.58-.325 2.19-.975.62-.65.93-1.43.93-2.34 0-.92-.31-1.7-.93-2.34-.61-.65-1.35-.975-2.22-.975-.86 0-1.595.325-2.205.975-.61.64-.915 1.42-.915 2.34 0 .92.305 1.705.915 2.355.61.64 1.355.96 2.235.96zm9.55.69c-1.1 0-2.025-.39-2.775-1.17-.75-.78-1.125-1.725-1.125-2.835 0-1.1.375-2.04 1.125-2.82.76-.79 1.685-1.185 2.775-1.185 1.19 0 2.205.475 3.045 1.425l-.51.525c-.82-.84-1.67-1.26-2.55-1.26-.85 0-1.58.325-2.19.975-.6.65-.9 1.43-.9 2.34 0 .92.305 1.705.915 2.355.61.64 1.355.96 2.235.96.91 0 1.755-.435 2.535-1.305l.54.48c-.89 1.01-1.93 1.515-3.12 1.515zm5.194-.18v-7.65h.735v6.675l5.19-6.675h.735v7.65h-.735v-6.675l-5.19 6.675h-.735zm11.368 0v-6.99h-2.865v-.66h6.465v.66h-2.865v6.99h-.735zm5.449 0v-7.65h.735v2.94h2.28c.85 0 1.55.19 2.1.57.55.37.825.93.825 1.68 0 .74-.255 1.335-.765 1.785-.51.45-1.185.675-2.025.675h-3.15zm.735-.66h2.295c.65 0 1.165-.155 1.545-.465.38-.31.57-.745.57-1.305 0-.51-.195-.905-.585-1.185-.39-.29-.92-.435-1.59-.435h-2.235v3.39z" fill="#000"/><path d="M478 377.998H240" stroke="#000" stroke-width=".5"/><path d="M21.954 304.398v-3.12h1.125c.54-.75.955-1.785 1.245-3.105.29-1.33.435-2.815.435-4.455v-2.22h6.435v9.78h1.425l-.15 3.12h-.66v-2.4h-9.045l-.15 2.4h-.66zm2.025-3.12h6.435v-9.06h-4.89v2.07c0 1.42-.14 2.765-.42 4.035-.27 1.27-.645 2.255-1.125 2.955zm13.71.9c-1.03 0-1.916-.375-2.656-1.125-.73-.75-1.095-1.715-1.095-2.895 0-1.12.345-2.065 1.035-2.835.7-.77 1.565-1.155 2.595-1.155 1.05 0 1.895.38 2.535 1.14.65.76.975 1.715.975 2.865 0 .12-.005.22-.015.3h-6.345c.07.92.39 1.655.96 2.205.58.54 1.26.81 2.04.81 1 0 1.875-.4 2.625-1.2l.51.45c-.89.96-1.945 1.44-3.165 1.44zm-2.97-4.365h5.564c-.06-.84-.325-1.545-.795-2.115-.47-.57-1.12-.855-1.95-.855-.75 0-1.39.285-1.92.855-.53.56-.83 1.265-.9 2.115zm8.504 4.185v-7.65h.735v6.675l5.19-6.675h.735v7.65h-.735v-6.675l-5.19 6.675h-.735zm4.665-9.375c-.37.32-.815.48-1.335.48s-.965-.16-1.335-.48c-.37-.33-.6-.745-.69-1.245l.615-.135c.19.73.66 1.095 1.41 1.095.75 0 1.22-.365 1.41-1.095l.615.135c-.09.5-.32.915-.69 1.245zm8.158 9.555c-1.1 0-2.025-.39-2.775-1.17-.75-.78-1.125-1.725-1.125-2.835 0-1.1.375-2.04 1.125-2.82.76-.79 1.685-1.185 2.775-1.185 1.19 0 2.205.475 3.045 1.425l-.51.525c-.82-.84-1.67-1.26-2.55-1.26-.85 0-1.58.325-2.19.975-.6.65-.9 1.43-.9 2.34 0 .92.305 1.705.915 2.355.61.64 1.355.96 2.235.96.91 0 1.755-.435 2.535-1.305l.54.48c-.89 1.01-1.93 1.515-3.12 1.515zm7.115-.18v-6.99h-2.865v-.66h6.465v.66h-2.865v6.99h-.735zm5.448 0v-7.65h3.495c.75 0 1.35.175 1.8.525.45.34.675.8.675 1.38 0 .81-.43 1.395-1.29 1.755.51.13.925.355 1.245.675.32.32.48.73.48 1.23 0 .63-.25 1.135-.75 1.515-.5.38-1.165.57-1.995.57h-3.66zm.735-.66h2.835c.64 0 1.145-.135 1.515-.405.37-.28.555-.655.555-1.125 0-.45-.195-.8-.585-1.05-.38-.25-.935-.375-1.665-.375h-2.655v2.955zm0-3.57h2.655c.55 0 .99-.125 1.32-.375.34-.26.51-.625.51-1.095 0-.39-.155-.7-.465-.93-.31-.24-.75-.36-1.32-.36h-2.7v2.76zm7.966 4.23v-7.65h.735v6.675l5.19-6.675h.735v7.65h-.735v-6.675l-5.19 6.675h-.735zm11.368 0v-6.99h-2.865v-.66h6.465v.66h-2.865v6.99h-.735zm8.673.18c-1.03 0-1.915-.375-2.655-1.125-.73-.75-1.095-1.715-1.095-2.895 0-1.12.345-2.065 1.035-2.835.7-.77 1.565-1.155 2.595-1.155 1.05 0 1.895.38 2.535 1.14.65.76.975 1.715.975 2.865 0 .12-.005.22-.015.3h-6.345c.07.92.39 1.655.96 2.205.58.54 1.26.81 2.04.81 1 0 1.875-.4 2.625-1.2l.51.45c-.89.96-1.945 1.44-3.165 1.44zm-2.97-4.365h5.565c-.06-.84-.325-1.545-.795-2.115-.47-.57-1.12-.855-1.95-.855-.75 0-1.39.285-1.92.855-.53.56-.83 1.265-.9 2.115zm8.01 4.305c-.28 0-.56-.04-.84-.12l.135-.675c.25.07.445.105.585.105.2 0 .36-.02.48-.06.13-.05.27-.145.42-.285.15-.14.27-.36.36-.66.09-.3.175-.69.255-1.17.09-.48.155-1.095.195-1.845.04-.75.06-1.635.06-2.655v-.405h5.205v7.65h-.735v-6.99h-3.765v.21c0 1.24-.04 2.29-.12 3.15-.08.86-.18 1.535-.3 2.025-.12.48-.29.855-.51 1.125-.22.26-.435.425-.645.495-.2.07-.46.105-.78.105zm9.65-.12v-7.65h.735v2.94h2.28c.85 0 1.55.19 2.1.57.55.37.825.93.825 1.68 0 .74-.255 1.335-.765 1.785-.51.45-1.185.675-2.025.675h-3.15zm.735-.66h2.295c.65 0 1.165-.155 1.545-.465.38-.31.57-.745.57-1.305 0-.51-.195-.905-.585-1.185-.39-.29-.92-.435-1.59-.435h-2.235v3.39zm7.205.66v-7.65h.735v3.405h5.085v-3.405h.735v7.65h-.735v-3.585h-5.085v3.585h-.735zm15.541-1.005c-.75.79-1.685 1.185-2.805 1.185s-2.055-.39-2.805-1.17c-.74-.79-1.11-1.735-1.11-2.835 0-1.09.375-2.03 1.125-2.82.76-.79 1.7-1.185 2.82-1.185 1.12 0 2.05.395 2.79 1.185.75.78 1.125 1.72 1.125 2.82 0 1.09-.38 2.03-1.14 2.82zm-2.775.495c.85 0 1.58-.325 2.19-.975.62-.65.93-1.43.93-2.34 0-.92-.31-1.7-.93-2.34-.61-.65-1.35-.975-2.22-.975-.86 0-1.595.325-2.205.975-.61.64-.915 1.42-.915 2.34 0 .92.305 1.705.915 2.355.61.64 1.355.96 2.235.96zm14.166.69c-1.12 0-2.04-.385-2.76-1.155-.72-.77-1.08-1.785-1.08-3.045 0-.51.005-.93.015-1.26.02-.34.055-.725.105-1.155.06-.43.15-.79.27-1.08.12-.3.275-.595.465-.885.2-.29.455-.53.765-.72.32-.2.69-.355 1.11-.465l4.35-1.095.21.66-4.2 1.11c-.81.21-1.39.545-1.74 1.005-.34.45-.55 1.125-.63 2.025.72-1.2 1.825-1.8 3.315-1.8 1.01 0 1.875.385 2.595 1.155.72.77 1.08 1.685 1.08 2.745 0 1.08-.37 2.01-1.11 2.79-.74.78-1.66 1.17-2.76 1.17zm.03-.69c.87 0 1.595-.315 2.175-.945.58-.63.87-1.395.87-2.295 0-.9-.3-1.665-.9-2.295a2.863 2.863 0 00-2.175-.945c-.87 0-1.595.315-2.175.945-.58.63-.87 1.395-.87 2.295 0 .9.295 1.665.885 2.295.6.63 1.33.945 2.19.945zm6.099 2.91v-10.05h.735v1.71c.83-1.26 1.88-1.89 3.15-1.89.98 0 1.845.37 2.595 1.11.75.73 1.125 1.695 1.125 2.895 0 1.19-.375 2.155-1.125 2.895-.75.74-1.615 1.11-2.595 1.11-1.3 0-2.35-.61-3.15-1.83v4.05h-.735zm3.81-2.925c.86 0 1.575-.295 2.145-.885.57-.6.855-1.405.855-2.415 0-.98-.295-1.775-.885-2.385-.58-.61-1.285-.915-2.115-.915-.83 0-1.56.315-2.19.945-.62.62-.93 1.41-.93 2.37 0 .95.31 1.735.93 2.355.63.62 1.36.93 2.19.93zm12.288-.48c-.75.79-1.685 1.185-2.805 1.185s-2.055-.39-2.805-1.17c-.74-.79-1.11-1.735-1.11-2.835 0-1.09.375-2.03 1.125-2.82.76-.79 1.7-1.185 2.82-1.185 1.12 0 2.05.395 2.79 1.185.75.78 1.125 1.72 1.125 2.82 0 1.09-.38 2.03-1.14 2.82zm-2.775.495c.85 0 1.58-.325 2.19-.975.62-.65.93-1.43.93-2.34 0-.92-.31-1.7-.93-2.34-.61-.65-1.35-.975-2.22-.975-.86 0-1.595.325-2.205.975-.61.64-.915 1.42-.915 2.34 0 .92.305 1.705.915 2.355.61.64 1.355.96 2.235.96zm9.55.69c-1.1 0-2.025-.39-2.775-1.17-.75-.78-1.125-1.725-1.125-2.835 0-1.1.375-2.04 1.125-2.82.76-.79 1.685-1.185 2.775-1.185 1.19 0 2.205.475 3.045 1.425l-.51.525c-.82-.84-1.67-1.26-2.55-1.26-.85 0-1.58.325-2.19.975-.6.65-.9 1.43-.9 2.34 0 .92.305 1.705.915 2.355.61.64 1.355.96 2.235.96.91 0 1.755-.435 2.535-1.305l.54.48c-.89 1.01-1.93 1.515-3.12 1.515zm7.519 0c-.84 0-1.545-.21-2.115-.63-.56-.43-.84-1.03-.84-1.8 0-.78.305-1.39.915-1.83.61-.44 1.42-.66 2.43-.66.86 0 1.705.11 2.535.33v-.33c0-.76-.22-1.34-.66-1.74-.44-.4-1.06-.6-1.86-.6s-1.6.205-2.4.615l-.27-.645c.95-.44 1.855-.66 2.715-.66 1.05 0 1.855.28 2.415.84.52.52.78 1.24.78 2.16v4.77h-.72v-1.275c-.69.97-1.665 1.455-2.925 1.455zm.045-.69c.8 0 1.48-.22 2.04-.66.57-.45.855-1.015.855-1.695v-.87c-.9-.23-1.765-.345-2.595-.345-.8 0-1.42.165-1.86.495-.43.32-.645.76-.645 1.32 0 .55.2.98.6 1.29.4.31.935.465 1.605.465zm12.558.69c-1.06 0-1.925-.35-2.595-1.05-.66-.7-1.025-1.58-1.095-2.64h-1.89v3.51h-.735v-7.65h.735v3.465h1.89c.08-1.03.455-1.895 1.125-2.595.68-.7 1.545-1.05 2.595-1.05 1.1 0 1.99.39 2.67 1.17.68.77 1.02 1.715 1.02 2.835 0 1.11-.345 2.055-1.035 2.835-.68.78-1.575 1.17-2.685 1.17zm.03-.69c.88 0 1.58-.315 2.1-.945.53-.63.795-1.42.795-2.37 0-.94-.27-1.725-.81-2.355-.54-.64-1.245-.96-2.115-.96-.88 0-1.585.315-2.115.945-.52.63-.78 1.42-.78 2.37 0 .94.27 1.73.81 2.37.54.63 1.245.945 2.115.945zm7.88.51v-6.99h-2.865v-.66h6.465v.66h-2.865v6.99h-.735zm-27.522-23.664a8.377 8.377 0 01-3.696-.868 11.74 11.74 0 01-3.164-2.296l1.036-1.036c1.922 1.923 3.882 2.884 5.88 2.884 1.53 0 2.79-.476 3.78-1.428.989-.952 1.484-2.137 1.484-3.556 0-1.363-.504-2.473-1.512-3.332-.99-.877-2.278-1.316-3.864-1.316-1.438 0-2.912.411-4.424 1.232l-1.12-.728.56-9.492h11.004v1.4h-9.716l-.476 7.336c1.456-.709 2.902-1.064 4.34-1.064 1.922 0 3.518.56 4.788 1.68 1.288 1.101 1.932 2.529 1.932 4.284 0 1.848-.644 3.36-1.932 4.536-1.288 1.176-2.922 1.764-4.9 1.764zm12.081-.336l14.392-19.6h1.512l-14.392 19.6h-1.512zm13.608.224c-1.251 0-2.277-.485-3.08-1.456-.803-.989-1.204-2.175-1.204-3.556 0-1.363.401-2.539 1.204-3.528.821-.989 1.867-1.484 3.136-1.484 1.251 0 2.277.495 3.08 1.484.803.989 1.204 2.165 1.204 3.528s-.411 2.539-1.232 3.528c-.803.989-1.839 1.484-3.108 1.484zm.056-1.204c.821 0 1.493-.364 2.016-1.092.541-.728.812-1.633.812-2.716 0-1.083-.28-1.988-.84-2.716-.56-.728-1.241-1.092-2.044-1.092-.821 0-1.503.373-2.044 1.12-.523.728-.784 1.624-.784 2.688 0 1.083.28 1.988.84 2.716.56.728 1.241 1.092 2.044 1.092zm-11.424-8.82c-1.251 0-2.277-.485-3.08-1.456-.803-.989-1.204-2.175-1.204-3.556 0-1.363.401-2.539 1.204-3.528.821-.989 1.867-1.484 3.136-1.484 1.251 0 2.277.495 3.08 1.484.803.989 1.204 2.165 1.204 3.528s-.411 2.539-1.232 3.528c-.803.989-1.839 1.484-3.108 1.484zm.056-1.204c.821 0 1.493-.364 2.016-1.092.541-.728.812-1.633.812-2.716 0-1.083-.28-1.988-.84-2.716-.56-.728-1.241-1.092-2.044-1.092-.821 0-1.503.373-2.044 1.12-.523.728-.784 1.624-.784 2.688 0 1.083.28 1.988.84 2.716.56.728 1.241 1.092 2.044 1.092z" fill="#000"/><path d="M240 300.998h240" stroke="#000" stroke-width=".5"/><path d="M153.524 431.998l8.904-18.2H151.06v-1.4h12.992v1.064l-8.932 18.536h-1.596zm21.431.336c-2.427 0-4.387-.98-5.88-2.94-1.475-1.979-2.212-4.377-2.212-7.196 0-1.811.327-3.481.98-5.012.653-1.531 1.605-2.763 2.856-3.696 1.269-.952 2.707-1.428 4.312-1.428 2.427 0 4.377.989 5.852 2.968 1.493 1.96 2.24 4.349 2.24 7.168 0 1.811-.327 3.481-.98 5.012-.653 1.531-1.615 2.772-2.884 3.724-1.251.933-2.679 1.4-4.284 1.4zm-4.732-3.948c1.232 1.755 2.828 2.632 4.788 2.632 1.96 0 3.547-.868 4.76-2.604 1.213-1.755 1.82-3.827 1.82-6.216 0-2.389-.616-4.452-1.848-6.188-1.232-1.755-2.828-2.632-4.788-2.632-1.96 0-3.547.868-4.76 2.604-1.213 1.736-1.82 3.808-1.82 6.216 0 2.371.616 4.433 1.848 6.188zm18.283 3.612l14.392-19.6h1.512l-14.392 19.6h-1.512zm13.608.224c-1.251 0-2.277-.485-3.08-1.456-.803-.989-1.204-2.175-1.204-3.556 0-1.363.401-2.539 1.204-3.528.821-.989 1.867-1.484 3.136-1.484 1.251 0 2.277.495 3.08 1.484.803.989 1.204 2.165 1.204 3.528s-.411 2.539-1.232 3.528c-.803.989-1.839 1.484-3.108 1.484zm.056-1.204c.821 0 1.493-.364 2.016-1.092.541-.728.812-1.633.812-2.716 0-1.083-.28-1.988-.84-2.716-.56-.728-1.241-1.092-2.044-1.092-.821 0-1.503.373-2.044 1.12-.523.728-.784 1.624-.784 2.688 0 1.083.28 1.988.84 2.716.56.728 1.241 1.092 2.044 1.092zm-11.424-8.82c-1.251 0-2.277-.485-3.08-1.456-.803-.989-1.204-2.175-1.204-3.556 0-1.363.401-2.539 1.204-3.528.821-.989 1.867-1.484 3.136-1.484 1.251 0 2.277.495 3.08 1.484.803.989 1.204 2.165 1.204 3.528s-.411 2.539-1.232 3.528c-.803.989-1.839 1.484-3.108 1.484zm.056-1.204c.821 0 1.493-.364 2.016-1.092.541-.728.812-1.633.812-2.716 0-1.083-.28-1.988-.84-2.716-.56-.728-1.241-1.092-2.044-1.092-.821 0-1.503.373-2.044 1.12-.523.728-.784 1.624-.784 2.688 0 1.083.28 1.988.84 2.716.56.728 1.241 1.092 2.044 1.092zm-92.75 35.004l4.185-5.355-4.035-5.145h.93l3.585 4.62 3.57-4.62h.915l-4.02 5.13 4.17 5.37h-.93l-3.735-4.845-3.72 4.845h-.915zm17.65-1.005c-.75.79-1.685 1.185-2.805 1.185s-2.055-.39-2.805-1.17c-.74-.79-1.11-1.735-1.11-2.835 0-1.09.375-2.03 1.125-2.82.76-.79 1.7-1.185 2.82-1.185 1.12 0 2.05.395 2.79 1.185.75.78 1.125 1.72 1.125 2.82 0 1.09-.38 2.03-1.14 2.82zm-2.775.495c.85 0 1.58-.325 2.19-.975.62-.65.93-1.43.93-2.34 0-.92-.31-1.7-.93-2.34-.61-.65-1.35-.975-2.22-.975-.86 0-1.595.325-2.205.975-.61.64-.915 1.42-.915 2.34 0 .92.305 1.705.915 2.355.61.64 1.355.96 2.235.96zm8.095.51v-6.99h-2.865v-.66h6.465v.66h-2.865v6.99h-.735zm4.833 0l2.415-3.045c-.64-.12-1.17-.385-1.59-.795-.41-.41-.615-.92-.615-1.53 0-.68.25-1.23.75-1.65.5-.42 1.185-.63 2.055-.63h3.42v7.65h-.735v-2.94h-2.52l-2.28 2.94h-.9zm3.15-3.6h2.55v-3.39h-2.58c-.66 0-1.18.15-1.56.45-.37.3-.555.705-.555 1.215 0 .52.2.94.6 1.26.4.31.915.465 1.545.465zm7.998 3.6v-6.99h-2.865v-.66h6.465v.66h-2.865v6.99h-.735zm13.441.18c-1.12 0-2.04-.385-2.76-1.155-.72-.77-1.08-1.785-1.08-3.045 0-.51.005-.93.015-1.26.02-.34.055-.725.105-1.155.06-.43.15-.79.27-1.08.12-.3.275-.595.465-.885.2-.29.455-.53.765-.72.32-.2.69-.355 1.11-.465l4.35-1.095.21.66-4.2 1.11c-.81.21-1.39.545-1.74 1.005-.34.45-.55 1.125-.63 2.025.72-1.2 1.825-1.8 3.315-1.8 1.01 0 1.875.385 2.595 1.155.72.77 1.08 1.685 1.08 2.745 0 1.08-.37 2.01-1.11 2.79-.74.78-1.66 1.17-2.76 1.17zm.03-.69c.87 0 1.595-.315 2.175-.945.58-.63.87-1.395.87-2.295 0-.9-.3-1.665-.9-2.295a2.863 2.863 0 00-2.175-.945c-.87 0-1.595.315-2.175.945-.58.63-.87 1.395-.87 2.295 0 .9.295 1.665.885 2.295.6.63 1.33.945 2.19.945zm6.099 2.91v-10.05h.735v1.71c.83-1.26 1.88-1.89 3.15-1.89.98 0 1.845.37 2.595 1.11.75.73 1.125 1.695 1.125 2.895 0 1.19-.375 2.155-1.125 2.895-.75.74-1.615 1.11-2.595 1.11-1.3 0-2.35-.61-3.15-1.83v4.05h-.735zm3.81-2.925c.86 0 1.575-.295 2.145-.885.57-.6.855-1.405.855-2.415 0-.98-.295-1.775-.885-2.385-.58-.61-1.285-.915-2.115-.915-.83 0-1.56.315-2.19.945-.62.62-.93 1.41-.93 2.37 0 .95.31 1.735.93 2.355.63.62 1.36.93 2.19.93zm12.287-.48c-.75.79-1.685 1.185-2.805 1.185s-2.055-.39-2.805-1.17c-.74-.79-1.11-1.735-1.11-2.835 0-1.09.375-2.03 1.125-2.82.76-.79 1.7-1.185 2.82-1.185 1.12 0 2.05.395 2.79 1.185.75.78 1.125 1.72 1.125 2.82 0 1.09-.38 2.03-1.14 2.82zm-2.775.495c.85 0 1.58-.325 2.19-.975.62-.65.93-1.43.93-2.34 0-.92-.31-1.7-.93-2.34-.61-.65-1.35-.975-2.22-.975-.86 0-1.595.325-2.205.975-.61.64-.915 1.42-.915 2.34 0 .92.305 1.705.915 2.355.61.64 1.355.96 2.235.96zm9.55.69c-1.1 0-2.025-.39-2.775-1.17-.75-.78-1.125-1.725-1.125-2.835 0-1.1.375-2.04 1.125-2.82.76-.79 1.685-1.185 2.775-1.185 1.19 0 2.205.475 3.045 1.425l-.51.525c-.82-.84-1.67-1.26-2.55-1.26-.85 0-1.58.325-2.19.975-.6.65-.9 1.43-.9 2.34 0 .92.305 1.705.915 2.355.61.64 1.355.96 2.235.96.91 0 1.755-.435 2.535-1.305l.54.48c-.89 1.01-1.93 1.515-3.12 1.515zm5.194-.18v-7.65h.735v6.675l5.19-6.675h.735v7.65h-.735v-6.675l-5.19 6.675h-.735zm11.368 0v-6.99h-2.865v-.66h6.465v.66h-2.865v6.99h-.735zm5.449 0v-7.65h.735v2.94h2.28c.85 0 1.55.19 2.1.57.55.37.825.93.825 1.68 0 .74-.255 1.335-.765 1.785-.51.45-1.185.675-2.025.675h-3.15zm.735-.66h2.295c.65 0 1.165-.155 1.545-.465.38-.31.57-.745.57-1.305 0-.51-.195-.905-.585-1.185-.39-.29-.92-.435-1.59-.435h-2.235v3.39z" fill="#000"/><path d="M478 455.998H240" stroke="#000" stroke-width=".5"/><defs><filter id="filter0_i_448_3104" x="397.037" y="195.111" width="276.963" height="214.887" filterUnits="userSpaceOnUse" color-interpolation-filters="sRGB"><feFlood flood-opacity="0" result="BackgroundImageFix"/><feBlend in="SourceGraphic" in2="BackgroundImageFix" result="shape"/><feColorMatrix in="SourceAlpha" values="0 0 0 0 0 0 0 0 0 0 0 0 0 0 0 0 0 0 127 0" result="hardAlpha"/><feOffset dx="5" dy="5"/><feGaussianBlur stdDeviation="5"/><feComposite in2="hardAlpha" operator="arithmetic" k2="-1" k3="1"/><feColorMatrix values="0 0 0 0 0.783319 0 0 0 0 0.732705 0 0 0 0 0.576644 0 0 0 0.3 0"/><feBlend mode="multiply" in2="shape" result="effect1_innerShadow_448_3104"/></filter><filter id="filter1_i_448_3104" x="442.93" y="157.76" width="102.815" height="179.076" filterUnits="userSpaceOnUse" color-interpolation-filters="sRGB"><feFlood flood-opacity="0" result="BackgroundImageFix"/><feBlend in="SourceGraphic" in2="BackgroundImageFix" result="shape"/><feColorMatrix in="SourceAlpha" values="0 0 0 0 0 0 0 0 0 0 0 0 0 0 0 0 0 0 127 0" result="hardAlpha"/><feOffset dx="5" dy="5"/><feGaussianBlur stdDeviation="5"/><feComposite in2="hardAlpha" operator="arithmetic" k2="-1" k3="1"/><feColorMatrix values="0 0 0 0 0.783319 0 0 0 0 0.732705 0 0 0 0 0.576644 0 0 0 0.4 0"/><feBlend mode="multiply" in2="shape" result="effect1_innerShadow_448_3104"/></filter><filter id="filter2_i_448_3104" x="349.051" y=".998" width="404.949" height="491" filterUnits="userSpaceOnUse" color-interpolation-filters="sRGB"><feFlood flood-opacity="0" result="BackgroundImageFix"/><feBlend in="SourceGraphic" in2="BackgroundImageFix" result="shape"/><feColorMatrix in="SourceAlpha" values="0 0 0 0 0 0 0 0 0 0 0 0 0 0 0 0 0 0 127 0" result="hardAlpha"/><feOffset dx="5" dy="5"/><feGaussianBlur stdDeviation="5"/><feComposite in2="hardAlpha" operator="arithmetic" k2="-1" k3="1"/><feColorMatrix values="0 0 0 0 0.783319 0 0 0 0 0.732705 0 0 0 0 0.576644 0 0 0 0.2 0"/><feBlend mode="multiply" in2="shape" result="effect1_innerShadow_448_3104"/></filter><filter id="filter3_i_448_3104" x="261" y="34.037" width="249.2" height="399.602" filterUnits="userSpaceOnUse" color-interpolation-filters="sRGB"><feFlood flood-opacity="0" result="BackgroundImageFix"/><feBlend in="SourceGraphic" in2="BackgroundImageFix" result="shape"/><feColorMatrix in="SourceAlpha" values="0 0 0 0 0 0 0 0 0 0 0 0 0 0 0 0 0 0 127 0" result="hardAlpha"/><feOffset dx="5" dy="5"/><feGaussianBlur stdDeviation="5"/><feComposite in2="hardAlpha" operator="arithmetic" k2="-1" k3="1"/><feColorMatrix values="0 0 0 0 0.783319 0 0 0 0 0.732705 0 0 0 0 0.576644 0 0 0 0.2 0"/><feBlend mode="multiply" in2="shape" result="effect1_innerShadow_448_3104"/></filter></defs></svg>