<svg width="776" height="606" fill="none" xmlns="http://www.w3.org/2000/svg"><path d="M57.597 37.213v530.579h652.976" stroke="#484848"/><path d="M59.35 4.288h2.04v5.175c0 .25-.005.53-.015.84l-.03.915c-.01.29-.02.545-.03.765-.01.21-.02.355-.03.435h.045l4.95-8.13h2.715v10.71H66.97V9.853c0-.27.005-.565.015-.885l.03-.945c.02-.3.035-.56.045-.78.02-.23.035-.38.045-.45h-.06l-4.965 8.205h-2.73V4.288zm14.404 2.52v3.15h3.12v-3.15h2.235v8.19h-2.235v-3.375h-3.12v3.375h-2.235v-8.19h2.235zm14.476 1.68h-2.685v6.51H83.31v-6.51h-2.685v-1.68h7.605v1.68zm4.74-1.83c.76 0 1.41.145 1.95.435.55.29.975.71 1.275 1.26.3.55.45 1.225.45 2.025v1.08h-5.28c.02.63.205 1.125.555 1.485.36.36.855.54 1.485.54.53 0 1.01-.05 1.44-.15.43-.11.875-.275 1.335-.495v1.725c-.4.2-.825.345-1.275.435-.44.1-.975.15-1.605.15-.82 0-1.545-.15-2.175-.45a3.445 3.445 0 01-1.485-1.395c-.36-.62-.54-1.4-.54-2.34 0-.96.16-1.755.48-2.385.33-.64.785-1.12 1.365-1.44.58-.32 1.255-.48 2.025-.48zm.015 1.59c-.43 0-.79.14-1.08.42-.28.28-.445.715-.495 1.305h3.135c0-.33-.06-.625-.18-.885a1.34 1.34 0 00-.51-.615c-.23-.15-.52-.225-.87-.225zm7.707-1.44v3.15h3.12v-3.15h2.235v8.19h-2.235v-3.375h-3.12v3.375h-2.235v-8.19h2.235zm11.027 8.34c-.81 0-1.5-.145-2.07-.435-.57-.3-1.005-.76-1.305-1.38-.3-.62-.45-1.415-.45-2.385 0-1 .17-1.815.51-2.445.34-.63.81-1.095 1.41-1.395.61-.3 1.31-.45 2.1-.45.56 0 1.045.055 1.455.165.42.11.785.24 1.095.39l-.66 1.725c-.35-.14-.68-.255-.99-.345-.3-.09-.6-.135-.9-.135-.39 0-.715.095-.975.285-.26.18-.455.455-.585.825-.12.36-.18.815-.18 1.365 0 .54.065.99.195 1.35.14.35.34.615.6.795.26.17.575.255.945.255.47 0 .885-.06 1.245-.18.36-.13.71-.305 1.05-.525v1.905c-.34.22-.7.375-1.08.465-.37.1-.84.15-1.41.15zm6.535-5.1c0 .17-.01.38-.03.63-.01.25-.025.505-.045.765-.01.26-.025.49-.045.69-.02.2-.035.34-.045.42l3.78-5.745h2.685v8.19h-2.16v-3.27c0-.27.01-.565.03-.885.02-.33.04-.635.06-.915.03-.29.05-.51.06-.66l-3.765 5.73h-2.685v-8.19h2.16v3.24zm15.896-1.095c0 .44-.14.815-.42 1.125-.27.31-.675.51-1.215.6v.06c.57.07 1.025.265 1.365.585.35.32.525.73.525 1.23 0 .35-.07.675-.21.975-.13.3-.34.56-.63.78-.29.22-.665.39-1.125.51-.45.12-1 .18-1.65.18h-3.9v-8.19h3.9c.64 0 1.21.07 1.71.21.51.13.91.35 1.2.66.3.31.45.735.45 1.275zm-2.055 3.48c0-.32-.125-.55-.375-.69-.25-.15-.625-.225-1.125-.225h-1.47v1.935h1.515c.42 0 .765-.075 1.035-.225.28-.16.42-.425.42-.795zm-.21-3.3c0-.26-.1-.45-.3-.57-.2-.12-.495-.18-.885-.18h-1.575v1.62h1.32c.47 0 .825-.065 1.065-.195.25-.14.375-.365.375-.675zm6.673-2.325v3.15h3.12v-3.15h2.235v8.19h-2.235v-3.375h-3.12v3.375h-2.235v-8.19h2.235zm15.137 4.08c0 .68-.095 1.285-.285 1.815-.18.53-.445.98-.795 1.35-.34.36-.755.635-1.245.825-.49.18-1.045.27-1.665.27-.57 0-1.1-.09-1.59-.27a3.522 3.522 0 01-1.245-.825c-.35-.37-.625-.82-.825-1.35-.19-.53-.285-1.135-.285-1.815 0-.91.16-1.675.48-2.295.32-.63.78-1.11 1.38-1.44.6-.33 1.31-.495 2.13-.495.77 0 1.45.165 2.04.495.59.33 1.055.81 1.395 1.44.34.62.51 1.385.51 2.295zm-5.655 0c0 .54.055.995.165 1.365.12.36.305.635.555.825.25.18.575.27.975.27s.72-.09.96-.27c.25-.19.43-.465.54-.825.12-.37.18-.825.18-1.365s-.06-.99-.18-1.35c-.11-.36-.29-.63-.54-.81-.25-.18-.575-.27-.975-.27-.59 0-1.02.205-1.29.615-.26.4-.39 1.005-.39 1.815zm10.832 4.26c-.81 0-1.5-.145-2.07-.435-.57-.3-1.005-.76-1.305-1.38-.3-.62-.45-1.415-.45-2.385 0-1 .17-1.815.51-2.445.34-.63.81-1.095 1.41-1.395.61-.3 1.31-.45 2.1-.45.56 0 1.045.055 1.455.165.42.11.785.24 1.095.39l-.66 1.725c-.35-.14-.68-.255-.99-.345-.3-.09-.6-.135-.9-.135-.39 0-.715.095-.975.285-.26.18-.455.455-.585.825-.12.36-.18.815-.18 1.365 0 .54.065.99.195 1.35.14.35.34.615.6.795.26.17.575.255.945.255.47 0 .885-.06 1.245-.18.36-.13.71-.305 1.05-.525v1.905c-.34.22-.7.375-1.08.465-.37.1-.84.15-1.41.15zm11.155-6.66h-2.685v6.51h-2.235v-6.51h-2.685v-1.68h7.605v1.68zm5.321 1.485c.84 0 1.535.09 2.085.27.55.17.955.435 1.215.795.27.36.405.81.405 1.35 0 .53-.125.99-.375 1.38-.24.39-.625.695-1.155.915-.53.21-1.225.315-2.085.315h-3.9v-8.19h2.235v3.165h1.575zm1.47 2.445c0-.32-.13-.55-.39-.69-.25-.14-.625-.21-1.125-.21h-1.53v1.935h1.56c.44 0 .795-.08 1.065-.24.28-.16.42-.425.42-.795zm12.16-5.61h2.46l-3.24 3.93 3.525 4.26h-2.535l-3.345-4.155v4.155h-2.235v-8.19h2.235v3.975l3.135-3.975zm2.748 0h2.445l1.545 4.605c.05.15.09.3.12.45.04.15.07.305.09.465.03.16.05.33.06.51h.045c.03-.26.07-.505.12-.735.06-.24.125-.47.195-.69l1.515-4.605h2.4l-3.465 9.24a4.41 4.41 0 01-.825 1.41c-.33.38-.715.665-1.155.855-.44.19-.92.285-1.44.285-.25 0-.47-.015-.66-.045-.18-.02-.34-.045-.48-.075v-1.77c.11.02.24.04.39.06.16.02.325.03.495.03.31 0 .575-.065.795-.195.23-.13.42-.31.57-.54.15-.22.27-.46.36-.72l.135-.405-3.255-8.13zm14.27-.15c.92 0 1.665.36 2.235 1.08.57.71.855 1.76.855 3.15 0 .93-.135 1.715-.405 2.355-.27.63-.64 1.105-1.11 1.425-.47.32-1.015.48-1.635.48-.39 0-.73-.05-1.02-.15-.28-.1-.52-.23-.72-.39-.2-.16-.375-.33-.525-.51h-.12a6.026 6.026 0 01.12 1.2v3.3h-2.235V6.808h1.815l.315 1.065h.105c.15-.22.33-.42.54-.6.21-.19.46-.34.75-.45.3-.11.645-.165 1.035-.165zm-.72 1.785c-.39 0-.7.08-.93.24-.23.16-.4.405-.51.735-.1.32-.155.725-.165 1.215v.24c0 .53.05.98.15 1.35.1.36.27.635.51.825.24.19.565.285.975.285.34 0 .62-.095.84-.285.22-.19.385-.47.495-.84.11-.37.165-.82.165-1.35 0-.8-.125-1.4-.375-1.8-.24-.41-.625-.615-1.155-.615zm9.027-1.785c.76 0 1.41.145 1.95.435.55.29.975.71 1.275 1.26.3.55.45 1.225.45 2.025v1.08h-5.28c.02.63.205 1.125.555 1.485.36.36.855.54 1.485.54.53 0 1.01-.05 1.44-.15.43-.11.875-.275 1.335-.495v1.725c-.4.2-.825.345-1.275.435-.44.1-.975.15-1.605.15-.82 0-1.545-.15-2.175-.45a3.445 3.445 0 01-1.485-1.395c-.36-.62-.54-1.4-.54-2.34 0-.96.16-1.755.48-2.385.33-.64.785-1.12 1.365-1.44.58-.32 1.255-.48 2.025-.48zm.015 1.59c-.43 0-.79.14-1.08.42-.28.28-.445.715-.495 1.305h3.135c0-.33-.06-.625-.18-.885a1.34 1.34 0 00-.51-.615c-.23-.15-.52-.225-.87-.225zm7.707-1.44v3.15h3.12v-3.15h2.235v8.19h-2.235v-3.375h-3.12v3.375h-2.235v-8.19h2.235zm9.857 3.24c0 .17-.01.38-.03.63-.01.25-.025.505-.045.765-.01.26-.025.49-.045.69-.02.2-.035.34-.045.42l3.78-5.745h2.685v8.19h-2.16v-3.27c0-.27.01-.565.03-.885.02-.33.04-.635.06-.915.03-.29.05-.51.06-.66l-3.765 5.73h-2.685v-8.19h2.16v3.24zm9.881 4.95h-2.415l2.205-3.24c-.28-.12-.545-.28-.795-.48a2.383 2.383 0 01-.585-.795c-.15-.32-.225-.7-.225-1.14 0-.82.31-1.445.93-1.875.62-.44 1.415-.66 2.385-.66h3.81v8.19h-2.235v-3.045h-1.23l-1.845 3.045zm.375-5.64c0 .34.135.61.405.81.27.19.62.285 1.05.285h1.245v-2.07h-1.53c-.4 0-.695.1-.885.3a.923.923 0 00-.285.675zm495.597 550.66v8.82h1.425v5.01h-2.19v-3.12h-6.705v3.12h-2.19v-5.01h.825c.28-.56.55-1.15.81-1.77.26-.62.5-1.285.72-1.995.23-.71.435-1.48.615-2.31.18-.84.33-1.755.45-2.745h6.24zm-4.44 1.89c-.07.52-.17 1.075-.3 1.665-.13.58-.285 1.175-.465 1.785-.17.61-.36 1.21-.57 1.8-.21.59-.435 1.15-.675 1.68h4.185v-6.93h-2.175zm9.565.63v3.15h3.12v-3.15h2.235v8.19h-2.235v-3.375h-3.12v3.375h-2.235v-8.19h2.235zm9.857 3.24c0 .17-.01.38-.03.63-.01.25-.025.505-.045.765-.01.26-.025.49-.045.69-.02.2-.035.34-.045.42l3.78-5.745h2.685v8.19h-2.16v-3.27c0-.27.01-.565.03-.885.02-.33.04-.635.06-.915.03-.29.05-.51.06-.66l-3.765 5.73h-2.685v-8.19h2.16v3.24zM7.86 464.779v-.585l3.915-3.54c.87-.79 1.475-1.445 1.815-1.965.34-.53.51-1.07.51-1.62 0-.66-.235-1.2-.705-1.62-.46-.42-1.015-.63-1.665-.63-.64 0-1.2.16-1.68.48-.47.32-.935.81-1.395 1.47l-.585-.39c.5-.76 1.03-1.325 1.59-1.695.56-.37 1.275-.555 2.145-.555.89 0 1.63.28 2.22.84.6.55.9 1.24.9 2.07 0 .69-.195 1.32-.585 1.89-.38.57-1.06 1.3-2.04 2.19l-3.21 2.91h5.94v.75H7.86zm13.437.18c-1.3 0-2.35-.525-3.15-1.575-.79-1.06-1.185-2.345-1.185-3.855 0-.97.175-1.865.525-2.685.35-.82.86-1.48 1.53-1.98.68-.51 1.45-.765 2.31-.765 1.3 0 2.345.53 3.135 1.59.8 1.05 1.2 2.33 1.2 3.84 0 .97-.175 1.865-.525 2.685a4.793 4.793 0 01-1.545 1.995c-.67.5-1.435.75-2.295.75zm-2.535-2.115c.66.94 1.515 1.41 2.565 1.41s1.9-.465 2.55-1.395c.65-.94.975-2.05.975-3.33 0-1.28-.33-2.385-.99-3.315-.66-.94-1.515-1.41-2.565-1.41s-1.9.465-2.55 1.395c-.65.93-.975 2.04-.975 3.33 0 1.27.33 2.375.99 3.315zm9.795 1.935l7.71-10.5h.81l-7.71 10.5h-.81zm7.29.12c-.67 0-1.22-.26-1.65-.78-.43-.53-.645-1.165-.645-1.905 0-.73.215-1.36.645-1.89.44-.53 1-.795 1.68-.795.67 0 1.22.265 1.65.795.43.53.645 1.16.645 1.89s-.22 1.36-.66 1.89c-.43.53-.985.795-1.665.795zm.03-.645c.44 0 .8-.195 1.08-.585.29-.39.435-.875.435-1.455 0-.58-.15-1.065-.45-1.455-.3-.39-.665-.585-1.095-.585-.44 0-.805.2-1.095.6-.28.39-.42.87-.42 1.44 0 .58.15 1.065.45 1.455.3.39.665.585 1.095.585zm-6.12-4.725c-.67 0-1.22-.26-1.65-.78-.43-.53-.645-1.165-.645-1.905 0-.73.215-1.36.645-1.89.44-.53 1-.795 1.68-.795.67 0 1.22.265 1.65.795.43.53.645 1.16.645 1.89s-.22 1.36-.66 1.89c-.43.53-.985.795-1.665.795zm.03-.645c.44 0 .8-.195 1.08-.585.29-.39.435-.875.435-1.455 0-.58-.15-1.065-.45-1.455-.3-.39-.665-.585-1.095-.585-.44 0-.805.2-1.095.6-.28.39-.42.87-.42 1.44 0 .58.15 1.065.45 1.455.3.39.665.585 1.095.585zM12.701 360.83v-2.565H7.016l-.27-.585 6-7.425h.705v7.335h1.71v.675h-1.71v2.565h-.75zm-5.01-3.24h5.01v-6.21l-5.01 6.21zm13.606 3.42c-1.3 0-2.35-.525-3.15-1.575-.79-1.06-1.185-2.345-1.185-3.855 0-.97.175-1.865.525-2.685.35-.82.86-1.48 1.53-1.98.68-.51 1.45-.765 2.31-.765 1.3 0 2.345.53 3.135 1.59.8 1.05 1.2 2.33 1.2 3.84 0 .97-.175 1.865-.525 2.685a4.793 4.793 0 01-1.545 1.995c-.67.5-1.435.75-2.295.75zm-2.535-2.115c.66.94 1.515 1.41 2.565 1.41s1.9-.465 2.55-1.395c.65-.94.975-2.05.975-3.33 0-1.28-.33-2.385-.99-3.315-.66-.94-1.515-1.41-2.565-1.41s-1.9.465-2.55 1.395c-.65.93-.975 2.04-.975 3.33 0 1.27.33 2.375.99 3.315zm9.795 1.935l7.71-10.5h.81l-7.71 10.5h-.81zm7.29.12c-.67 0-1.22-.26-1.65-.78-.43-.53-.645-1.165-.645-1.905 0-.73.215-1.36.645-1.89.44-.53 1-.795 1.68-.795.67 0 1.22.265 1.65.795.43.53.645 1.16.645 1.89s-.22 1.36-.66 1.89c-.43.53-.985.795-1.665.795zm.03-.645c.44 0 .8-.195 1.08-.585.29-.39.435-.875.435-1.455 0-.58-.15-1.065-.45-1.455-.3-.39-.665-.585-1.095-.585-.44 0-.805.2-1.095.6-.28.39-.42.87-.42 1.44 0 .58.15 1.065.45 1.455.3.39.665.585 1.095.585zm-6.12-4.725c-.67 0-1.22-.26-1.65-.78-.43-.53-.645-1.165-.645-1.905 0-.73.215-1.36.645-1.89.44-.53 1-.795 1.68-.795.67 0 1.22.265 1.65.795.43.53.645 1.16.645 1.89s-.22 1.36-.66 1.89c-.43.53-.985.795-1.665.795zm.03-.645c.44 0 .8-.195 1.08-.585.29-.39.435-.875.435-1.455 0-.58-.15-1.065-.45-1.455-.3-.39-.665-.585-1.095-.585-.44 0-.805.2-1.095.6-.28.39-.42.87-.42 1.44 0 .58.15 1.065.45 1.455.3.39.665.585 1.095.585zm-18.459-97.874c-1.08 0-1.97-.35-2.67-1.05-.46-.46-.8-1-1.02-1.62-.21-.62-.315-1.455-.315-2.505 0-1.62.39-2.97 1.17-4.05.79-1.09 1.825-1.635 3.105-1.635 1.03 0 2.04.405 3.03 1.215l-.495.6c-.83-.74-1.695-1.11-2.595-1.11-1.03 0-1.86.48-2.49 1.44-.63.96-.945 2.21-.945 3.75v.255c.76-1.3 1.855-1.95 3.285-1.95.98 0 1.825.305 2.535.915.72.6 1.08 1.365 1.08 2.295 0 .99-.355 1.815-1.065 2.475-.7.65-1.57.975-2.61.975zm.06-.705c.83 0 1.505-.265 2.025-.795s.78-1.18.78-1.95c0-.72-.27-1.32-.81-1.8-.53-.48-1.21-.72-2.04-.72-.83 0-1.525.265-2.085.795s-.84 1.14-.84 1.83c0 .75.28 1.38.84 1.89.57.5 1.28.75 2.13.75zm9.91.705c-1.3 0-2.35-.525-3.15-1.575-.79-1.06-1.186-2.345-1.186-3.855 0-.97.175-1.865.525-2.685.35-.82.86-1.48 1.53-1.98.68-.51 1.45-.765 2.31-.765 1.3 0 2.345.53 3.135 1.59.8 1.05 1.2 2.33 1.2 3.84 0 .97-.175 1.865-.525 2.685a4.793 4.793 0 01-1.545 1.995c-.67.5-1.435.75-2.295.75zm-2.536-2.115c.66.94 1.515 1.41 2.565 1.41s1.9-.465 2.55-1.395c.65-.94.975-2.05.975-3.33 0-1.28-.33-2.385-.99-3.315-.66-.94-1.515-1.41-2.565-1.41s-1.9.465-2.55 1.395c-.65.93-.975 2.04-.975 3.33 0 1.27.33 2.375.99 3.315zm9.795 1.935l7.71-10.5h.81l-7.71 10.5h-.81zm7.29.12c-.67 0-1.22-.26-1.65-.78-.43-.53-.645-1.165-.645-1.905 0-.73.215-1.36.645-1.89.44-.53 1-.795 1.68-.795.67 0 1.22.265 1.65.795.43.53.645 1.16.645 1.89s-.22 1.36-.66 1.89c-.43.53-.985.795-1.665.795zm.03-.645c.44 0 .8-.195 1.08-.585.29-.39.435-.875.435-1.455 0-.58-.15-1.065-.45-1.455-.3-.39-.665-.585-1.095-.585-.44 0-.805.2-1.095.6-.28.39-.42.87-.42 1.44 0 .58.15 1.065.45 1.455.3.39.665.585 1.095.585zm-6.12-4.725c-.67 0-1.22-.26-1.65-.78-.43-.53-.645-1.165-.645-1.905 0-.73.215-1.36.645-1.89.44-.53 1-.795 1.68-.795.67 0 1.22.265 1.65.795.43.53.645 1.16.645 1.89s-.22 1.36-.66 1.89c-.43.53-.985.795-1.665.795zm.03-.645c.44 0 .8-.195 1.08-.585.29-.39.435-.875.435-1.455 0-.58-.15-1.065-.45-1.455-.3-.39-.665-.585-1.095-.585-.44 0-.805.2-1.095.6-.28.39-.42.87-.42 1.44 0 .58.15 1.065.45 1.455.3.39.665.585 1.095.585zm-18.523-97.904c-1.12 0-2.05-.275-2.79-.825-.74-.56-1.11-1.28-1.11-2.16 0-.59.215-1.11.645-1.56.43-.46.99-.805 1.68-1.035-1.31-.53-1.965-1.355-1.965-2.475 0-.79.355-1.445 1.065-1.965s1.535-.78 2.475-.78c.94 0 1.765.26 2.475.78.71.52 1.065 1.185 1.065 1.995 0 1.1-.655 1.915-1.965 2.445.69.23 1.25.575 1.68 1.035.43.45.645.98.645 1.59 0 .86-.375 1.57-1.125 2.13-.74.55-1.665.825-2.775.825zm-2.25-1.35c.56.43 1.31.645 2.25.645s1.69-.215 2.25-.645c.56-.44.84-.975.84-1.605 0-.65-.3-1.185-.9-1.605-.6-.43-1.33-.645-2.19-.645-.87 0-1.605.215-2.205.645-.59.43-.885.975-.885 1.635 0 .62.28 1.145.84 1.575zm.315-5.115c.53.4 1.175.6 1.935.6s1.405-.2 1.935-.6c.53-.41.795-.94.795-1.59 0-.59-.265-1.075-.795-1.455-.52-.39-1.165-.585-1.935-.585s-1.42.195-1.95.585c-.52.39-.78.885-.78 1.485 0 .63.265 1.15.795 1.56zm11.968 6.495c-1.3 0-2.35-.525-3.15-1.575-.79-1.06-1.185-2.345-1.185-3.855 0-.97.175-1.865.525-2.685.35-.82.86-1.48 1.53-1.98.68-.51 1.45-.765 2.31-.765 1.3 0 2.345.53 3.135 1.59.8 1.05 1.2 2.33 1.2 3.84 0 .97-.175 1.865-.525 2.685a4.793 4.793 0 01-1.545 1.995c-.67.5-1.435.75-2.295.75zm-2.535-2.115c.66.94 1.515 1.41 2.565 1.41s1.9-.465 2.55-1.395c.65-.94.975-2.05.975-3.33 0-1.28-.33-2.385-.99-3.315-.66-.94-1.515-1.41-2.565-1.41s-1.9.465-2.55 1.395c-.65.93-.975 2.04-.975 3.33 0 1.27.33 2.375.99 3.315zm9.795 1.935l7.71-10.5h.81l-7.71 10.5h-.81zm7.29.12c-.67 0-1.22-.26-1.65-.78-.43-.53-.645-1.165-.645-1.905 0-.73.215-1.36.645-1.89.44-.53 1-.795 1.68-.795.67 0 1.22.265 1.65.795.43.53.645 1.16.645 1.89s-.22 1.36-.66 1.89c-.43.53-.985.795-1.665.795zm.03-.645c.44 0 .8-.195 1.08-.585.29-.39.435-.875.435-1.455 0-.58-.15-1.065-.45-1.455-.3-.39-.665-.585-1.095-.585-.44 0-.805.2-1.095.6-.28.39-.42.87-.42 1.44 0 .58.15 1.065.45 1.455.3.39.665.585 1.095.585zm-6.12-4.725c-.67 0-1.22-.26-1.65-.78-.43-.53-.645-1.165-.645-1.905 0-.73.215-1.36.645-1.89.44-.53 1-.795 1.68-.795.67 0 1.22.265 1.65.795.43.53.645 1.16.645 1.89s-.22 1.36-.66 1.89c-.43.53-.985.795-1.665.795zm.03-.645c.44 0 .8-.195 1.08-.585.29-.39.435-.875.435-1.455 0-.58-.15-1.065-.45-1.455-.3-.39-.665-.585-1.095-.585-.44 0-.805.2-1.095.6-.28.39-.42.87-.42 1.44 0 .58.15 1.065.45 1.455.3.39.665.585 1.095.585zM2.998 48.982v-9.765l-2.025.69-.21-.615 2.4-.885h.6v10.575h-.765zm7.65.18c-1.3 0-2.35-.525-3.15-1.575-.79-1.06-1.185-2.345-1.185-3.855 0-.97.175-1.865.525-2.685.35-.82.86-1.48 1.53-1.98.68-.51 1.45-.765 2.31-.765 1.3 0 2.345.53 3.135 1.59.8 1.05 1.2 2.33 1.2 3.84 0 .97-.175 1.865-.525 2.685a4.793 4.793 0 01-1.545 1.995c-.67.5-1.435.75-2.295.75zm-2.535-2.115c.66.94 1.515 1.41 2.565 1.41s1.9-.465 2.55-1.395c.65-.94.975-2.05.975-3.33 0-1.28-.33-2.385-.99-3.315-.66-.94-1.515-1.41-2.565-1.41s-1.9.465-2.55 1.395c-.65.93-.975 2.04-.975 3.33 0 1.27.33 2.375.99 3.315zm13.184 2.115c-1.3 0-2.35-.525-3.15-1.575-.79-1.06-1.185-2.345-1.185-3.855 0-.97.175-1.865.525-2.685.35-.82.86-1.48 1.53-1.98.68-.51 1.45-.765 2.31-.765 1.3 0 2.345.53 3.135 1.59.8 1.05 1.2 2.33 1.2 3.84 0 .97-.175 1.865-.525 2.685a4.793 4.793 0 01-1.545 1.995c-.67.5-1.435.75-2.295.75zm-2.535-2.115c.66.94 1.515 1.41 2.565 1.41s1.9-.465 2.55-1.395c.65-.94.975-2.05.975-3.33 0-1.28-.33-2.385-.99-3.315-.66-.94-1.515-1.41-2.565-1.41s-1.9.465-2.55 1.395c-.65.93-.975 2.04-.975 3.33 0 1.27.33 2.375.99 3.315zm9.795 1.935l7.71-10.5h.81l-7.71 10.5h-.81zm7.29.12c-.67 0-1.22-.26-1.65-.78-.43-.53-.645-1.165-.645-1.905 0-.73.215-1.36.645-1.89.44-.53 1-.795 1.68-.795.67 0 1.22.265 1.65.795.43.53.645 1.16.645 1.89s-.22 1.36-.66 1.89c-.43.53-.985.795-1.665.795zm.03-.645c.44 0 .8-.195 1.08-.585.29-.39.435-.875.435-1.455 0-.58-.15-1.065-.45-1.455-.3-.39-.665-.585-1.095-.585-.44 0-.805.2-1.095.6-.28.39-.42.87-.42 1.44 0 .58.15 1.065.45 1.455.3.39.665.585 1.095.585zm-6.12-4.725c-.67 0-1.22-.26-1.65-.78-.43-.53-.645-1.165-.645-1.905 0-.73.215-1.36.645-1.89.44-.53 1-.795 1.68-.795.67 0 1.22.265 1.65.795.43.53.645 1.16.645 1.89s-.22 1.36-.66 1.89c-.43.53-.985.795-1.665.795zm.03-.645c.44 0 .8-.195 1.08-.585.29-.39.435-.875.435-1.455 0-.58-.15-1.065-.45-1.455-.3-.39-.665-.585-1.095-.585-.44 0-.805.2-1.095.6-.28.39-.42.87-.42 1.44 0 .58.15 1.065.45 1.455.3.39.665.585 1.095.585zm3.873 525.822c-1.3 0-2.35-.525-3.15-1.575-.79-1.06-1.184-2.345-1.184-3.855 0-.97.175-1.865.525-2.685.35-.82.86-1.48 1.53-1.98.68-.51 1.45-.765 2.31-.765 1.3 0 2.345.53 3.135 1.59.8 1.05 1.2 2.33 1.2 3.84 0 .97-.175 1.865-.525 2.685a4.793 4.793 0 01-1.545 1.995c-.67.5-1.435.75-2.295.75zm-2.534-2.115c.66.94 1.515 1.41 2.565 1.41s1.9-.465 2.55-1.395c.65-.94.975-2.05.975-3.33 0-1.28-.33-2.385-.99-3.315-.66-.94-1.515-1.41-2.565-1.41s-1.9.465-2.55 1.395c-.65.93-.975 2.04-.975 3.33 0 1.27.33 2.375.99 3.315zm115.281 33.214v-9.765l-2.025.69-.21-.615 2.4-.885h.6v10.575h-.765zm7.649.18c-1.3 0-2.35-.525-3.15-1.575-.79-1.06-1.185-2.345-1.185-3.855 0-.97.175-1.865.525-2.685.35-.82.86-1.48 1.53-1.98.68-.51 1.45-.765 2.31-.765 1.3 0 2.345.53 3.135 1.59.8 1.05 1.2 2.33 1.2 3.84 0 .97-.175 1.865-.525 2.685a4.793 4.793 0 01-1.545 1.995c-.67.5-1.435.75-2.295.75zm-2.535-2.115c.66.94 1.515 1.41 2.565 1.41s1.9-.465 2.55-1.395c.65-.94.975-2.05.975-3.33 0-1.28-.33-2.385-.99-3.315-.66-.94-1.515-1.41-2.565-1.41s-1.9.465-2.55 1.395c-.65.93-.975 2.04-.975 3.33 0 1.27.33 2.375.99 3.315zm88.438 1.935v-.585l3.915-3.54c.87-.79 1.475-1.445 1.815-1.965.34-.53.51-1.07.51-1.62 0-.66-.235-1.2-.705-1.62-.46-.42-1.015-.63-1.665-.63-.64 0-1.2.16-1.68.48-.47.32-.935.81-1.395 1.47l-.585-.39c.5-.76 1.03-1.325 1.59-1.695.56-.37 1.275-.555 2.145-.555.89 0 1.63.28 2.22.84.6.55.9 1.24.9 2.07 0 .69-.195 1.32-.585 1.89-.38.57-1.06 1.3-2.04 2.19l-3.21 2.91h5.94v.75h-7.17zm13.438.18c-1.3 0-2.35-.525-3.15-1.575-.79-1.06-1.185-2.345-1.185-3.855 0-.97.175-1.865.525-2.685.35-.82.86-1.48 1.53-1.98.68-.51 1.45-.765 2.31-.765 1.3 0 2.345.53 3.135 1.59.8 1.05 1.2 2.33 1.2 3.84 0 .97-.175 1.865-.525 2.685a4.793 4.793 0 01-1.545 1.995c-.67.5-1.435.75-2.295.75zm-2.535-2.115c.66.94 1.515 1.41 2.565 1.41s1.9-.465 2.55-1.395c.65-.94.975-2.05.975-3.33 0-1.28-.33-2.385-.99-3.315-.66-.94-1.515-1.41-2.565-1.41s-1.9.465-2.55 1.395c-.65.93-.975 2.04-.975 3.33 0 1.27.33 2.375.99 3.315zm88.564 2.115c-1.6 0-2.885-.63-3.855-1.89l.6-.495c.88 1.12 1.97 1.68 3.27 1.68.73 0 1.345-.22 1.845-.66.5-.44.75-1.005.75-1.695 0-.72-.305-1.28-.915-1.68-.6-.4-1.385-.6-2.355-.6h-.57l-.195-.435 3.615-4.17h-5.505v-.735h6.57v.555l-3.555 4.065c.47.03.91.11 1.32.24.42.12.815.295 1.185.525.37.22.665.525.885.915.22.38.33.82.33 1.32 0 .89-.34 1.625-1.02 2.205-.67.57-1.47.855-2.4.855zm9.8 0c-1.3 0-2.35-.525-3.15-1.575-.79-1.06-1.185-2.345-1.185-3.855 0-.97.175-1.865.525-2.685.35-.82.86-1.48 1.53-1.98.68-.51 1.45-.765 2.31-.765 1.3 0 2.345.53 3.135 1.59.8 1.05 1.2 2.33 1.2 3.84 0 .97-.175 1.865-.525 2.685a4.793 4.793 0 01-1.545 1.995c-.67.5-1.435.75-2.295.75zm-2.535-2.115c.66.94 1.515 1.41 2.565 1.41s1.9-.465 2.55-1.395c.65-.94.975-2.05.975-3.33 0-1.28-.33-2.385-.99-3.315-.66-.94-1.515-1.41-2.565-1.41s-1.9.465-2.55 1.395c-.65.93-.975 2.04-.975 3.33 0 1.27.33 2.375.99 3.315zm90.262 1.935v-2.565h-5.685l-.27-.585 6-7.425h.705v7.335h1.71v.675h-1.71v2.565h-.75zm-5.01-3.24h5.01v-6.21l-5.01 6.21zm13.606 3.42c-1.3 0-2.35-.525-3.15-1.575-.79-1.06-1.185-2.345-1.185-3.855 0-.97.175-1.865.525-2.685.35-.82.86-1.48 1.53-1.98.68-.51 1.45-.765 2.31-.765 1.3 0 2.345.53 3.135 1.59.8 1.05 1.2 2.33 1.2 3.84 0 .97-.175 1.865-.525 2.685a4.793 4.793 0 01-1.545 1.995c-.67.5-1.435.75-2.295.75zm-2.535-2.115c.66.94 1.515 1.41 2.565 1.41s1.9-.465 2.55-1.395c.65-.94.975-2.05.975-3.33 0-1.28-.33-2.385-.99-3.315-.66-.94-1.515-1.41-2.565-1.41s-1.9.465-2.55 1.395c-.65.93-.975 2.04-.975 3.33 0 1.27.33 2.375.99 3.315zm87.315 2.115c-.68 0-1.34-.155-1.98-.465a6.297 6.297 0 01-1.695-1.23l.555-.555c1.03 1.03 2.08 1.545 3.15 1.545.82 0 1.495-.255 2.025-.765.53-.51.795-1.145.795-1.905 0-.73-.27-1.325-.81-1.785-.53-.47-1.22-.705-2.07-.705-.77 0-1.56.22-2.37.66l-.6-.39.3-5.085h5.895v.75h-5.205l-.255 3.93c.78-.38 1.555-.57 2.325-.57 1.03 0 1.885.3 2.565.9.69.59 1.035 1.355 1.035 2.295 0 .99-.345 1.8-1.035 2.43-.69.63-1.565.945-2.625.945zm9.862 0c-1.3 0-2.35-.525-3.15-1.575-.79-1.06-1.185-2.345-1.185-3.855 0-.97.175-1.865.525-2.685.35-.82.86-1.48 1.53-1.98.68-.51 1.45-.765 2.31-.765 1.3 0 2.345.53 3.135 1.59.8 1.05 1.2 2.33 1.2 3.84 0 .97-.175 1.865-.525 2.685a4.793 4.793 0 01-1.545 1.995c-.67.5-1.435.75-2.295.75zm-2.535-2.115c.66.94 1.515 1.41 2.565 1.41s1.9-.465 2.55-1.395c.65-.94.975-2.05.975-3.33 0-1.28-.33-2.385-.99-3.315-.66-.94-1.515-1.41-2.565-1.41s-1.9.465-2.55 1.395c-.65.93-.975 2.04-.975 3.33 0 1.27.33 2.375.99 3.315zm88.309 1.821c-1.08 0-1.97-.35-2.67-1.05-.46-.46-.8-1-1.02-1.62-.21-.62-.315-1.455-.315-2.505 0-1.62.39-2.97 1.17-4.05.79-1.09 1.825-1.635 3.105-1.635 1.03 0 2.04.405 3.03 1.215l-.495.6c-.83-.74-1.695-1.11-2.595-1.11-1.03 0-1.86.48-2.49 1.44-.63.96-.945 2.21-.945 3.75v.255c.76-1.3 1.855-1.95 3.285-1.95.98 0 1.825.305 2.535.915.72.6 1.08 1.365 1.08 2.295 0 .99-.355 1.815-1.065 2.475-.7.65-1.57.975-2.61.975zm.06-.705c.83 0 1.505-.265 2.025-.795s.78-1.18.78-1.95c0-.72-.27-1.32-.81-1.8-.53-.48-1.21-.72-2.04-.72-.83 0-1.525.265-2.085.795s-.84 1.14-.84 1.83c0 .75.28 1.38.84 1.89.57.5 1.28.75 2.13.75zm9.909.705c-1.3 0-2.35-.525-3.15-1.575-.79-1.06-1.185-2.345-1.185-3.855 0-.97.175-1.865.525-2.685.35-.82.86-1.48 1.53-1.98.68-.51 1.45-.765 2.31-.765 1.3 0 2.345.53 3.135 1.59.8 1.05 1.2 2.33 1.2 3.84 0 .97-.175 1.865-.525 2.685a4.793 4.793 0 01-1.545 1.995c-.67.5-1.435.75-2.295.75zm-2.535-2.115c.66.94 1.515 1.41 2.565 1.41s1.9-.465 2.55-1.395c.65-.94.975-2.05.975-3.33 0-1.28-.33-2.385-.99-3.315-.66-.94-1.515-1.41-2.565-1.41s-1.9.465-2.55 1.395c-.65.93-.975 2.04-.975 3.33 0 1.27.33 2.375.99 3.315z" fill="#000"/><path d="M59.164 94.34c25.053 82.17 32.882 144.498 140.146 205.033 175.676 99.143 465.591 103.037 507.349 107.994" stroke="#8BD3F7" stroke-opacity=".5" stroke-width="4" stroke-linecap="round"/><path d="M59.946 93.558c27.664 64.431 195.267 200.18 644.364 227.726" stroke="#8FD9C5" stroke-opacity=".5" stroke-width="4" stroke-linecap="round"/><path d="M59.5 94.498c90.822 144.775 356.999 352.466 649.508 376.256" stroke="#C8BB93" stroke-width="5" stroke-linecap="round"/></svg>