<svg width="280" height="61" viewBox="0 0 280 61" fill="none" xmlns="http://www.w3.org/2000/svg">
<path fill-rule="evenodd" clip-rule="evenodd" d="M259.272 4.76704H240.442C236.196 4.76704 232.123 6.47334 229.12 9.5109C226.116 12.5485 224.427 16.6687 224.424 20.9659V40.0228C224.424 44.322 226.112 48.4451 229.116 51.4851C232.12 54.5251 236.194 56.233 240.442 56.233H259.272C261.376 56.2344 263.459 55.8162 265.403 55.0021C267.347 54.1879 269.114 52.994 270.602 51.4884C272.089 49.9829 273.269 48.1953 274.073 46.2279C274.878 44.2605 275.291 42.1519 275.29 40.0228V20.9659C275.29 18.8377 274.875 16.7303 274.07 14.7643C273.265 12.7982 272.085 11.0119 270.598 9.50759C269.11 8.00323 267.344 6.81027 265.401 5.99686C263.458 5.18345 261.375 4.76555 259.272 4.76704ZM240.442 0C234.947 0 229.678 2.2089 225.793 6.14078C221.908 10.0727 219.725 15.4054 219.725 20.9659V40.0228C219.724 42.777 220.258 45.5046 221.299 48.0496C222.339 50.5946 223.865 52.9072 225.789 54.8552C227.713 56.8033 229.997 58.3486 232.511 59.403C235.025 60.4573 237.72 61 240.442 61H259.272C264.77 61 270.042 58.7899 273.929 54.8559C277.816 50.9219 280 45.5863 280 40.0228V20.9659C279.997 15.4044 277.812 10.0716 273.925 6.14009C270.038 2.20854 264.768 -8.06384e-07 259.272 0H240.442ZM262.319 42.9259H255.946L249.84 33.5274L243.723 42.9259H237.763L246.492 30.1159L238.31 18.0741H244.46L250.13 27.0207L255.711 18.0741H261.717L253.468 30.3983L262.319 42.9259ZM42.059 30.5V11.5335C42.0359 11.1787 42.085 10.8228 42.2032 10.4879C42.3215 10.153 42.5064 9.84631 42.7465 9.58669C42.9867 9.32708 43.2769 9.12012 43.5993 8.97864C43.9217 8.83715 44.2693 8.76415 44.6207 8.76415C44.9721 8.76415 45.3198 8.83715 45.6421 8.97864C45.9645 9.12012 46.2548 9.32708 46.4949 9.58669C46.7351 9.84631 46.92 10.153 47.0382 10.4879C47.1565 10.8228 47.2056 11.1787 47.1824 11.5335V29.8222C47.1824 38.8593 50.8101 42.7226 59.6504 42.7226H66.0797C66.4271 42.7056 66.774 42.7635 67.0976 42.8924C67.4211 43.0213 67.714 43.2183 67.9567 43.4704C68.1994 43.7224 68.3864 44.0237 68.5054 44.3544C68.6244 44.6851 68.6727 45.0376 68.647 45.3885C68.6747 45.7394 68.6278 46.0922 68.5093 46.4232C68.3909 46.7542 68.2037 47.0556 67.9604 47.3072C67.7171 47.5588 67.4234 47.7547 67.0989 47.8816C66.7745 48.0086 66.427 48.0636 66.0797 48.0431H58.8802C48.1312 48.0544 42.0479 41.7285 42.059 30.5226V30.5ZM128.799 9.19519H132.505C143.276 9.19519 149.315 15.4872 149.326 26.7044V45.7274C149.349 46.0822 149.3 46.4381 149.182 46.773C149.064 47.1079 148.879 47.4146 148.639 47.6742C148.398 47.9338 148.108 48.1408 147.786 48.2823C147.463 48.4238 147.116 48.4968 146.764 48.4968C146.413 48.4968 146.065 48.4238 145.743 48.2823C145.421 48.1408 145.13 47.9338 144.89 47.6742C144.65 47.4146 144.465 47.1079 144.347 46.773C144.229 46.4381 144.18 46.0822 144.203 45.7274V27.4048C144.203 18.3678 140.609 14.5609 131.779 14.5609H129.547C120.718 14.5609 117.068 18.3113 117.068 27.4048V45.7048C117.068 46.3909 116.799 47.0489 116.319 47.534C115.84 48.0191 115.19 48.2917 114.512 48.2917C113.834 48.2917 113.184 48.0191 112.704 47.534C112.225 47.0489 111.956 46.3909 111.956 45.7048V26.7044C111.956 15.4872 118.017 9.19519 128.799 9.19519ZM16.8329 9.19519H20.5498C30.7854 9.19519 37.3487 14.8433 37.3487 25.5635C37.3487 36.2837 30.7854 41.9431 20.5498 41.9206H13.194C12.8458 41.9412 12.4972 41.8859 12.1719 41.7583C11.8466 41.6307 11.5523 41.4338 11.3088 41.1809C11.0653 40.9281 10.8784 40.6252 10.7607 40.2929C10.643 39.9605 10.5974 39.6064 10.6268 39.2546C10.6009 38.9042 10.6491 38.5521 10.7682 38.222C10.8873 37.8918 11.0746 37.5912 11.3175 37.34C11.5604 37.0888 11.8534 36.8929 12.1769 36.7653C12.5005 36.6377 12.8473 36.5814 13.194 36.6H19.7908C28.073 36.6 32.2141 33.3467 32.2141 25.5409C32.2141 17.7352 28.073 14.5157 19.7908 14.5157H17.5584C8.76271 14.5157 5.12389 18.3113 5.11273 27.4048V45.7048C5.14499 46.0569 5.10231 46.4119 4.98754 46.7459C4.87278 47.0799 4.6886 47.3851 4.44742 47.6409C4.20625 47.8968 3.91368 48.0973 3.58944 48.2291C3.2652 48.3608 2.91682 48.4207 2.56778 48.4046C2.21735 48.4243 1.86687 48.3669 1.54039 48.2366C1.21391 48.1063 0.919152 47.906 0.67634 47.6495C0.433527 47.3931 0.248407 47.0865 0.13368 46.7508C0.018953 46.4151 -0.0226656 46.0583 0.0116793 45.7048V26.7157C0.0116793 15.4872 6.0615 9.19519 16.8329 9.19519ZM171.271 9.19519H174.976C185.759 9.19519 191.809 15.4759 191.809 26.7044V35.8206C191.836 36.1739 191.789 36.529 191.671 36.8627C191.553 37.1964 191.366 37.5012 191.124 37.757C190.882 38.0129 190.589 38.2142 190.265 38.3477C189.94 38.4811 189.592 38.5438 189.242 38.5317C188.891 38.5477 188.541 38.4875 188.216 38.3552C187.89 38.2229 187.596 38.0215 187.354 37.7646C187.112 37.5077 186.927 37.2013 186.812 36.8659C186.696 36.5306 186.653 36.1741 186.685 35.8206V27.4048C186.685 18.3678 183.091 14.5609 174.262 14.5609H172.03C163.201 14.5609 159.551 18.2887 159.551 27.4048V29.8222C159.551 38.9383 163.189 42.7226 172.03 42.7226H186.217C189.878 42.7226 191.15 43.6602 193.115 45.7048L194.298 46.9361C195.582 48.2691 195.693 49.8731 194.599 51.0141C193.505 52.155 192.01 52.1437 190.525 50.5396L189.23 49.1954C188.882 48.7968 188.446 48.4869 187.957 48.2906C187.469 48.0944 186.941 48.0173 186.418 48.0657H171.282C160.522 48.0657 154.45 41.7963 154.45 30.5678V26.7044C154.45 15.4759 160.499 9.19519 171.271 9.19519ZM74.5964 27.4048V29.8335C74.5964 38.9383 78.2463 42.7565 87.0755 42.7565H89.3079C98.1371 42.7565 101.72 38.9722 101.72 29.8674V27.4048C101.687 18.2887 98.1036 14.5157 89.3079 14.5157H87.0755C78.2463 14.5157 74.5964 18.2887 74.5964 27.4048ZM86.3165 9.19519H90.0223C100.805 9.19519 106.855 15.4759 106.855 26.7044V30.5226C106.855 41.7511 100.805 48.0206 90.0223 48.0206H86.3165C75.5451 48.0206 69.4953 41.7511 69.4953 30.5226V26.7044C69.4953 15.4759 75.5451 9.19519 86.3165 9.19519Z" fill="black"/>
</svg>
