<svg width="203" height="30" viewBox="0 0 203 30" fill="none" xmlns="http://www.w3.org/2000/svg">
<path d="M28.0872 15.241V2.81252C28.0872 1.77681 28.8735 1 29.6599 1C30.4462 1 31.2326 1.77681 31.2326 2.81252V14.7231C31.2326 20.6784 33.5915 23.0088 39.6202 23.0088H43.814C44.8625 23.0088 45.3867 23.7856 45.3867 24.8213C45.3867 25.857 44.6003 26.6338 43.814 26.6338H39.096C32.0189 26.6338 28.0872 22.491 28.0872 15.241ZM85.4901 1.25894H87.8492C94.9262 1.25894 99.12 5.40176 99.12 12.6517V25.0802C99.12 26.1159 98.3336 26.8927 97.5473 26.8927C96.4989 26.8927 95.7125 26.1159 95.9746 25.0802V13.1696C95.9746 7.21429 93.6157 4.88391 87.8492 4.88391H86.2765C80.5099 4.88391 77.8888 7.21429 77.8888 13.1696V25.0802C77.8888 26.1159 77.1024 26.8927 76.3161 26.8927C75.2676 26.8927 74.4814 26.1159 74.7435 25.0802V12.6517C74.4814 5.40176 78.413 1.25894 85.4901 1.25894ZM11.3119 1.25894H13.6709C20.4859 1.25894 24.9419 4.88394 24.9419 11.875C24.9419 18.866 20.4859 22.4909 13.6709 22.4909H8.69077C7.64232 22.4909 7.11808 21.7142 7.11808 20.6785C7.11808 19.6428 7.90443 18.866 8.69077 18.866H13.1467C18.6511 18.866 21.2722 16.7946 21.2722 11.616C21.2722 6.43749 18.6511 4.36602 13.1467 4.36602H11.574C5.80754 4.36602 3.18637 6.6964 3.18637 12.6517V24.5624C3.18637 25.5981 2.40001 26.3748 1.61367 26.3748C0.82733 26.3748 -0.221061 25.5981 0.0410531 24.5624V12.1338C0.0410531 5.40173 4.23484 1.25894 11.3119 1.25894ZM113.798 1.25894H116.157C123.234 1.25894 127.428 5.40176 127.428 12.6517V18.607C127.428 19.6427 126.642 20.4195 125.856 20.4195C124.807 20.4195 124.021 19.6427 124.283 18.607V13.1696C124.283 7.21429 121.924 4.88391 116.157 4.88391H114.585C108.818 4.88391 106.197 7.21429 106.197 13.1696V14.7231C106.197 20.6784 108.556 23.0088 114.585 23.0088H124.021C126.38 23.0088 127.166 23.5266 128.477 25.0802L129.263 25.857C130.049 26.6338 130.312 27.6695 129.525 28.4463C128.739 29.2231 127.69 29.2231 126.904 28.1874L126.118 27.4106C125.593 26.8928 125.331 26.6338 124.283 26.6338H114.323C107.245 26.6338 103.052 22.491 103.052 15.241V12.6517C102.527 5.40176 106.459 1.25894 113.798 1.25894ZM49.5805 13.1696V14.7231C49.5805 20.6784 51.9395 23.0088 57.9681 23.0088H59.5408C65.3073 23.0088 67.6664 20.4195 67.6664 14.7231V13.1696C67.6664 7.21429 65.3073 4.88391 59.5408 4.88391H57.9681C51.9395 4.88391 49.5805 7.21429 49.5805 13.1696ZM57.4439 1.25894H59.803C66.88 1.25894 71.0738 5.40176 71.0738 12.6517V15.241C71.0738 22.491 67.1421 26.6338 59.803 26.6338H57.4439C50.3669 26.6338 46.173 22.491 46.173 15.241V12.6517C46.173 5.40176 50.1048 1.25894 57.4439 1.25894Z" fill="black"/>
<rect x="146" y="1" width="56" height="28" rx="8" stroke="black" stroke-width="2"/>
<path d="M162.377 21.5449C160.694 21.5449 159.181 20.8806 157.837 19.5518L158.781 18.5283C159.98 19.6775 161.185 20.2521 162.395 20.2521C163.304 20.2521 164.042 19.9888 164.611 19.4621C165.18 18.9353 165.465 18.259 165.465 17.433C165.465 16.655 165.168 16.0205 164.575 15.5297C163.994 15.0389 163.237 14.7935 162.305 14.7935C161.433 14.7935 160.543 15.033 159.635 15.5118L158.672 14.8833L159.036 8.76039H166.355V10.0712H160.289L160.016 14.0933C160.876 13.7222 161.711 13.5366 162.523 13.5366C163.794 13.5366 164.841 13.8898 165.665 14.596C166.5 15.2903 166.918 16.23 166.918 17.4151C166.918 18.6361 166.494 19.6296 165.646 20.3958C164.799 21.1619 163.709 21.5449 162.377 21.5449Z" fill="black"/>
<path d="M178.365 19.6596C177.372 20.9165 176.077 21.5449 174.478 21.5449C172.88 21.5449 171.585 20.9225 170.592 19.6775C169.611 18.4206 169.121 16.8764 169.121 15.0449C169.121 13.2374 169.617 11.7051 170.61 10.4482C171.615 9.17936 172.917 8.54492 174.515 8.54492C176.113 8.54492 177.402 9.17337 178.383 10.4303C179.364 11.6752 179.854 13.2134 179.854 15.0449C179.854 16.8525 179.358 18.3907 178.365 19.6596ZM171.7 18.7259C172.426 19.7434 173.365 20.2521 174.515 20.2521C175.665 20.2521 176.591 19.7493 177.293 18.7438C178.008 17.7263 178.365 16.4934 178.365 15.0449C178.365 13.6204 178.002 12.3994 177.275 11.3819C176.561 10.3525 175.629 9.83774 174.478 9.83774C173.328 9.83774 172.396 10.3465 171.682 11.364C170.967 12.3695 170.61 13.5965 170.61 15.0449C170.61 16.4694 170.973 17.6964 171.7 18.7259Z" fill="black"/>
<path d="M191.348 19.6596C190.355 20.9165 189.059 21.5449 187.461 21.5449C185.863 21.5449 184.567 20.9225 183.575 19.6775C182.594 18.4206 182.103 16.8764 182.103 15.0449C182.103 13.2374 182.6 11.7051 183.593 10.4482C184.598 9.17936 185.899 8.54492 187.497 8.54492C189.096 8.54492 190.385 9.17337 191.366 10.4303C192.347 11.6752 192.837 13.2134 192.837 15.0449C192.837 16.8525 192.34 18.3907 191.348 19.6596ZM184.682 18.7259C185.409 19.7434 186.347 20.2521 187.497 20.2521C188.648 20.2521 189.574 19.7493 190.276 18.7438C190.99 17.7263 191.348 16.4934 191.348 15.0449C191.348 13.6204 190.984 12.3994 190.258 11.3819C189.544 10.3525 188.611 9.83774 187.461 9.83774C186.311 9.83774 185.379 10.3465 184.664 11.364C183.95 12.3695 183.593 13.5965 183.593 15.0449C183.593 16.4694 183.956 17.6964 184.682 18.7259Z" fill="black"/>
</svg>
