<svg width="88" height="20" viewBox="0 0 88 20" fill="none" xmlns="http://www.w3.org/2000/svg">
<path d="M18.949 10.0887V1.67901C18.94 0.969763 19.4085 0.5 20.1023 0.5C20.7961 0.5 21.2557 0.969763 21.2557 1.67901L21.2467 9.78474C21.2467 13.8008 22.8866 15.4956 26.8692 15.4956L29.7705 15.4864C30.4643 15.4956 30.9238 15.9561 30.9238 16.6654C30.9238 17.3746 30.4643 17.8536 29.7705 17.8444H26.5358C21.6792 17.8536 18.94 15.0535 18.949 10.0887ZM58.0181 0.638166H59.6941C64.5507 0.638166 67.2628 3.4199 67.2718 8.39387V16.822C67.2628 17.5312 66.8123 17.9918 66.1185 17.9918C65.4247 17.9918 64.9561 17.5312 64.9651 16.822L64.9471 8.70705C64.9561 4.68182 63.3253 3.01462 59.3517 3.01462H58.3605C54.3869 3.01462 52.738 4.67261 52.738 8.70705L52.747 16.8128C52.738 17.5312 52.2875 17.9918 51.5937 17.9918C50.8999 17.9918 50.4314 17.5312 50.4404 16.8128V8.39387C50.4314 3.4199 53.1615 0.638166 58.0181 0.638166ZM7.57788 0.638166H9.25381C13.8671 0.638166 16.8226 3.15278 16.8226 7.88726C16.8226 12.5849 13.8671 15.1456 9.25381 15.1364H5.93798C5.23517 15.1456 4.78465 14.6666 4.78465 13.9573C4.78465 13.2481 5.23517 12.7875 5.93798 12.7783L8.91142 12.7875C12.6417 12.7875 14.5069 11.3414 14.5069 7.88726C14.5069 4.43312 12.6417 3.01462 8.91142 3.01462H7.92027C3.94669 3.01462 2.29778 4.67261 2.29778 8.70705L2.30679 16.8128C2.29778 17.5312 1.84726 17.9918 1.15346 17.9918C0.459659 17.9918 -0.00888269 17.5312 0.000127718 16.8128V8.39387C-0.00888269 3.4199 2.72127 0.638166 7.57788 0.638166ZM77.1562 0.638166H78.8322C83.6888 0.638166 86.4099 3.4199 86.4099 8.39387V12.4283C86.4009 13.1468 85.9504 13.6257 85.2566 13.6257C84.5628 13.6257 84.0942 13.1468 84.1032 12.4283L84.0852 8.69784C84.0942 4.67261 82.4634 3.0054 78.4898 3.0054H77.4986C73.525 3.0054 71.8761 4.65419 71.8761 8.69784V9.77553C71.8761 13.81 73.516 15.4864 77.4986 15.4864H83.887C85.5359 15.4864 86.1126 15.9009 86.9956 16.8036L87.5272 17.347C88.1039 17.9365 88.1579 18.655 87.6624 19.1524C87.1668 19.659 86.491 19.6314 85.8242 18.9405L85.2386 18.3418C84.9502 18.0563 84.6889 17.8352 83.9681 17.826H77.1472C72.2996 17.8352 69.5695 15.0443 69.5695 10.0703V8.38466C69.5785 3.4199 72.2996 0.638166 77.1562 0.638166ZM33.5999 8.70705V9.78474C33.5999 13.8192 35.2398 15.4956 39.2224 15.4956H40.2136C44.1872 15.4956 45.809 13.8192 45.809 9.78474V8.70705C45.809 4.67261 44.1872 3.01462 40.2136 3.01462H39.2224C35.2488 3.01462 33.5999 4.6634 33.5999 8.70705ZM38.88 0.638166H40.556C45.4126 0.638166 48.1337 3.4199 48.1337 8.39387V10.0795C48.1337 15.0535 45.4126 17.8352 40.556 17.8352H38.88C34.0234 17.8352 31.3023 15.0535 31.3023 10.0795V8.39387C31.3023 3.4199 34.0324 0.638166 38.88 0.638166Z" fill="black"/>
</svg>
