<svg width="40" height="40" viewBox="0 0 40 40" fill="none" xmlns="http://www.w3.org/2000/svg">
<g filter="url(#filter0_i_293_962)">
<path d="M40 19.6818C40 17.6255 39.1678 15.6671 37.6593 14.1493C37.6073 14.1004 37.5553 14.0024 37.5033 13.9535C37.4512 13.9045 37.3992 13.8556 37.2952 13.8066L37.1391 13.6597C37.0351 13.5618 36.9311 13.4639 36.827 13.4149L36.775 13.366C36.723 13.317 36.723 13.317 36.723 13.317C35.9428 12.7295 35.1625 12.3378 34.2263 12.0441C34.2263 12.0441 34.2263 12.0441 34.1743 12.0441C34.1222 12.0441 34.0702 12.0441 34.0702 11.9951C33.9662 11.9461 33.8622 11.9461 33.7061 11.8972C33.6021 11.8972 33.5501 11.8482 33.446 11.8482C33.342 11.7993 33.238 11.7993 33.1339 11.7993C33.0299 11.7993 32.9779 11.7503 32.8739 11.7503C32.8739 11.7503 32.8739 11.7503 32.8218 11.7503C32.6658 11.7503 32.5098 11.7013 32.3017 11.7013C32.2497 11.7013 32.2497 11.7013 32.1977 11.7013C32.0416 11.7013 31.9376 11.7013 31.7815 11.6524C31.7295 11.6524 31.6775 11.6524 31.6255 11.6524C31.6255 11.4565 31.6255 11.3097 31.6255 11.1138C31.6255 8.17625 30.4291 5.38556 28.1925 3.32925C25.9558 1.27295 23.0949 0 19.974 0C13.5241 0 8.27048 4.94492 8.27048 11.0159C8.27048 11.2117 8.27048 11.3586 8.27048 11.5545C7.3342 11.6034 6.39792 11.7993 5.51365 12.093C5.46164 12.093 5.40962 12.142 5.35761 12.142H5.30559C4.42133 12.4847 2.80884 13.2681 1.6645 14.8348C0.572172 16.2056 0 17.9192 0 19.6328C0 22.6683 1.82055 25.459 4.62939 26.8299V26.8788C4.42133 27.1236 4.3173 27.4663 4.47334 27.7601C4.62939 28.0539 4.94148 28.2497 5.25358 28.2497H8.0104C8.21846 28.2497 8.42653 28.2987 8.58257 28.4455L9.57087 29.2289C11.3914 30.6487 13.7321 31.4321 16.1248 31.4321H16.801C16.8531 31.9217 17.1651 32.3623 17.6333 32.6071V39.1677C17.6333 39.6083 18.0494 40 18.5176 40C18.9857 40 19.4018 39.6083 19.4018 39.1677V32.8029H20.5462V39.1677C20.5462 39.6083 20.9623 40 21.4304 40C21.8986 40 22.3147 39.6083 22.3147 39.1677V32.705C22.7828 32.4602 23.0949 32.0196 23.1469 31.53H23.8231C26.2159 31.53 28.5046 30.7466 30.3771 29.3268L31.3654 28.5435C31.5215 28.3966 31.7295 28.3476 31.9376 28.3476H34.6944C35.0585 28.3476 35.3706 28.1518 35.4746 27.858C35.6307 27.5643 35.5787 27.2215 35.3186 26.9767C38.1795 25.5569 40 22.7662 40 19.6818ZM21.4304 31.2852H18.5696V30.0612C18.5696 29.6206 18.1534 29.2289 17.6853 29.2289C17.2692 29.2289 16.9051 29.5226 16.8531 29.8654H16.1769C14.2003 29.8654 12.2757 29.2289 10.7672 28.0539L9.77893 27.2705C9.31079 26.8788 8.68661 26.683 8.06242 26.683H7.38622C7.90637 26.3403 8.53056 26.1444 9.15475 26.1444H11.1313C11.6515 26.1444 12.1196 25.9486 12.4837 25.6059C12.8479 25.2632 13.0039 24.7736 13.0039 24.284C12.9519 23.6475 12.8479 23.011 12.6398 22.3745C13.368 23.06 13.9922 23.8433 14.4603 24.4308C14.6164 24.6267 14.7724 24.8225 14.9285 25.0673L14.9805 25.1163C15.6047 25.8996 16.2289 26.5361 17.1131 27.0257L17.1651 27.0747C17.2172 27.0747 17.2692 27.1236 17.2692 27.1236H17.3732C17.4252 27.1726 17.4772 27.1726 17.5813 27.2215C17.6333 27.2215 17.6333 27.2215 17.6853 27.2705C17.7373 27.3195 17.8414 27.3195 17.9454 27.3684L18.0494 27.4174C18.1014 27.4174 18.1534 27.4663 18.2055 27.4663C18.8296 27.6622 19.4018 27.7601 19.974 27.7601C21.8986 27.7601 23.7191 26.8788 24.8114 25.41C25.6437 24.3329 26.4759 23.2558 27.4122 22.3745C27.2042 23.011 27.1001 23.6475 27.0481 24.3329C26.9961 24.8225 27.2042 25.3121 27.5683 25.6548C27.9324 25.9976 28.4005 26.1934 28.9207 26.1934H30.8973C31.5215 26.1934 32.1456 26.3892 32.6658 26.7319H31.9376C31.3134 26.7319 30.7412 26.9278 30.2211 27.3195L29.2328 28.1028C27.7243 29.2778 25.7997 29.9143 23.8231 29.9143H23.0949C22.9909 29.5716 22.6788 29.2778 22.2627 29.2778C21.7945 29.2778 21.3784 29.6695 21.3784 30.1102L21.4304 31.2852Z" fill="#CCF0EE"/>
</g>
<defs>
<filter id="filter0_i_293_962" x="0" y="0" width="45" height="45" filterUnits="userSpaceOnUse" color-interpolation-filters="sRGB">
<feFlood flood-opacity="0" result="BackgroundImageFix"/>
<feBlend mode="normal" in="SourceGraphic" in2="BackgroundImageFix" result="shape"/>
<feColorMatrix in="SourceAlpha" type="matrix" values="0 0 0 0 0 0 0 0 0 0 0 0 0 0 0 0 0 0 127 0" result="hardAlpha"/>
<feOffset dx="5" dy="5"/>
<feGaussianBlur stdDeviation="5"/>
<feComposite in2="hardAlpha" operator="arithmetic" k2="-1" k3="1"/>
<feColorMatrix type="matrix" values="0 0 0 0 0.8 0 0 0 0 0.941176 0 0 0 0 0.933333 0 0 0 1 0"/>
<feBlend mode="multiply" in2="shape" result="effect1_innerShadow_293_962"/>
</filter>
</defs>
</svg>
