<svg width="22" height="32" viewBox="0 0 22 32" fill="none" xmlns="http://www.w3.org/2000/svg">
<path fill-rule="evenodd" clip-rule="evenodd" d="M12.3604 30.1805C18.7802 21.6228 21.9901 15.4511 21.9901 11.6654C22.1176 8.56267 21.0113 5.53577 18.9134 3.2477C17.8973 2.18013 16.6672 1.33965 15.3037 0.781414C13.9403 0.223177 12.4742 -0.0402003 11.0019 0.00856573C9.51625 -0.0516488 8.03488 0.20615 6.65677 0.764735C5.27866 1.32332 4.03553 2.16983 3.01045 3.2477C0.941541 5.54837 -0.135543 8.57383 0.0136703 11.6654C0.0136703 15.4644 3.22356 21.6361 9.64333 30.1805L9.90306 30.5404L11.0019 32L12.1007 30.5404L12.3604 30.1805ZM11.0019 2.18798C9.83416 2.13542 8.66869 2.33298 7.58339 2.76745C6.4981 3.20191 5.518 3.86328 4.70863 4.70731C3.85337 5.64427 3.19228 6.74169 2.76362 7.93605C2.33496 9.13041 2.14723 10.398 2.21131 11.6654C2.45789 14.0165 3.22208 16.2836 4.44891 18.3037C6.38315 21.7937 8.57349 25.1353 11.0019 28.301C13.4303 25.1353 15.6206 21.7937 17.5548 18.3037C18.7817 16.2836 19.5459 14.0165 19.7924 11.6654C19.8565 10.398 19.6688 9.13041 19.2401 7.93605C18.8115 6.74169 18.1504 5.64427 17.2951 4.70731C16.4893 3.85605 15.5108 3.18724 14.4253 2.74581C13.3399 2.30437 12.1726 2.10054 11.0019 2.14799V2.18798ZM10.5024 6.00696H11.5013C12.0819 5.93292 12.6716 5.98742 13.2288 6.1666C13.786 6.34578 14.297 6.64526 14.7258 7.04389C15.1546 7.44251 15.4907 7.93053 15.7102 8.47346C15.9298 9.01638 16.0275 9.60095 15.9965 10.1858C16.0275 10.7707 15.9298 11.3553 15.7102 11.8982C15.4907 12.4411 15.1546 12.9292 14.7258 13.3278C14.297 13.7264 13.786 14.0259 13.2288 14.2051C12.6716 14.3843 12.0819 14.4388 11.5013 14.3647H9.50348C9.41353 14.3675 9.32396 14.3518 9.2403 14.3186C9.15663 14.2854 9.08064 14.2355 9.017 14.1718C8.95337 14.1081 8.90343 14.032 8.87028 13.9483C8.83712 13.8646 8.82144 13.7749 8.82421 13.6849C8.81834 13.5941 8.83189 13.5031 8.86395 13.418C8.89601 13.3328 8.94584 13.2555 9.01013 13.1912C9.07442 13.1268 9.15167 13.0769 9.23675 13.0449C9.32183 13.0128 9.41276 12.9992 9.50348 13.0051H11.2816C13.4992 13.0051 14.598 12.1853 14.598 10.1858C14.598 8.18638 13.5192 7.3666 11.3016 7.3666H10.7022C8.34473 7.3666 7.36578 8.32634 7.36578 10.6457V15.3245C7.36855 15.4145 7.35287 15.5041 7.31972 15.5879C7.28656 15.6716 7.23663 15.7476 7.17299 15.8113C7.10935 15.875 7.03336 15.925 6.9497 15.9582C6.86603 15.9914 6.77646 16.0071 6.68651 16.0043C6.59578 16.0102 6.50485 15.9966 6.41977 15.9645C6.3347 15.9324 6.25744 15.8826 6.19315 15.8182C6.12887 15.7539 6.07903 15.6766 6.04697 15.5914C6.01491 15.5063 6.00136 15.4153 6.00724 15.3245V10.4858C5.92816 9.87708 5.99015 9.25835 6.18841 8.6775C6.38667 8.09665 6.71586 7.56927 7.1505 7.13622C7.58514 6.70316 8.11356 6.37605 8.69482 6.18022C9.27608 5.9844 9.89458 5.92511 10.5024 6.00696Z" fill="black"/>
</svg>
