<svg width="47" height="46" viewBox="0 0 47 46" fill="none" xmlns="http://www.w3.org/2000/svg">
<g filter="url(#filter0_i_250_827)">
<path d="M41.7086 5.1749C34.6969 -1.71335 23.303 -1.72495 16.2677 5.14011C9.48111 11.7733 9.19685 22.4419 15.6163 29.4114L14.2424 30.7565C13.1291 29.6665 11.3288 29.6665 10.2273 30.7565L0.835001 39.9409C-0.278334 41.0309 -0.278334 42.7936 0.835001 43.8721L2.17337 45.1825C3.2867 46.2725 5.08699 46.2725 6.18848 45.1825L15.5689 35.9981C16.6822 34.9081 16.6822 33.1454 15.5689 32.0669L16.9428 30.7218C24.3098 37.2389 35.6918 36.6823 42.3482 29.4577C48.7913 22.4883 48.507 11.808 41.7086 5.1749ZM14.2424 34.6877L4.86195 43.8721C4.49479 44.2315 3.89075 44.2315 3.52358 43.8721L2.18521 42.5617C1.81805 42.2022 1.81805 41.6108 2.18521 41.2513L11.5656 32.0669C11.9447 31.719 12.525 31.719 12.904 32.0669L14.2424 33.3773C14.6096 33.7368 14.6096 34.3282 14.2424 34.6877ZM38.333 26.7906C37.9777 26.4427 37.9659 25.8977 38.2975 25.5266C42.2889 21.004 42.2889 14.2665 38.2975 9.74388C37.9659 9.3728 37.9896 8.81617 38.333 8.47987C38.7239 8.09719 39.3635 8.12039 39.7188 8.53786C44.3261 13.7562 44.3261 21.5258 39.7188 26.7442C39.3635 27.1501 38.7239 27.1733 38.333 26.7906Z" fill="#CCF0EE"/>
</g>
<defs>
<filter id="filter0_i_250_827" x="0" y="0" width="52" height="51" filterUnits="userSpaceOnUse" color-interpolation-filters="sRGB">
<feFlood flood-opacity="0" result="BackgroundImageFix"/>
<feBlend mode="normal" in="SourceGraphic" in2="BackgroundImageFix" result="shape"/>
<feColorMatrix in="SourceAlpha" type="matrix" values="0 0 0 0 0 0 0 0 0 0 0 0 0 0 0 0 0 0 127 0" result="hardAlpha"/>
<feOffset dx="5" dy="5"/>
<feGaussianBlur stdDeviation="5"/>
<feComposite in2="hardAlpha" operator="arithmetic" k2="-1" k3="1"/>
<feColorMatrix type="matrix" values="0 0 0 0 0.8 0 0 0 0 0.941176 0 0 0 0 0.933333 0 0 0 1 0"/>
<feBlend mode="multiply" in2="shape" result="effect1_innerShadow_250_827"/>
</filter>
</defs>
</svg>
