<svg width="14" height="55" viewBox="0 0 14 55" fill="none" xmlns="http://www.w3.org/2000/svg">
<g filter="url(#filter0_i_413_2598)">
<path d="M11.0024 21.2836C11.8073 19.8425 12.4466 17.1796 11.6672 12.3245C10.8554 7.27547 10.4999 3.9621 10.4999 3.43755C10.4999 1.53831 8.93285 0 7 0C5.06716 0 3.50006 1.53831 3.50006 3.43755C3.50006 3.9621 3.14459 7.27558 2.33282 12.3245C1.55354 17.1796 2.19272 19.8425 2.99759 21.2836L0 25.2088V25.2633V28.268V52.7105C0 53.9761 1.04419 55 2.33282 55H11.6672C12.9558 55 14 53.9761 14 52.7105V32.4725V30.079V25.2088L11.0024 21.2836ZM4.63819 12.6811C5.37646 8.08373 5.83277 4.30274 5.83277 3.43755C5.83277 2.80558 6.35743 2.29113 7 2.29113C7.64257 2.29113 8.16723 2.80558 8.16723 3.43755C8.16723 4.30285 8.62354 8.08373 9.36181 12.6811C9.95997 16.405 9.62332 18.4762 9.23537 19.5581C9.03204 20.1254 8.80302 20.4511 8.6441 20.6256H5.35612C5.1972 20.4511 4.96817 20.1254 4.76474 19.5581C4.37668 18.4762 4.04003 16.405 4.63819 12.6811ZM2.33271 27.1634V25.9724L4.66718 22.9168H4.66893H9.33097H9.33271L11.6672 25.9724V30.5741C11.3732 30.601 11.0809 30.6161 10.7904 30.6161C7.81855 30.6161 5.06715 29.2348 2.33271 27.1634Z" fill="#7DD4AF"/>
</g>
<defs>
<filter id="filter0_i_413_2598" x="0" y="0" width="19" height="60" filterUnits="userSpaceOnUse" color-interpolation-filters="sRGB">
<feFlood flood-opacity="0" result="BackgroundImageFix"/>
<feBlend mode="normal" in="SourceGraphic" in2="BackgroundImageFix" result="shape"/>
<feColorMatrix in="SourceAlpha" type="matrix" values="0 0 0 0 0 0 0 0 0 0 0 0 0 0 0 0 0 0 127 0" result="hardAlpha"/>
<feOffset dx="5" dy="5"/>
<feGaussianBlur stdDeviation="5"/>
<feComposite in2="hardAlpha" operator="arithmetic" k2="-1" k3="1"/>
<feColorMatrix type="matrix" values="0 0 0 0 0.8 0 0 0 0 0.941176 0 0 0 0 0.933333 0 0 0 1 0"/>
<feBlend mode="multiply" in2="shape" result="effect1_innerShadow_413_2598"/>
</filter>
</defs>
</svg>
