<svg width="334" height="55" viewBox="0 0 334 55" fill="none" xmlns="http://www.w3.org/2000/svg">
<path d="M46.2959 30.2242V8.97856C46.2739 7.18677 47.4186 6 49.1137 6C50.8088 6 51.9315 7.18677 51.9315 8.97856L51.9095 29.4562C51.9095 39.6019 55.9161 43.8837 65.6463 43.8837L72.7348 43.8604C74.4299 43.8837 75.5526 45.0472 75.5526 46.8389C75.5526 48.6307 74.4299 49.8408 72.7348 49.8175H64.8317C52.9662 49.8408 46.2739 42.7667 46.2959 30.2242ZM141.748 6.34905H145.844C157.709 6.34905 164.336 13.3766 164.357 25.9424V47.2345C164.336 49.0263 163.235 50.1898 161.54 50.1898C159.845 50.1898 158.7 49.0263 158.722 47.2345L158.678 26.7336C158.7 16.5646 154.715 12.3527 145.007 12.3527H142.586C132.877 12.3527 128.848 16.5413 128.848 26.7336L128.871 47.2113C128.848 49.0263 127.747 50.1898 126.053 50.1898C124.358 50.1898 123.213 49.0263 123.235 47.2113V25.9424C123.213 13.3766 129.884 6.34905 141.748 6.34905ZM18.5141 6.34905H22.6087C33.8799 6.34905 41.1006 12.7018 41.1006 24.6625C41.1006 36.5303 33.8799 42.9994 22.6087 42.9761H14.5075C12.7905 42.9994 11.6898 41.7893 11.6898 39.9976C11.6898 38.2057 12.7905 37.0422 14.5075 37.0189L21.7723 37.0422C30.886 37.0422 35.443 33.3888 35.443 24.6625C35.443 15.9363 30.886 12.3527 21.7723 12.3527H19.3507C9.64247 12.3527 5.6139 16.5413 5.6139 26.7336L5.63591 47.2113C5.6139 49.0263 4.51319 50.1898 2.81811 50.1898C1.12303 50.1898 -0.021702 49.0263 0.000312038 47.2113V25.9424C-0.021702 13.3766 6.64856 6.34905 18.5141 6.34905ZM188.506 6.34905H192.602C204.467 6.34905 211.115 13.3766 211.115 25.9424V36.1346C211.093 37.9498 209.993 39.1599 208.298 39.1599C206.603 39.1599 205.458 37.9498 205.48 36.1346L205.436 26.7103C205.458 16.5413 201.473 12.3294 191.765 12.3294H189.344C179.635 12.3294 175.606 16.4948 175.606 26.7103V29.4329C175.606 39.6252 179.613 43.8604 189.344 43.8604H204.952C208.98 43.8604 210.389 44.9075 212.546 47.188L213.845 48.5609C215.254 50.0502 215.386 51.8652 214.175 53.1219C212.964 54.4017 211.313 54.3318 209.684 52.5867L208.254 51.0741C207.549 50.3527 206.91 49.7943 205.15 49.771H188.485C176.641 49.7943 169.971 42.7434 169.971 30.1776V25.9192C169.993 13.3766 176.641 6.34905 188.506 6.34905ZM82.0908 26.7336V29.4562C82.0908 39.6485 86.0974 43.8837 95.8276 43.8837H98.2491C107.957 43.8837 111.92 39.6485 111.92 29.4562V26.7336C111.92 16.5413 107.957 12.3527 98.2491 12.3527H95.8276C86.1193 12.3527 82.0908 16.5181 82.0908 26.7336ZM94.991 6.34905H99.0856C110.951 6.34905 117.599 13.3766 117.599 25.9424V30.2009C117.599 42.7667 110.951 49.7943 99.0856 49.7943H94.991C83.1255 49.7943 76.4772 42.7667 76.4772 30.2009V25.9424C76.4772 13.3766 83.1475 6.34905 94.991 6.34905Z" fill="white"/>
<path d="M318.025 2H249.974C242.256 2 236 8.40451 236 16.3049V38.6951C236 46.5955 242.256 53 249.974 53H318.025C325.743 53 332 46.5955 332 38.6951V16.3049C332 8.40451 325.743 2 318.025 2Z" stroke="white" stroke-width="3"/>
<path d="M261.913 39C258.98 39 256.342 37.8246 254 35.4738L255.645 33.663C257.735 35.6961 259.834 36.7127 261.944 36.7127C263.527 36.7127 264.814 36.2469 265.806 35.3149C266.798 34.383 267.294 33.1865 267.294 31.7251C267.294 30.3485 266.777 29.2261 265.743 28.3577C264.73 27.4894 263.411 27.0552 261.786 27.0552C260.267 27.0552 258.716 27.4788 257.133 28.326L255.456 27.2141L256.089 16.3812H268.845V18.7003H258.273L257.798 25.8163C259.296 25.1598 260.752 24.8315 262.166 24.8315C264.382 24.8315 266.207 25.4563 267.642 26.7058C269.098 27.9341 269.826 29.5967 269.826 31.6934C269.826 33.8536 269.088 35.6115 267.61 36.9668C266.133 38.3222 264.234 39 261.913 39ZM289.777 35.6644C288.047 37.8881 285.789 39 283.003 39C280.218 39 277.96 37.8988 276.23 35.6961C274.52 33.4724 273.666 30.7403 273.666 27.5C273.666 24.302 274.531 21.5912 276.261 19.3674C278.013 17.1225 280.281 16 283.067 16C285.852 16 288.099 17.1119 289.809 19.3356C291.518 21.5382 292.373 24.2597 292.373 27.5C292.373 30.698 291.507 33.4195 289.777 35.6644ZM278.16 34.0124C279.426 35.8125 281.062 36.7127 283.067 36.7127C285.071 36.7127 286.686 35.8232 287.909 34.0442C289.155 32.2441 289.777 30.0626 289.777 27.5C289.777 24.9797 289.144 22.8195 287.878 21.0193C286.633 19.198 285.008 18.2873 283.003 18.2873C280.998 18.2873 279.374 19.1874 278.129 20.9876C276.884 22.7666 276.261 24.9374 276.261 27.5C276.261 30.0203 276.894 32.1911 278.16 34.0124ZM312.404 35.6644C310.674 37.8881 308.416 39 305.63 39C302.845 39 300.587 37.8988 298.856 35.6961C297.147 33.4724 296.293 30.7403 296.293 27.5C296.293 24.302 297.158 21.5912 298.888 19.3674C300.64 17.1225 302.908 16 305.694 16C308.479 16 310.726 17.1119 312.436 19.3356C314.145 21.5382 315 24.2597 315 27.5C315 30.698 314.134 33.4195 312.404 35.6644ZM300.787 34.0124C302.053 35.8125 303.689 36.7127 305.694 36.7127C307.698 36.7127 309.313 35.8232 310.536 34.0442C311.782 32.2441 312.404 30.0626 312.404 27.5C312.404 24.9797 311.771 22.8195 310.505 21.0193C309.26 19.198 307.635 18.2873 305.63 18.2873C303.625 18.2873 302.001 19.1874 300.756 20.9876C299.511 22.7666 298.888 24.9374 298.888 27.5C298.888 30.0203 299.521 32.1911 300.787 34.0124Z" fill="white"/>
</svg>
